<?xml version="1.0" encoding="UTF-8" standalone="no"?>
<!DOCTYPE svg PUBLIC "-//W3C//DTD SVG 1.1//EN" "http://www.w3.org/Graphics/SVG/1.1/DTD/svg11.dtd">
<svg width="100%" height="100%" viewBox="0 0 405 415" version="1.1" xmlns="http://www.w3.org/2000/svg" xmlns:xlink="http://www.w3.org/1999/xlink" xml:space="preserve" xmlns:serif="http://www.serif.com/" style="fill-rule:evenodd;clip-rule:evenodd;stroke-linejoin:round;stroke-miterlimit:2;">
    <g transform="matrix(1,0,0,1,-220.621667,-243.643333)">
        <g transform="matrix(4.166667,0,0,4.166667,0,0)">
            <g transform="matrix(1,0,0,1,109.937,86.3666)">
                <path d="M0,46.273C-0.385,46.413 -0.755,46.574 -1.111,46.755C-3.002,47.714 -5.106,48.085 -7.211,47.831C-7.607,47.783 -8.011,47.758 -8.421,47.758C-8.83,47.758 -9.234,47.783 -9.63,47.831C-11.735,48.085 -13.839,47.714 -15.73,46.755C-16.086,46.574 -16.457,46.413 -16.842,46.273C-17.227,46.133 -17.614,46.018 -18.002,45.928C-20.068,45.447 -21.918,44.379 -23.367,42.831C-23.64,42.539 -23.933,42.261 -24.247,41.998C-24.561,41.734 -24.885,41.494 -25.22,41.276C-26.997,40.118 -28.37,38.481 -29.202,36.531C-29.358,36.164 -29.539,35.802 -29.743,35.447C-29.948,35.093 -30.171,34.755 -30.411,34.437C-31.684,32.741 -32.415,30.733 -32.529,28.616C-32.551,28.217 -32.597,27.815 -32.667,27.412C-32.739,27.009 -32.833,26.616 -32.949,26.234C-33.566,24.205 -33.566,22.068 -32.949,20.04C-32.833,19.658 -32.739,19.265 -32.667,18.861C-32.597,18.458 -32.551,18.057 -32.529,17.658C-32.415,15.541 -31.684,13.533 -30.411,11.837C-30.171,11.518 -29.948,11.181 -29.743,10.826C-29.539,10.472 -29.358,10.11 -29.202,9.743C-28.37,7.792 -26.997,6.155 -25.22,4.998C-24.885,4.779 -24.561,4.539 -24.247,4.276C-23.933,4.013 -23.64,3.734 -23.367,3.443C-21.918,1.895 -20.068,0.826 -18.002,0.346C-17.614,0.255 -17.227,0.141 -16.842,0.001C-16.457,-0.14 -16.086,-0.301 -15.73,-0.481C-13.839,-1.441 -11.735,-1.812 -9.63,-1.557C-9.234,-1.509 -8.83,-1.484 -8.421,-1.484C-8.011,-1.484 -7.607,-1.509 -7.211,-1.557C-5.106,-1.812 -3.002,-1.441 -1.111,-0.481C-0.755,-0.301 -0.385,-0.14 0,0.001C0.385,0.141 0.772,0.255 1.161,0.346C3.227,0.826 5.077,1.895 6.526,3.443C6.799,3.734 7.092,4.013 7.405,4.276C7.719,4.539 8.044,4.779 8.378,4.998C10.155,6.155 11.528,7.792 12.36,9.743C12.517,10.11 12.697,10.472 12.902,10.826C13.106,11.181 13.33,11.518 13.569,11.837C14.843,13.533 15.573,15.54 15.688,17.658C15.709,18.056 15.755,18.458 15.826,18.861C15.897,19.265 15.992,19.658 16.108,20.04C16.725,22.068 16.725,24.205 16.108,26.234C15.992,26.616 15.897,27.009 15.826,27.412C15.755,27.815 15.709,28.217 15.688,28.616C15.573,30.733 14.843,32.741 13.569,34.437C13.33,34.756 13.106,35.093 12.902,35.447C12.697,35.802 12.517,36.164 12.36,36.531C11.528,38.481 10.155,40.118 8.378,41.276C8.044,41.494 7.719,41.734 7.405,41.998C7.092,42.261 6.799,42.539 6.526,42.831C5.077,44.379 3.227,45.447 1.161,45.928C0.772,46.018 0.385,46.133 0,46.273M35.851,15.331C35.571,13.742 34.935,12.308 34.041,11.092C32.814,9.426 31.921,7.509 31.865,5.44C31.821,3.812 31.384,2.17 30.511,0.659C29.705,-0.737 28.617,-1.868 27.36,-2.704C25.533,-3.92 24.122,-5.602 23.241,-7.613C22.635,-8.996 21.711,-10.264 20.476,-11.301C19.139,-12.422 17.599,-13.138 16.002,-13.464C13.975,-13.879 12.242,-15.091 10.814,-16.588C9.772,-17.68 8.47,-18.556 6.955,-19.107C5.439,-19.659 3.879,-19.825 2.379,-19.658C0.197,-19.415 -1.965,-19.796 -3.933,-20.771C-5.285,-21.441 -6.808,-21.818 -8.421,-21.818C-10.033,-21.818 -11.556,-21.441 -12.909,-20.771C-14.876,-19.796 -17.039,-19.415 -19.22,-19.658C-20.721,-19.825 -22.281,-19.659 -23.796,-19.107C-25.312,-18.556 -26.614,-17.68 -27.656,-16.588C-29.083,-15.091 -30.816,-13.879 -32.844,-13.464C-34.44,-13.138 -35.98,-12.422 -37.317,-11.301C-38.552,-10.264 -39.477,-8.996 -40.082,-7.613C-40.963,-5.602 -42.374,-3.92 -44.202,-2.704C-45.458,-1.868 -46.546,-0.737 -47.353,0.659C-48.225,2.17 -48.663,3.812 -48.707,5.44C-48.763,7.509 -49.655,9.426 -50.882,11.092C-51.776,12.308 -52.413,13.742 -52.692,15.331C-52.973,16.919 -52.865,18.484 -52.44,19.932C-51.822,22.039 -51.822,24.234 -52.44,26.341C-52.865,27.79 -52.973,29.355 -52.692,30.943C-52.413,32.531 -51.776,33.965 -50.882,35.181C-49.655,36.848 -48.763,38.765 -48.707,40.833C-48.663,42.462 -48.225,44.103 -47.353,45.614C-46.546,47.011 -45.458,48.141 -44.202,48.978C-42.374,50.194 -40.963,51.876 -40.082,53.887C-39.477,55.27 -38.552,56.538 -37.317,57.574C-35.98,58.696 -34.44,59.411 -32.844,59.738C-30.816,60.152 -29.083,61.364 -27.656,62.861C-26.614,63.953 -25.312,64.829 -23.796,65.38C-22.281,65.932 -20.721,66.098 -19.22,65.931C-17.039,65.689 -14.876,66.07 -12.909,67.044C-11.556,67.714 -10.033,68.091 -8.421,68.091C-6.808,68.091 -5.285,67.714 -3.933,67.044C-1.965,66.07 0.197,65.689 2.379,65.931C3.879,66.098 5.439,65.932 6.955,65.38C8.47,64.829 9.772,63.953 10.814,62.861C12.242,61.364 13.975,60.152 16.002,59.738C17.599,59.411 19.139,58.696 20.476,57.574C21.711,56.538 22.635,55.27 23.241,53.887C24.122,51.876 25.533,50.194 27.36,48.978C28.617,48.141 29.705,47.011 30.511,45.614C31.384,44.103 31.821,42.462 31.865,40.833C31.921,38.765 32.814,36.848 34.041,35.181C34.935,33.965 35.571,32.531 35.851,30.943C36.131,29.355 36.024,27.79 35.599,26.341C34.981,24.234 34.981,22.039 35.599,19.932C36.024,18.484 36.131,16.919 35.851,15.331" style="fill:rgb(104,109,10);fill-rule:nonzero;"/>
            </g>
        </g>
        <g transform="matrix(4.166667,0,0,4.166667,0,0)">
            <g transform="matrix(1,0,0,1,101.5166,80.4548)">
                <path d="M0,58.097C0.229,58.097 0.455,58.111 0.677,58.138C1.282,58.211 1.895,58.247 2.501,58.247C4.852,58.247 7.207,57.683 9.313,56.615C9.512,56.514 9.719,56.423 9.934,56.346C10.15,56.266 10.367,56.202 10.584,56.152C13.506,55.472 16.131,53.955 18.179,51.767C18.333,51.603 18.497,51.448 18.668,51.305C18.846,51.154 19.025,51.021 19.211,50.9C21.728,49.261 23.676,46.938 24.854,44.18C24.94,43.977 25.039,43.775 25.153,43.578C25.271,43.372 25.396,43.185 25.53,43.008C27.331,40.609 28.367,37.76 28.529,34.766C28.541,34.545 28.567,34.321 28.606,34.095C28.647,33.867 28.7,33.645 28.765,33.428C29.636,30.565 29.636,27.532 28.764,24.663C28.7,24.453 28.647,24.231 28.607,24.002C28.567,23.777 28.541,23.553 28.529,23.33C28.367,20.337 27.331,17.488 25.531,15.091C25.396,14.912 25.271,14.725 25.158,14.528C25.039,14.322 24.94,14.12 24.852,13.916C23.676,11.159 21.728,8.837 19.217,7.201C19.025,7.077 18.846,6.943 18.673,6.797C18.497,6.65 18.334,6.496 18.183,6.334C16.13,4.14 13.504,2.624 10.584,1.946C10.367,1.895 10.15,1.83 9.934,1.752C9.721,1.674 9.516,1.585 9.318,1.485C7.177,0.399 4.885,-0.15 2.501,-0.15C1.896,-0.15 1.282,-0.113 0.678,-0.04C0.455,-0.013 0.229,0.001 0,0.001C-0.229,0.001 -0.455,-0.013 -0.677,-0.04C-1.282,-0.113 -1.896,-0.15 -2.501,-0.15C-4.851,-0.15 -7.207,0.414 -9.313,1.482C-9.516,1.585 -9.721,1.674 -9.934,1.752C-10.149,1.83 -10.365,1.895 -10.583,1.945C-13.506,2.625 -16.132,4.141 -18.179,6.33C-18.335,6.496 -18.498,6.651 -18.673,6.797C-18.849,6.945 -19.031,7.079 -19.217,7.201C-21.728,8.837 -23.676,11.159 -24.854,13.918C-24.941,14.123 -25.042,14.327 -25.158,14.528C-25.269,14.718 -25.393,14.908 -25.528,15.087C-27.331,17.488 -28.367,20.337 -28.529,23.331C-28.541,23.552 -28.566,23.777 -28.606,24.002C-28.646,24.227 -28.698,24.446 -28.763,24.658C-29.636,27.533 -29.636,30.564 -28.765,33.432C-28.698,33.652 -28.646,33.871 -28.606,34.095C-28.566,34.321 -28.541,34.545 -28.529,34.767C-28.367,37.76 -27.331,40.609 -25.531,43.006C-25.394,43.187 -25.27,43.378 -25.153,43.578C-25.042,43.77 -24.941,43.974 -24.853,44.182C-23.676,46.938 -21.728,49.261 -19.217,50.897C-19.031,51.018 -18.849,51.153 -18.673,51.3C-18.498,51.447 -18.333,51.603 -18.181,51.766C-16.133,53.955 -13.507,55.472 -10.586,56.152C-10.365,56.202 -10.149,56.267 -9.934,56.345C-9.723,56.422 -9.513,56.513 -9.313,56.615C-7.177,57.699 -4.885,58.247 -2.501,58.247C-1.895,58.247 -1.282,58.211 -0.678,58.138C-0.455,58.111 -0.229,58.097 0,58.097M0,69.576C-0.887,69.576 -1.736,69.379 -2.524,68.989C-4.726,67.898 -7.081,67.346 -9.523,67.346C-10.109,67.346 -10.704,67.378 -11.289,67.443C-11.497,67.466 -11.705,67.478 -11.915,67.478C-12.577,67.478 -13.231,67.362 -13.863,67.132C-14.696,66.828 -15.427,66.352 -16.032,65.717C-18.29,63.351 -20.814,61.869 -23.537,61.312C-24.47,61.121 -25.316,60.712 -26.052,60.094C-26.731,59.525 -27.254,58.827 -27.606,58.023C-28.824,55.243 -30.802,52.886 -33.328,51.204C-34.059,50.718 -34.654,50.081 -35.097,49.313C-35.579,48.481 -35.835,47.576 -35.861,46.624C-35.936,43.848 -36.958,41.104 -38.896,38.47C-39.417,37.761 -39.759,36.96 -39.913,36.086C-40.067,35.212 -40.02,34.343 -39.772,33.501C-38.918,30.587 -38.918,27.511 -39.771,24.599C-40.02,23.754 -40.067,22.885 -39.913,22.011C-39.759,21.138 -39.417,20.336 -38.896,19.628C-36.958,16.992 -35.936,14.249 -35.861,11.473C-35.835,10.521 -35.579,9.617 -35.097,8.784C-34.654,8.016 -34.059,7.38 -33.327,6.892C-30.802,5.212 -28.823,2.854 -27.606,0.074C-27.254,-0.731 -26.731,-1.427 -26.051,-1.997C-25.315,-2.615 -24.469,-3.025 -23.537,-3.216C-20.814,-3.771 -18.29,-5.253 -16.032,-7.62C-15.425,-8.256 -14.696,-8.732 -13.863,-9.035C-13.231,-9.265 -12.577,-9.381 -11.914,-9.381C-11.704,-9.381 -11.495,-9.369 -11.288,-9.346C-10.704,-9.281 -10.109,-9.248 -9.523,-9.248C-7.081,-9.248 -4.726,-9.801 -2.524,-10.892C-1.737,-11.281 -0.887,-11.479 0,-11.479C0.887,-11.479 1.736,-11.282 2.521,-10.892C4.727,-9.8 7.082,-9.248 9.523,-9.248C10.109,-9.248 10.703,-9.281 11.29,-9.346C11.495,-9.369 11.704,-9.381 11.914,-9.381C12.576,-9.381 13.231,-9.265 13.861,-9.035C14.695,-8.732 15.424,-8.256 16.031,-7.62C18.291,-5.252 20.816,-3.771 23.538,-3.216C24.469,-3.025 25.315,-2.615 26.052,-1.997C26.729,-1.428 27.254,-0.73 27.607,0.077C28.824,2.855 30.802,5.212 33.327,6.893C34.059,7.38 34.654,8.016 35.099,8.784C35.578,9.616 35.834,10.52 35.859,11.47C35.935,14.25 36.957,16.994 38.896,19.628C39.415,20.335 39.758,21.137 39.911,22.011C40.066,22.886 40.018,23.755 39.772,24.598C38.917,27.51 38.917,30.588 39.772,33.499C40.018,34.342 40.066,35.212 39.911,36.086C39.758,36.961 39.415,37.763 38.896,38.469C36.957,41.102 35.935,43.846 35.86,46.624C35.834,47.577 35.578,48.481 35.099,49.313C34.654,50.081 34.059,50.718 33.328,51.204C30.802,52.885 28.824,55.243 27.606,58.022C27.254,58.827 26.729,59.525 26.05,60.096C25.316,60.712 24.47,61.121 23.536,61.312C20.815,61.868 18.291,63.35 16.032,65.717C15.424,66.353 14.695,66.829 13.861,67.132C13.231,67.362 12.576,67.478 11.915,67.478C11.705,67.478 11.496,67.466 11.289,67.443C10.703,67.378 10.109,67.346 9.523,67.346C7.082,67.346 4.727,67.898 2.523,68.988C1.735,69.379 0.886,69.576 0,69.576" style="fill:rgb(156,167,36);fill-rule:nonzero;"/>
            </g>
        </g>
        <g transform="matrix(4.166667,0,0,4.166667,0,0)">
            <g transform="matrix(1,0,0,1,122.0166,99.3089)">
                <path d="M0,20.383C-0.293,20.778 -0.558,21.179 -0.783,21.573C-1.022,21.985 -1.24,22.418 -1.428,22.86C-2.113,24.467 -3.25,25.822 -4.717,26.779C-5.115,27.039 -5.501,27.325 -5.874,27.636C-6.243,27.95 -6.591,28.28 -6.91,28.62C-8.105,29.897 -9.637,30.781 -11.344,31.177C-11.807,31.287 -12.268,31.424 -12.716,31.586C-13.158,31.747 -13.599,31.938 -14.032,32.155C-15.591,32.949 -17.328,33.257 -19.065,33.046C-19.535,32.988 -20.018,32.959 -20.5,32.959C-20.982,32.959 -21.465,32.988 -21.934,33.046C-23.669,33.255 -25.41,32.948 -26.971,32.154C-27.391,31.942 -27.833,31.75 -28.293,31.582C-28.744,31.42 -29.203,31.284 -29.661,31.176C-31.363,30.781 -32.896,29.897 -34.091,28.62C-34.42,28.269 -34.771,27.936 -35.134,27.631C-35.5,27.325 -35.887,27.039 -36.285,26.779C-37.75,25.823 -38.887,24.468 -39.574,22.859C-39.764,22.415 -39.979,21.984 -40.215,21.577C-40.451,21.167 -40.717,20.764 -41.005,20.379C-42.056,18.981 -42.661,17.319 -42.755,15.572C-42.781,15.093 -42.836,14.613 -42.919,14.147C-43.004,13.67 -43.115,13.2 -43.251,12.752C-43.76,11.079 -43.76,9.31 -43.251,7.636C-43.115,7.186 -43.002,6.717 -42.919,6.242C-42.836,5.771 -42.781,5.292 -42.756,4.817C-42.661,3.071 -42.056,1.408 -41.005,0.009C-40.72,-0.37 -40.454,-0.772 -40.214,-1.189C-39.978,-1.599 -39.762,-2.03 -39.573,-2.471C-38.887,-4.08 -37.751,-5.434 -36.288,-6.388C-35.883,-6.652 -35.494,-6.94 -35.132,-7.243C-34.771,-7.547 -34.421,-7.879 -34.09,-8.231C-32.895,-9.508 -31.363,-10.392 -29.66,-10.788C-29.198,-10.896 -28.751,-11.03 -28.284,-11.197C-27.838,-11.36 -27.396,-11.552 -26.968,-11.767C-25.417,-12.555 -23.671,-12.863 -21.937,-12.658C-20.996,-12.541 -20.003,-12.541 -19.072,-12.657C-17.322,-12.86 -15.581,-12.554 -14.028,-11.766C-13.602,-11.551 -13.16,-11.359 -12.712,-11.196C-12.263,-11.034 -11.802,-10.896 -11.339,-10.788C-9.637,-10.392 -8.105,-9.508 -6.909,-8.23C-6.591,-7.891 -6.243,-7.561 -5.87,-7.244C-5.507,-6.939 -5.118,-6.652 -4.716,-6.389C-3.25,-5.433 -2.113,-4.079 -1.428,-2.471C-1.24,-2.03 -1.022,-1.597 -0.787,-1.192C-0.555,-0.785 -0.288,-0.381 0.005,0.009C1.055,1.406 1.66,3.07 1.754,4.815C1.78,5.298 1.835,5.779 1.918,6.235C1.997,6.694 2.108,7.165 2.251,7.638C2.76,9.31 2.76,11.079 2.251,12.753C2.111,13.218 1.998,13.688 1.919,14.143C1.835,14.612 1.78,15.093 1.755,15.572C1.659,17.32 1.054,18.982 0,20.383M5.575,5.593C5.516,5.265 5.479,4.937 5.462,4.615C5.328,2.132 4.468,-0.231 2.974,-2.221C2.78,-2.48 2.598,-2.754 2.431,-3.044C2.264,-3.333 2.116,-3.629 1.988,-3.929C1.013,-6.217 -0.604,-8.144 -2.689,-9.502C-2.96,-9.678 -3.224,-9.873 -3.481,-10.091C-3.738,-10.304 -3.974,-10.529 -4.197,-10.768C-5.895,-12.584 -8.073,-13.841 -10.497,-14.406C-10.814,-14.479 -11.13,-14.572 -11.442,-14.686C-11.756,-14.801 -12.06,-14.932 -12.351,-15.08C-14.573,-16.206 -17.052,-16.645 -19.517,-16.343C-20.153,-16.264 -20.837,-16.264 -21.487,-16.343C-23.95,-16.644 -26.428,-16.206 -28.648,-15.08C-28.939,-14.933 -29.242,-14.801 -29.554,-14.687C-29.87,-14.573 -30.184,-14.48 -30.503,-14.406C-32.925,-13.842 -35.103,-12.584 -36.799,-10.772C-37.023,-10.533 -37.265,-10.304 -37.52,-10.089C-37.775,-9.874 -38.039,-9.679 -38.313,-9.501C-40.397,-8.142 -42.014,-6.216 -42.991,-3.927C-43.118,-3.626 -43.264,-3.332 -43.43,-3.046C-43.597,-2.756 -43.78,-2.48 -43.976,-2.22C-45.468,-0.233 -46.328,2.131 -46.464,4.621C-46.481,4.943 -46.519,5.269 -46.577,5.596C-46.634,5.927 -46.712,6.247 -46.806,6.558C-47.529,8.937 -47.529,11.452 -46.806,13.833C-46.711,14.143 -46.634,14.464 -46.576,14.794C-46.519,15.121 -46.479,15.447 -46.463,15.773C-46.33,18.258 -45.469,20.621 -43.976,22.607C-43.78,22.869 -43.597,23.145 -43.431,23.432C-43.264,23.721 -43.117,24.015 -42.99,24.318C-42.014,26.605 -40.397,28.532 -38.315,29.888C-38.042,30.068 -37.773,30.265 -37.523,30.474C-37.267,30.691 -37.026,30.92 -36.802,31.158C-35.103,32.973 -32.925,34.23 -30.501,34.796C-30.183,34.868 -29.87,34.961 -29.557,35.074C-29.243,35.19 -28.94,35.321 -28.649,35.468C-26.883,36.364 -24.955,36.824 -23.001,36.824C-22.499,36.824 -21.994,36.794 -21.489,36.733C-20.837,36.655 -20.152,36.655 -19.516,36.732C-17.073,37.028 -14.548,36.583 -12.352,35.469C-12.061,35.321 -11.759,35.19 -11.443,35.074C-11.131,34.961 -10.815,34.868 -10.497,34.795C-8.074,34.23 -5.895,32.972 -4.195,31.154C-3.973,30.917 -3.737,30.691 -3.485,30.481C-3.227,30.265 -2.958,30.068 -2.687,29.89C-0.604,28.533 1.013,26.606 1.988,24.317C2.116,24.017 2.264,23.721 2.432,23.431C2.598,23.142 2.781,22.866 2.974,22.608C4.468,20.621 5.328,18.257 5.461,15.776C5.479,15.45 5.518,15.122 5.575,14.792C5.633,14.463 5.712,14.141 5.805,13.832C6.528,11.451 6.528,8.937 5.806,6.565C5.712,6.251 5.634,5.931 5.575,5.593" style="fill:rgb(33,41,45);fill-rule:nonzero;"/>
            </g>
        </g>
        <g transform="matrix(4.166667,0,0,4.166667,0,0)">
            <g transform="matrix(1,0,0,1,141.3101,156.1646)">
                <path d="M0,-27.813C-0.012,-27.814 -0.025,-27.814 -0.037,-27.815C-0.851,-27.862 -1.608,-27.371 -1.865,-26.598C-2.039,-26.076 -2.264,-25.571 -2.54,-25.093C-3.199,-23.954 -4.091,-23.014 -5.19,-22.301C-7.198,-20.999 -8.866,-19.22 -9.738,-16.991C-10.309,-15.535 -11.244,-14.313 -12.509,-13.373C-13.484,-12.648 -14.623,-12.163 -15.812,-11.911C-17.949,-11.459 -19.966,-10.262 -21.809,-8.355C-22.816,-7.313 -24.069,-6.507 -25.457,-6.086C-26.539,-5.758 -27.662,-5.658 -28.797,-5.792C-31.332,-6.091 -33.887,-5.502 -36.199,-4.421C-38.449,-3.37 -41.101,-3.395 -43.333,-4.498C-45.142,-5.393 -47.161,-5.866 -49.174,-5.866C-49.662,-5.866 -50.154,-5.839 -50.635,-5.785C-51.903,-5.646 -53.158,-5.796 -54.355,-6.232C-54.966,-6.455 -55.537,-6.745 -56.066,-7.097C-56.84,-7.611 -57.891,-7.44 -58.465,-6.711C-58.483,-6.688 -58.5,-6.666 -58.518,-6.643C-59.171,-5.81 -58.96,-4.587 -58.078,-4.002C-57.317,-3.497 -56.497,-3.08 -55.62,-2.76C-53.884,-2.129 -52.072,-1.913 -50.23,-2.111C-48.417,-2.313 -46.602,-1.992 -44.974,-1.186C-43.32,-0.366 -41.541,0.049 -39.686,0.049C-37.832,0.049 -36.053,-0.366 -34.4,-1.185C-32.769,-1.992 -30.956,-2.314 -29.141,-2.111C-27.311,-1.911 -25.492,-2.126 -23.753,-2.76C-22.01,-3.395 -20.48,-4.394 -19.207,-5.729C-17.931,-7.065 -16.601,-7.912 -15.249,-8.248C-14.012,-8.556 -12.771,-8.884 -11.665,-9.516C-9.3,-10.866 -7.551,-12.782 -6.501,-15.153C-5.761,-16.827 -4.576,-18.271 -3.052,-19.285C-1.514,-20.309 -0.266,-21.64 0.659,-23.244C1.067,-23.95 1.396,-24.696 1.648,-25.467C2.013,-26.587 1.176,-27.746 0,-27.813" style="fill:rgb(33,41,45);fill-rule:nonzero;"/>
            </g>
        </g>
        <g transform="matrix(4.166667,0,0,4.166667,0,0)">
            <g transform="matrix(1,0,0,1,80.9292,91.3429)">
                <path d="M0,54.37C-1.11,53.666 -2.268,53.187 -3.464,52.942C-4.803,52.667 -6.067,52.057 -7.116,51.175C-8.103,50.348 -8.861,49.335 -9.373,48.164C-10.381,45.856 -12.052,43.858 -14.151,42.464C-15.222,41.754 -16.092,40.827 -16.736,39.71C-17.423,38.521 -17.805,37.172 -17.842,35.806C-17.903,33.564 -18.755,31.309 -20.378,29.106C-21.135,28.075 -21.633,26.911 -21.856,25.645C-22.086,24.337 -22.005,23.035 -21.616,21.775C-20.869,19.359 -21.007,16.754 -21.684,14.317C-22.143,12.663 -22.076,10.938 -21.476,9.229C-21.202,8.448 -20.754,7.741 -20.271,7.069C-18.718,4.911 -17.901,2.706 -17.842,0.515C-17.828,-0.002 -17.764,-0.517 -17.653,-1.022C-17.469,-1.856 -17.812,-2.716 -18.569,-3.109C-18.58,-3.115 -18.591,-3.121 -18.602,-3.127C-19.667,-3.681 -20.976,-3.096 -21.25,-1.927C-21.43,-1.16 -21.534,-0.376 -21.556,0.414C-21.594,1.865 -22.188,3.389 -23.32,4.948C-24.264,6.247 -24.982,7.718 -25.356,9.28C-25.856,11.367 -25.808,13.456 -25.216,15.475C-24.705,17.222 -24.704,19.097 -25.216,20.843C-25.808,22.866 -25.856,24.959 -25.354,27.048C-24.979,28.608 -24.262,30.078 -23.318,31.376C-22.187,32.933 -21.594,34.456 -21.556,35.907C-21.502,37.886 -20.948,39.842 -19.953,41.567C-19.021,43.18 -17.768,44.517 -16.229,45.542C-14.722,46.546 -13.507,47.973 -12.784,49.634C-11.884,51.701 -10.456,53.428 -8.557,54.741C-7.206,55.676 -5.646,56.239 -4.047,56.617C-3.335,56.785 -2.631,57.1 -1.937,57.551C-1.167,58.051 -0.137,57.831 0.431,57.109C0.442,57.096 0.453,57.081 0.464,57.067C1.142,56.209 0.924,54.956 0,54.37" style="fill:rgb(33,41,45);fill-rule:nonzero;"/>
            </g>
        </g>
        <g transform="matrix(4.166667,0,0,4.166667,0,0)">
            <g transform="matrix(1,0,0,1,147.3198,82.2034)">
                <path d="M0,24.612C0.583,22.619 0.637,20.564 0.164,18.518C-0.21,16.904 -0.958,15.389 -1.927,14.045C-3.004,12.55 -3.585,11.085 -3.656,9.688C-3.738,8.058 -4.04,6.435 -4.72,4.95C-5.677,2.861 -7.123,1.159 -8.993,-0.085C-10.503,-1.09 -11.71,-2.528 -12.438,-4.189C-13.34,-6.251 -14.767,-7.973 -16.663,-9.281C-18.006,-10.207 -19.552,-10.786 -21.143,-11.15C-22.511,-11.463 -23.858,-12.296 -25.151,-13.63C-26.143,-14.653 -27.288,-15.542 -28.568,-16.166C-30.691,-17.201 -32.94,-17.599 -35.209,-17.339C-37.018,-17.136 -38.844,-17.458 -40.486,-18.269C-43.829,-19.92 -47.775,-19.922 -51.117,-18.271C-52.76,-17.46 -54.583,-17.138 -56.396,-17.339C-58.383,-17.562 -60.353,-17.288 -62.233,-16.527C-63.821,-15.883 -65.251,-14.876 -66.441,-13.644C-67.733,-12.308 -69.081,-11.471 -70.452,-11.153C-72.051,-10.782 -73.609,-10.207 -74.959,-9.271C-76.857,-7.956 -78.284,-6.227 -79.183,-4.157C-79.914,-2.471 -81.177,-1.06 -82.698,-0.029C-83.442,0.475 -84.115,1.056 -84.716,1.707C-85.528,2.585 -85.258,4.005 -84.196,4.554L-84.151,4.577C-83.398,4.966 -82.502,4.766 -81.918,4.152C-81.575,3.791 -81.198,3.461 -80.789,3.167C-78.696,1.662 -76.812,-0.192 -75.821,-2.572C-75.31,-3.798 -74.53,-4.856 -73.507,-5.715C-72.458,-6.596 -71.194,-7.207 -69.854,-7.482C-67.663,-7.93 -65.599,-9.154 -63.718,-11.119C-63.219,-11.639 -62.672,-12.122 -62.05,-12.487C-60.455,-13.422 -58.746,-13.821 -57.016,-13.669C-54.477,-13.445 -51.866,-13.702 -49.603,-14.874C-47.279,-16.078 -44.478,-16.1 -42.14,-14.943C-39.843,-13.806 -37.244,-13.404 -34.694,-13.659C-33.467,-13.782 -32.244,-13.628 -31.062,-13.198C-29.857,-12.761 -28.795,-12.069 -27.912,-11.144C-26.024,-9.164 -23.952,-7.932 -21.753,-7.482C-20.413,-7.207 -19.15,-6.597 -18.1,-5.715C-17.113,-4.888 -16.352,-3.871 -15.837,-2.695C-14.828,-0.385 -13.15,1.608 -11.052,3.006C-9.988,3.715 -9.123,4.638 -8.479,5.751C-7.793,6.94 -7.411,8.29 -7.375,9.654C-7.313,11.899 -6.459,14.153 -4.837,16.357C-3.742,17.844 -3.19,19.615 -3.225,21.576C-3.237,22.268 -3.383,22.951 -3.577,23.615C-4.275,26.018 -4.277,28.555 -3.585,30.957C-3.392,31.629 -3.242,32.318 -3.228,33.017C-3.189,34.979 -3.74,36.753 -4.838,38.243C-5.802,39.553 -6.492,40.882 -6.905,42.215C-7.241,43.296 -6.471,44.407 -5.342,44.472C-5.257,44.477 -5.172,44.482 -5.087,44.487C-4.265,44.534 -3.561,43.988 -3.309,43.203C-3.029,42.334 -2.569,41.446 -1.92,40.546C-0.954,39.208 -0.214,37.698 0.16,36.091C0.638,34.04 0.583,31.981 -0.001,29.983C-0.513,28.236 -0.511,26.36 0,24.612" style="fill:rgb(33,41,45);fill-rule:nonzero;"/>
            </g>
        </g>
        <g transform="matrix(4.166667,0,0,4.166667,0,0)">
            <g transform="matrix(1,0,0,1,104.1968,156.2139)">
                <path d="M0,-23.355L-5.36,-23.355C-6.451,-23.355 -7.335,-22.57 -7.335,-21.602L-7.335,-1.754C-7.335,-0.785 -6.451,0 -5.36,0L0,0C1.09,0 1.974,-0.785 1.974,-1.754L1.974,-21.602C1.974,-22.57 1.09,-23.355 0,-23.355" style="fill:rgb(249,47,0);fill-rule:nonzero;"/>
            </g>
        </g>
        <g transform="matrix(4.166667,0,0,4.166667,0,0)">
            <g transform="matrix(1,0,0,1,104.1958,158.07)">
                <path d="M0,-27.068L-5.36,-27.068C-7.472,-27.068 -9.19,-25.448 -9.19,-23.458L-9.19,-14.095C-9.19,-13.103 -8.395,-12.282 -7.403,-12.276L-7.285,-12.276C-6.285,-12.272 -5.477,-13.094 -5.477,-14.095L-5.477,-23.336C-5.448,-23.346 -5.409,-23.354 -5.36,-23.354L0,-23.354C0.051,-23.354 0.091,-23.345 0.119,-23.335L0.119,-3.733C0.091,-3.723 0.051,-3.714 0,-3.714L-5.36,-3.714C-5.409,-3.714 -5.448,-3.722 -5.477,-3.733L-5.477,-8.781C-5.477,-9.789 -6.296,-10.594 -7.304,-10.599L-7.341,-10.599C-8.357,-10.604 -9.19,-9.797 -9.19,-8.781L-9.19,-3.61C-9.19,-1.62 -7.472,0 -5.36,0L0,0C2.113,0 3.833,-1.62 3.833,-3.61L3.833,-23.458C3.833,-25.448 2.113,-27.068 0,-27.068" style="fill:rgb(33,41,45);fill-rule:nonzero;"/>
            </g>
        </g>
        <g transform="matrix(4.166667,0,0,4.166667,0,0)">
            <g transform="matrix(1,0,0,1,148.2271,106.8236)">
                <path d="M0,5.36L0,0C0,-1.091 -0.785,-1.975 -1.754,-1.975L-21.602,-1.975C-22.57,-1.975 -23.355,-1.091 -23.355,0L-23.355,5.36C-23.355,6.45 -22.57,7.335 -21.602,7.335L-1.754,7.335C-0.785,7.335 0,6.45 0,5.36" style="fill:rgb(249,47,0);fill-rule:nonzero;"/>
            </g>
        </g>
        <g transform="matrix(4.166667,0,0,4.166667,0,0)">
            <g transform="matrix(1,0,0,1,146.4741,116.0152)">
                <path d="M0,-13.024L-19.849,-13.024C-21.84,-13.024 -23.46,-11.305 -23.46,-9.192L-23.46,-3.831C-23.46,-1.719 -21.84,0 -19.849,0L-8.717,0C-7.791,0 -7.01,-0.689 -6.891,-1.607C-6.889,-1.62 -6.888,-1.632 -6.886,-1.644C-6.744,-2.742 -7.605,-3.713 -8.712,-3.713L-19.726,-3.713C-19.737,-3.742 -19.745,-3.781 -19.745,-3.831L-19.745,-9.192C-19.745,-9.242 -19.737,-9.282 -19.726,-9.311L-0.123,-9.311C-0.112,-9.282 -0.104,-9.242 -0.104,-9.192L-0.104,-3.831C-0.104,-3.781 -0.112,-3.742 -0.123,-3.713L-3.329,-3.713C-4.254,-3.713 -5.037,-3.025 -5.15,-2.106C-5.151,-2.093 -5.153,-2.081 -5.155,-2.068C-5.291,-0.97 -4.44,0 -3.333,0L0,0C1.991,0 3.61,-1.719 3.61,-3.831L3.61,-9.192C3.61,-11.305 1.991,-13.024 0,-13.024" style="fill:rgb(33,41,45);fill-rule:nonzero;"/>
            </g>
        </g>
        <g transform="matrix(4.166667,0,0,4.166667,0,0)">
            <g transform="matrix(1,0,0,1,78.1611,106.8236)">
                <path d="M0,5.36L0,0C0,-1.091 -0.785,-1.975 -1.754,-1.975L-21.602,-1.975C-22.57,-1.975 -23.355,-1.091 -23.355,0L-23.355,5.36C-23.355,6.45 -22.57,7.335 -21.602,7.335L-1.754,7.335C-0.785,7.335 0,6.45 0,5.36" style="fill:rgb(249,47,0);fill-rule:nonzero;"/>
            </g>
        </g>
        <g transform="matrix(4.166667,0,0,4.166667,0,0)">
            <g transform="matrix(1,0,0,1,76.4072,116.0152)">
                <path d="M0,-13.024L-19.847,-13.024C-21.838,-13.024 -23.458,-11.305 -23.458,-9.192L-23.458,-3.831C-23.458,-1.719 -21.838,0 -19.847,0L-15.418,0C-14.398,0 -13.577,-0.831 -13.584,-1.852L-13.584,-1.889C-13.591,-2.899 -14.409,-3.713 -15.419,-3.713L-19.725,-3.713C-19.736,-3.742 -19.745,-3.781 -19.745,-3.831L-19.745,-9.192C-19.745,-9.243 -19.736,-9.282 -19.725,-9.311L-0.123,-9.311C-0.111,-9.282 -0.103,-9.243 -0.103,-9.192L-0.103,-3.831C-0.103,-3.781 -0.111,-3.742 -0.123,-3.713L-10.064,-3.713C-11.085,-3.713 -11.914,-2.882 -11.907,-1.861L-11.907,-1.824C-11.899,-0.815 -11.074,0 -10.064,0L0,0C1.991,0 3.611,-1.719 3.611,-3.831L3.611,-9.192C3.611,-11.305 1.991,-13.024 0,-13.024" style="fill:rgb(33,41,45);fill-rule:nonzero;"/>
            </g>
        </g>
        <g transform="matrix(4.166667,0,0,4.166667,0,0)">
            <g transform="matrix(1,0,0,1,136.4409,91.0941)">
                <path d="M0,-12.725L-3.791,-16.515C-4.562,-17.287 -5.742,-17.356 -6.427,-16.671L-20.461,-2.637C-21.146,-1.952 -21.076,-0.772 -20.305,-0L-16.515,3.79C-15.744,4.561 -14.563,4.631 -13.878,3.946L0.156,-10.089C0.841,-10.773 0.771,-11.954 0,-12.725" style="fill:rgb(249,47,0);fill-rule:nonzero;"/>
            </g>
        </g>
        <g transform="matrix(4.166667,0,0,4.166667,0,0)">
            <g transform="matrix(1,0,0,1,137.7544,92.0146)">
                <path d="M0,-14.958L-3.792,-18.75C-5.29,-20.244 -7.649,-20.312 -9.053,-18.904L-23.087,-4.871C-23.781,-4.177 -24.14,-3.237 -24.097,-2.225C-24.056,-1.248 -23.641,-0.318 -22.931,0.393L-19.141,4.182C-18.397,4.926 -17.386,5.354 -16.367,5.354L-16.366,5.354C-15.416,5.354 -14.532,4.992 -13.879,4.337L-9.151,-0.391C-8.42,-1.121 -8.432,-2.312 -9.181,-3.024C-9.189,-3.033 -9.199,-3.041 -9.208,-3.05C-9.931,-3.737 -11.072,-3.721 -11.777,-3.016L-16.418,1.625C-16.445,1.613 -16.479,1.592 -16.515,1.557L-20.304,-2.233C-20.338,-2.267 -20.361,-2.301 -20.375,-2.331L-6.513,-16.193C-6.486,-16.18 -6.452,-16.159 -6.416,-16.124L-2.626,-12.332C-2.591,-12.296 -2.57,-12.262 -2.559,-12.235L-7.999,-6.794C-8.722,-6.071 -8.728,-4.884 -7.984,-4.181C-7.976,-4.172 -7.966,-4.164 -7.957,-4.155C-7.226,-3.463 -6.085,-3.457 -5.373,-4.169L0.153,-9.695C0.809,-10.349 1.17,-11.232 1.17,-12.183C1.17,-13.203 0.743,-14.214 0,-14.958" style="fill:rgb(33,41,45);fill-rule:nonzero;"/>
            </g>
        </g>
        <g transform="matrix(4.166667,0,0,4.166667,0,0)">
            <g transform="matrix(1,0,0,1,86.897,140.6381)">
                <path d="M0,-12.725L-3.791,-16.515C-4.562,-17.286 -5.742,-17.356 -6.427,-16.671L-20.461,-2.637C-21.146,-1.952 -21.076,-0.771 -20.305,-0L-16.515,3.79C-15.744,4.561 -14.563,4.631 -13.878,3.946L0.156,-10.088C0.841,-10.773 0.771,-11.954 0,-12.725" style="fill:rgb(249,47,0);fill-rule:nonzero;"/>
            </g>
        </g>
        <g transform="matrix(4.166667,0,0,4.166667,0,0)">
            <g transform="matrix(1,0,0,1,88.2095,141.8966)">
                <path d="M0,-15.297L-3.791,-19.087C-4.484,-19.781 -5.391,-20.195 -6.354,-20.252C-7.384,-20.312 -8.353,-19.945 -9.052,-19.242L-23.086,-5.209C-24.492,-3.802 -24.423,-1.442 -22.931,0.055L-19.14,3.845C-18.446,4.538 -17.541,4.952 -16.578,5.01L-16.362,5.015C-15.413,5.015 -14.529,4.655 -13.879,4L-7.782,-2.096C-7.101,-2.777 -7.062,-3.87 -7.696,-4.596C-7.704,-4.606 -7.712,-4.615 -7.72,-4.624C-8.421,-5.428 -9.651,-5.478 -10.406,-4.724L-16.417,1.288C-16.447,1.275 -16.48,1.253 -16.515,1.219L-20.304,-2.571C-20.34,-2.608 -20.361,-2.642 -20.375,-2.669L-6.512,-16.53C-6.484,-16.518 -6.45,-16.495 -6.416,-16.462L-2.625,-12.672C-2.589,-12.635 -2.568,-12.601 -2.556,-12.574L-6.61,-8.52C-7.289,-7.841 -7.333,-6.754 -6.712,-6.022C-6.704,-6.012 -6.696,-6.003 -6.687,-5.993C-5.994,-5.176 -4.744,-5.133 -3.986,-5.891L0.158,-10.035C1.563,-11.443 1.493,-13.804 0,-15.297" style="fill:rgb(33,41,45);fill-rule:nonzero;"/>
            </g>
        </g>
        <g transform="matrix(4.166667,0,0,4.166667,0,0)">
            <g transform="matrix(1,0,0,1,132.6504,124.1227)">
                <path d="M0,20.305L3.791,16.515C4.562,15.744 4.631,14.563 3.947,13.879L-10.088,-0.156C-10.773,-0.841 -11.953,-0.771 -12.724,0L-16.515,3.79C-17.286,4.562 -17.355,5.742 -16.67,6.427L-2.636,20.461C-1.951,21.146 -0.771,21.076 0,20.305" style="fill:rgb(249,47,0);fill-rule:nonzero;"/>
            </g>
        </g>
        <g transform="matrix(4.166667,0,0,4.166667,0,0)">
            <g transform="matrix(1,0,0,1,137.9087,131.518)">
                <path d="M0,5.17L-5.539,-0.369C-6.354,-1.184 -7.71,-1.056 -8.359,-0.102C-8.366,-0.092 -8.374,-0.081 -8.38,-0.071C-8.877,0.658 -8.783,1.638 -8.159,2.262L-2.712,7.71C-2.724,7.737 -2.745,7.772 -2.781,7.807L-6.57,11.597C-6.606,11.633 -6.641,11.654 -6.667,11.667L-20.529,-2.195C-20.517,-2.223 -20.497,-2.257 -20.461,-2.292L-16.669,-6.083C-16.634,-6.119 -16.599,-6.14 -16.572,-6.151L-12.001,-1.581C-11.192,-0.771 -9.845,-0.889 -9.195,-1.831C-9.188,-1.841 -9.181,-1.851 -9.174,-1.862C-8.668,-2.595 -8.751,-3.581 -9.381,-4.211L-14.032,-8.863C-15.386,-10.222 -17.857,-10.147 -19.295,-8.708L-23.086,-4.917C-24.58,-3.423 -24.649,-1.062 -23.242,0.344L-9.208,14.379C-8.554,15.032 -7.67,15.392 -6.721,15.392C-5.7,15.392 -4.688,14.966 -3.945,14.223L-0.153,10.432C1.338,8.938 1.406,6.577 0,5.17" style="fill:rgb(33,41,45);fill-rule:nonzero;"/>
            </g>
        </g>
        <g transform="matrix(4.166667,0,0,4.166667,0,0)">
            <g transform="matrix(1,0,0,1,83.1064,74.5788)">
                <path d="M0,20.305L3.791,16.515C4.562,15.743 4.631,14.563 3.946,13.878L-10.088,-0.156C-10.773,-0.841 -11.953,-0.771 -12.724,0L-16.515,3.79C-17.286,4.561 -17.355,5.742 -16.671,6.427L-2.636,20.461C-1.951,21.146 -0.771,21.076 0,20.305" style="fill:rgb(249,47,0);fill-rule:nonzero;"/>
            </g>
        </g>
        <g transform="matrix(4.166667,0,0,4.166667,0,0)">
            <g transform="matrix(1,0,0,1,88.3662,82.271)">
                <path d="M0,4.873L-3.717,1.156C-4.371,0.502 -5.419,0.424 -6.145,0.998L-6.174,1.022C-7.041,1.711 -7.13,2.996 -6.347,3.779L-2.713,7.413C-2.725,7.44 -2.746,7.475 -2.782,7.51L-6.572,11.3C-6.607,11.334 -6.641,11.356 -6.669,11.369L-20.53,-2.492C-20.518,-2.519 -20.498,-2.553 -20.462,-2.588L-16.671,-6.38C-16.636,-6.415 -16.603,-6.437 -16.575,-6.45L-10.129,-0.004C-9.444,0.682 -8.357,0.702 -7.618,0.075C-7.608,0.066 -7.599,0.059 -7.589,0.051C-6.778,-0.635 -6.751,-1.877 -7.501,-2.628L-14.033,-9.159C-14.732,-9.862 -15.667,-10.224 -16.745,-10.17C-17.697,-10.113 -18.603,-9.7 -19.297,-9.006L-23.087,-5.215C-23.832,-4.471 -24.259,-3.46 -24.259,-2.44C-24.259,-1.49 -23.898,-0.606 -23.243,0.047L-9.209,14.08C-8.557,14.735 -7.674,15.097 -6.724,15.097L-6.499,15.091C-5.547,15.033 -4.641,14.62 -3.947,13.926L-0.157,10.136C1.336,8.643 1.406,6.282 0,4.873" style="fill:rgb(33,41,45);fill-rule:nonzero;"/>
            </g>
        </g>
        <g transform="matrix(4.166667,0,0,4.166667,0,0)">
            <g transform="matrix(1,0,0,1,71.8428,75.8082)">
                <path d="M0,-1.107L0,0C-0.003,0 -0.008,-0.001 -0.013,-0.002L0,-1.107Z" style="fill:rgb(33,41,45);fill-rule:nonzero;"/>
            </g>
        </g>
        <g transform="matrix(4.166667,0,0,4.166667,0,0)">
            <g transform="matrix(1,0,0,1,69.8462,92.0964)">
                <path d="M0,7.764C-2.144,7.764 -3.882,6.026 -3.882,3.882C-3.882,1.739 -2.144,0 0,0C2.144,0 3.882,1.739 3.882,3.882C3.882,6.026 2.144,7.764 0,7.764" style="fill:rgb(232,232,232);fill-rule:nonzero;"/>
            </g>
        </g>
        <g transform="matrix(4.166667,0,0,4.166667,0,0)">
            <g transform="matrix(1,0,0,1,69.8467,98.0051)">
                <path d="M0,-4.051C1.116,-4.051 2.024,-3.143 2.024,-2.027C2.024,-0.909 1.116,-0.001 0,-0.001C-1.117,-0.001 -2.026,-0.909 -2.026,-2.027C-2.026,-3.143 -1.117,-4.051 0,-4.051M0,-7.764C-3.165,-7.764 -5.739,-5.191 -5.739,-2.027C-5.739,1.138 -3.165,3.713 0,3.713C3.164,3.713 5.738,1.138 5.738,-2.027C5.738,-5.191 3.164,-7.764 0,-7.764" style="fill:rgb(33,41,45);fill-rule:nonzero;"/>
            </g>
        </g>
        <g transform="matrix(4.166667,0,0,4.166667,0,0)">
            <g transform="matrix(1,0,0,1,69.2212,118.6013)">
                <path d="M0,7.763C-2.144,7.763 -3.882,6.025 -3.882,3.881C-3.882,1.738 -2.144,0 0,0C2.144,0 3.882,1.738 3.882,3.881C3.882,6.025 2.144,7.763 0,7.763" style="fill:rgb(251,175,0);fill-rule:nonzero;"/>
            </g>
        </g>
        <g transform="matrix(4.166667,0,0,4.166667,0,0)">
            <g transform="matrix(1,0,0,1,69.2207,124.5075)">
                <path d="M0,-4.05C1.116,-4.05 2.025,-3.141 2.025,-2.025C2.025,-0.908 1.116,0 0,0C-1.117,0 -2.024,-0.908 -2.024,-2.025C-2.024,-3.141 -1.117,-4.05 0,-4.05M0,-7.764C-3.164,-7.764 -5.738,-5.189 -5.738,-2.025C-5.738,1.139 -3.164,3.714 0,3.714C3.165,3.714 5.739,1.139 5.739,-2.025C5.739,-5.189 3.165,-7.764 0,-7.764" style="fill:rgb(33,41,45);fill-rule:nonzero;"/>
            </g>
        </g>
        <g transform="matrix(4.166667,0,0,4.166667,0,0)">
            <g transform="matrix(1,0,0,1,88.7241,137.8493)">
                <path d="M0,7.763C-2.144,7.763 -3.882,6.025 -3.882,3.881C-3.882,1.738 -2.144,0 0,0C2.144,0 3.882,1.738 3.882,3.881C3.882,6.025 2.144,7.763 0,7.763" style="fill:rgb(232,232,232);fill-rule:nonzero;"/>
            </g>
        </g>
        <g transform="matrix(4.166667,0,0,4.166667,0,0)">
            <g transform="matrix(1,0,0,1,88.7241,143.7551)">
                <path d="M0,-4.049C1.116,-4.049 2.025,-3.141 2.025,-2.024C2.025,-0.908 1.116,0 0,0C-1.117,0 -2.025,-0.908 -2.025,-2.024C-2.025,-3.141 -1.117,-4.049 0,-4.049M0,-7.763C-3.165,-7.763 -5.739,-5.189 -5.739,-2.024C-5.739,1.14 -3.165,3.714 0,3.714C3.165,3.714 5.739,1.14 5.739,-2.024C5.739,-5.189 3.165,-7.763 0,-7.763" style="fill:rgb(33,41,45);fill-rule:nonzero;"/>
            </g>
        </g>
        <g transform="matrix(4.166667,0,0,4.166667,0,0)">
            <g transform="matrix(1,0,0,1,114.5688,136.7731)">
                <path d="M0,7.763C-2.144,7.763 -3.882,6.025 -3.882,3.882C-3.882,1.738 -2.144,0 0,0C2.144,0 3.882,1.738 3.882,3.882C3.882,6.025 2.144,7.763 0,7.763" style="fill:rgb(251,175,0);fill-rule:nonzero;"/>
            </g>
        </g>
        <g transform="matrix(4.166667,0,0,4.166667,0,0)">
            <g transform="matrix(1,0,0,1,114.5684,142.6794)">
                <path d="M0,-4.049C1.117,-4.049 2.024,-3.141 2.024,-2.025C2.024,-0.908 1.117,0 0,0C-1.116,0 -2.025,-0.908 -2.025,-2.025C-2.025,-3.141 -1.116,-4.049 0,-4.049M0,-7.763C-3.165,-7.763 -5.739,-5.189 -5.739,-2.025C-5.739,1.139 -3.165,3.714 0,3.714C3.164,3.714 5.738,1.139 5.738,-2.025C5.738,-5.189 3.164,-7.763 0,-7.763" style="fill:rgb(33,41,45);fill-rule:nonzero;"/>
            </g>
        </g>
        <g transform="matrix(4.166667,0,0,4.166667,0,0)">
            <g transform="matrix(1,0,0,1,133.8115,118.6013)">
                <path d="M0,7.763C-2.144,7.763 -3.882,6.025 -3.882,3.881C-3.882,1.738 -2.144,0 0,0C2.144,0 3.882,1.738 3.882,3.881C3.882,6.025 2.144,7.763 0,7.763" style="fill:rgb(232,232,232);fill-rule:nonzero;"/>
            </g>
        </g>
        <g transform="matrix(4.166667,0,0,4.166667,0,0)">
            <g transform="matrix(1,0,0,1,133.8115,124.5075)">
                <path d="M0,-4.05C1.116,-4.05 2.025,-3.141 2.025,-2.025C2.025,-0.908 1.116,0 0,0C-1.117,0 -2.024,-0.908 -2.024,-2.025C-2.024,-3.141 -1.117,-4.05 0,-4.05M0,-7.764C-3.164,-7.764 -5.738,-5.189 -5.738,-2.025C-5.738,1.139 -3.164,3.714 0,3.714C3.165,3.714 5.739,1.139 5.739,-2.025C5.739,-5.189 3.165,-7.764 0,-7.764" style="fill:rgb(33,41,45);fill-rule:nonzero;"/>
            </g>
        </g>
        <g transform="matrix(4.166667,0,0,4.166667,0,0)">
            <g transform="matrix(1,0,0,1,134.3115,91.6291)">
                <path d="M0,7.764C-2.144,7.764 -3.882,6.026 -3.882,3.882C-3.882,1.738 -2.144,0 0,0C2.144,0 3.882,1.738 3.882,3.882C3.882,6.026 2.144,7.764 0,7.764" style="fill:rgb(251,175,0);fill-rule:nonzero;"/>
            </g>
        </g>
        <g transform="matrix(4.166667,0,0,4.166667,0,0)">
            <g transform="matrix(1,0,0,1,134.312,97.5368)">
                <path d="M0,-4.051C1.116,-4.051 2.024,-3.143 2.024,-2.026C2.024,-0.908 1.116,0 0,0C-1.117,0 -2.026,-0.908 -2.026,-2.026C-2.026,-3.143 -1.117,-4.051 0,-4.051M0,-7.765C-3.165,-7.765 -5.739,-5.19 -5.739,-2.026C-5.739,1.139 -3.165,3.714 0,3.714C3.163,3.714 5.738,1.139 5.738,-2.026C5.738,-5.19 3.163,-7.765 0,-7.765" style="fill:rgb(33,41,45);fill-rule:nonzero;"/>
            </g>
        </g>
        <g transform="matrix(4.166667,0,0,4.166667,0,0)">
            <g transform="matrix(0,-1,-1,0,101.5167,93.0777)">
                <path d="M-4.851,-4.85C-7.53,-4.85 -9.701,-2.679 -9.701,0.001C-9.701,2.679 -7.53,4.851 -4.851,4.851C-2.172,4.851 0,2.679 0,0.001C0,-2.679 -2.172,-4.85 -4.851,-4.85" style="fill:rgb(232,232,232);fill-rule:nonzero;"/>
            </g>
        </g>
        <g transform="matrix(4.166667,0,0,4.166667,0,0)">
            <g transform="matrix(1,0,0,1,96.666,94.9477)">
                <path d="M0,2.981C0,3.261 0.037,3.532 0.083,3.799L9.618,3.799C9.664,3.532 9.701,3.261 9.701,2.981C9.701,1.433 8.962,0.07 7.833,-0.818L1.868,-0.818C0.739,0.07 0,1.433 0,2.981" style="fill:rgb(185,185,185);fill-rule:nonzero;"/>
            </g>
        </g>
        <g transform="matrix(4.166667,0,0,4.166667,0,0)">
            <g transform="matrix(1,0,0,1,101.5166,100.9226)">
                <path d="M0,-5.988C1.65,-5.988 2.993,-4.645 2.993,-2.994C2.993,-1.343 1.65,0 0,0C-1.65,0 -2.994,-1.343 -2.994,-2.994C-2.994,-4.645 -1.65,-5.988 0,-5.988M0,-9.702C-3.699,-9.702 -6.708,-6.693 -6.708,-2.994C-6.708,0.705 -3.699,3.714 0,3.714C3.697,3.714 6.707,0.705 6.707,-2.994C6.707,-6.693 3.697,-9.702 0,-9.702" style="fill:rgb(33,41,45);fill-rule:nonzero;"/>
            </g>
        </g>
        <g transform="matrix(4.166667,0,0,4.166667,0,0)">
            <g transform="matrix(1,0,0,1,113.4565,96.0721)">
                <path d="M0,-4.617L-23.88,-4.617C-24.513,-4.617 -25.025,-4.105 -25.025,-3.472L-25.025,-1.144C-25.025,-0.512 -24.513,0 -23.88,0L0,0C0.632,0 1.145,-0.512 1.145,-1.144L1.145,-3.472C1.145,-4.105 0.632,-4.617 0,-4.617" style="fill:rgb(239,121,0);fill-rule:nonzero;"/>
            </g>
        </g>
        <g transform="matrix(4.166667,0,0,4.166667,0,0)">
            <g transform="matrix(1,0,0,1,0,-312.473)">
                <path d="M112.744,406.688L90.288,406.688L90.288,405.785L112.744,405.785L112.744,406.688ZM113.458,402.071L89.576,402.071C87.921,402.071 86.574,403.418 86.574,405.073L86.574,407.4C86.574,409.055 87.921,410.402 89.576,410.402L113.458,410.402C115.112,410.402 116.458,409.055 116.458,407.4L116.458,405.073C116.458,403.418 115.112,402.071 113.458,402.071" style="fill:rgb(33,41,45);fill-rule:nonzero;"/>
            </g>
        </g>
        <g transform="matrix(4.166667,0,0,4.166667,0,0)">
            <g transform="matrix(1,0,0,1,101.5161,91.4547)">
                <path d="M0,-20.465C-6.234,-20.465 -11.289,-15.411 -11.289,-9.176L-11.289,0L11.289,0L11.289,-9.176C11.289,-15.411 6.235,-20.465 0,-20.465" style="fill:rgb(251,175,0);fill-rule:nonzero;"/>
            </g>
        </g>
        <g transform="matrix(4.166667,0,0,4.166667,0,0)">
            <g transform="matrix(1,0,0,1,107.0488,91.4553)">
                <path d="M0,-19.011C0.92,-17.377 1.448,-15.493 1.448,-13.485L1.448,-9.316C1.448,-6.55 -0.793,-4.309 -3.559,-4.309L-16.822,-4.309L-16.822,0L5.756,0L5.756,-9.177C5.756,-13.4 3.434,-17.075 0,-19.011" style="fill:rgb(239,121,0);fill-rule:nonzero;"/>
            </g>
        </g>
        <g transform="matrix(4.166667,0,0,4.166667,0,0)">
            <g transform="matrix(1,0,0,1,101.5166,89.5977)">
                <path d="M0,-16.751C5.201,-16.751 9.431,-12.521 9.431,-7.32L9.431,0L-9.432,0L-9.432,-7.32C-9.432,-12.521 -5.201,-16.751 0,-16.751M0,-20.465C-7.249,-20.465 -13.146,-14.568 -13.146,-7.32L-13.146,3.714L13.145,3.714L13.145,-7.32C13.145,-14.568 7.248,-20.465 0,-20.465" style="fill:rgb(33,41,45);fill-rule:nonzero;"/>
            </g>
        </g>
        <g transform="matrix(4.166667,0,0,4.166667,0,0)">
            <g transform="matrix(1,0,0,1,98.0317,69.2271)">
                <path d="M0,-0.001C0,-0.001 13.117,8.895 15.736,8.895C18.355,8.895 20.478,6.771 20.478,4.153C20.478,2.363 19.486,0.807 18.023,-0.001C19.486,-0.808 20.478,-2.365 20.478,-4.154C20.478,-6.773 18.355,-8.896 15.736,-8.896C13.117,-8.896 0,-0.001 0,-0.001" style="fill:rgb(249,47,0);fill-rule:nonzero;"/>
            </g>
        </g>
        <g transform="matrix(4.166667,0,0,4.166667,0,0)">
            <g transform="matrix(1,0,0,1,98.1704,78.1218)">
                <path d="M0,-8.989C-0.089,-8.929 -0.139,-8.896 -0.139,-8.896C-0.139,-8.896 12.978,0 15.597,0C18.216,0 20.339,-2.123 20.339,-4.742C20.339,-6.531 19.348,-8.088 17.884,-8.896C17.935,-8.924 17.98,-8.959 18.03,-8.989L0,-8.989Z" style="fill:rgb(153,25,0);fill-rule:nonzero;"/>
            </g>
        </g>
        <g transform="matrix(4.166667,0,0,4.166667,0,0)">
            <g transform="matrix(1,0,0,1,105.001,69.2271)">
                <path d="M0,-0.001C0,-0.001 -13.117,8.895 -15.736,8.895C-18.355,8.895 -20.478,6.771 -20.478,4.153C-20.478,2.363 -19.486,0.807 -18.023,-0.001C-19.486,-0.808 -20.478,-2.365 -20.478,-4.154C-20.478,-6.773 -18.355,-8.896 -15.736,-8.896C-13.117,-8.896 0,-0.001 0,-0.001" style="fill:rgb(249,47,0);fill-rule:nonzero;"/>
            </g>
        </g>
        <g transform="matrix(4.166667,0,0,4.166667,0,0)">
            <g transform="matrix(1,0,0,1,86.978,78.0291)">
                <path d="M0,-8.803C-1.463,-7.995 -2.455,-6.439 -2.455,-4.649C-2.455,-2.031 -0.332,0.093 2.287,0.093C4.906,0.093 18.023,-8.803 18.023,-8.803C18.023,-8.803 17.973,-8.836 17.885,-8.896L-0.146,-8.896C-0.096,-8.866 -0.051,-8.831 0,-8.803" style="fill:rgb(153,25,0);fill-rule:nonzero;"/>
            </g>
        </g>
        <g transform="matrix(4.166667,0,0,4.166667,0,0)">
            <g transform="matrix(1,0,0,1,101.5161,69.1374)">
                <path d="M0,0.178C-0.047,0.148 -0.091,0.119 -0.138,0.088C-0.091,0.057 -0.047,0.03 0,-0.001C0.046,0.029 0.091,0.058 0.138,0.088C0.091,0.119 0.046,0.148 0,0.178M18.851,-4.064C18.851,-6.454 17.572,-8.548 15.664,-9.704C14.489,-10.416 12.976,-9.589 12.899,-8.218L12.897,-8.181C12.86,-7.521 13.17,-6.875 13.736,-6.533C14.79,-5.9 15.407,-4.614 15.022,-3.238C14.81,-2.479 14.24,-1.867 13.55,-1.487L12.257,-0.774C11.579,-0.399 11.579,0.576 12.257,0.95L13.507,1.64C14.338,2.098 14.979,2.893 15.109,3.833C15.354,5.605 13.976,7.127 12.26,7.127C11.488,7.079 8.175,5.345 3.42,2.371C3.804,2.114 4.176,1.863 4.527,1.625L6.792,0.089L4.527,-1.449C4.178,-1.686 3.807,-1.936 3.424,-2.192C6.296,-3.984 8.669,-5.343 10.249,-6.136C10.831,-6.429 11.214,-7.018 11.235,-7.67L11.237,-7.709C11.282,-9.088 9.853,-10.035 8.609,-9.438C6.111,-8.238 2.926,-6.314 0.001,-4.439C-4.745,-7.485 -10.191,-10.663 -12.25,-10.663C-13.455,-10.663 -14.583,-10.338 -15.556,-9.771C-16.512,-9.214 -16.591,-7.855 -15.717,-7.174L-15.688,-7.152C-14.998,-6.614 -14.078,-6.457 -13.259,-6.766C-12.947,-6.884 -12.609,-6.948 -12.256,-6.949C-11.497,-6.897 -8.137,-5.135 -3.422,-2.192C-3.801,-1.938 -4.18,-1.684 -4.527,-1.448L-6.792,0.089L-4.527,1.625C-4.176,1.863 -3.804,2.114 -3.42,2.371C-8.175,5.344 -11.486,7.078 -12.25,7.127C-13.977,7.127 -15.353,5.603 -15.107,3.83C-14.976,2.89 -14.334,2.095 -13.503,1.637L-12.257,0.95C-11.579,0.576 -11.579,-0.399 -12.257,-0.774L-13.642,-1.538C-14.447,-1.982 -14.987,-2.779 -15.109,-3.675C-15.151,-3.981 -15.316,-4.254 -15.532,-4.475C-15.708,-4.656 -15.931,-4.883 -16.177,-5.128C-17.14,-6.087 -18.844,-5.453 -18.85,-4.094L-18.85,-4.064C-18.85,-2.54 -18.324,-1.077 -17.377,0.089C-18.324,1.256 -18.85,2.718 -18.85,4.241C-18.85,7.881 -15.89,10.841 -12.25,10.841C-10.193,10.841 -4.747,7.662 0,4.615C4.748,7.662 10.193,10.841 12.251,10.841C15.891,10.841 18.851,7.881 18.851,4.241C18.851,2.718 18.325,1.256 17.379,0.089C18.325,-1.078 18.851,-2.54 18.851,-4.064" style="fill:rgb(33,41,45);fill-rule:nonzero;"/>
            </g>
        </g>
        <g transform="matrix(4.166667,0,0,4.166667,0,0)">
            <g transform="matrix(1,0,0,1,101.5166,63.5068)">
                <path d="M0,11.439C-3.159,11.439 -5.72,8.878 -5.72,5.719C-5.72,2.561 -3.159,0 0,0C3.159,0 5.719,2.561 5.719,5.719C5.719,8.878 3.159,11.439 0,11.439" style="fill:rgb(232,232,232);fill-rule:nonzero;"/>
            </g>
        </g>
        <g transform="matrix(4.166667,0,0,4.166667,0,0)">
            <g transform="matrix(1,0,0,1,101.5161,71.2037)">
                <path d="M0,-0.214C-2.46,-0.214 -4.54,-1.776 -5.347,-3.956C-5.576,-3.337 -5.719,-2.676 -5.719,-1.978C-5.719,1.181 -3.158,3.742 0,3.742C3.159,3.742 5.72,1.181 5.72,-1.978C5.72,-2.676 5.576,-3.337 5.347,-3.956C4.54,-1.776 2.46,-0.214 0,-0.214" style="fill:rgb(185,185,185);fill-rule:nonzero;"/>
            </g>
        </g>
        <g transform="matrix(4.166667,0,0,4.166667,0,0)">
            <g transform="matrix(1,0,0,1,101.5166,73.0887)">
                <path d="M0,-7.724C2.13,-7.724 3.863,-5.992 3.863,-3.863C3.863,-1.733 2.13,-0.001 0,-0.001C-2.13,-0.001 -3.863,-1.733 -3.863,-3.863C-3.863,-5.992 -2.13,-7.724 0,-7.724M0,-11.438C-4.177,-11.438 -7.577,-8.04 -7.577,-3.863C-7.577,0.315 -4.177,3.714 0,3.714C4.177,3.714 7.577,0.315 7.577,-3.863C7.577,-8.04 4.177,-11.438 0,-11.438" style="fill:rgb(33,41,45);fill-rule:nonzero;"/>
            </g>
        </g>
    </g>
</svg>
