<?xml version="1.0" encoding="UTF-8" standalone="no"?>
<!DOCTYPE svg PUBLIC "-//W3C//DTD SVG 1.1//EN" "http://www.w3.org/Graphics/SVG/1.1/DTD/svg11.dtd">
<svg width="100%" height="100%" viewBox="0 0 287 342" version="1.1" xmlns="http://www.w3.org/2000/svg" xmlns:xlink="http://www.w3.org/1999/xlink" xml:space="preserve" xmlns:serif="http://www.serif.com/" style="fill-rule:evenodd;clip-rule:evenodd;stroke-linejoin:round;stroke-miterlimit:2;">
    <g transform="matrix(1,0,0,1,-907.675,-280.202313)">
        <g transform="matrix(4.166667,0,0,4.166667,0,0)">
            <g transform="matrix(1,0,0,1,279.7422,147.4393)">
                <path d="M0,-16.409L-55.144,-16.409C-57.85,-16.409 -60.043,-14.216 -60.043,-11.51L-60.043,-4.9C-60.043,-2.194 -57.85,0 -55.144,0L0,0C2.706,0 4.899,-2.194 4.899,-4.9L4.899,-11.51C4.899,-14.216 2.706,-16.409 0,-16.409" style="fill:white;fill-rule:nonzero;"/>
            </g>
        </g>
        <g transform="matrix(4.166667,0,0,4.166667,0,0)">
            <g transform="matrix(1,0,0,1,279.8574,147.4385)">
                <path d="M0,-16.397C0.001,-16.357 0.012,-16.321 0.012,-16.282L0.012,-9.672C0.012,-6.966 -2.183,-4.772 -4.888,-4.772L-60.032,-4.772C-60.071,-4.772 -60.107,-4.783 -60.146,-4.784C-60.084,-2.133 -57.925,0 -55.259,0L-0.115,0C2.591,0 4.784,-2.193 4.784,-4.899L4.784,-11.509C4.784,-14.175 2.651,-16.334 0,-16.397" style="fill:rgb(185,185,185);fill-rule:nonzero;"/>
            </g>
        </g>
        <g transform="matrix(4.166667,0,0,4.166667,0,0)">
            <g transform="matrix(1,0,0,1,264.959,138.7749)">
                <path d="M0,8.249C-0.141,7.413 -0.884,6.808 -1.731,6.808L-40.361,6.808C-42.041,6.808 -43.403,5.446 -43.403,3.766L-43.403,-0.258C-43.403,-1.065 -43.951,-1.783 -44.737,-1.968C-44.806,-1.984 -44.875,-2.001 -44.945,-2.017C-46.053,-2.272 -47.117,-1.446 -47.117,-0.309L-47.117,3.764C-47.117,7.496 -44.091,10.521 -40.359,10.521L-1.694,10.521C-0.602,10.521 0.211,9.536 0.034,8.457C0.023,8.388 0.012,8.318 0,8.249" style="fill:rgb(33,41,45);fill-rule:nonzero;"/>
            </g>
        </g>
        <g transform="matrix(4.166667,0,0,4.166667,0,0)">
            <g transform="matrix(1,0,0,1,279.7422,149.2963)">
                <path d="M0,-20.123L-55.145,-20.123C-57.583,-20.123 -59.722,-18.824 -60.909,-16.882C-61.528,-15.87 -60.96,-14.528 -59.802,-14.273C-59.731,-14.257 -59.66,-14.242 -59.589,-14.226C-58.831,-14.056 -58.096,-14.41 -57.665,-15.056C-57.121,-15.871 -56.197,-16.409 -55.145,-16.409L0,-16.409C1.681,-16.409 3.043,-15.046 3.043,-13.366L3.043,-6.758C3.043,-5.077 1.681,-3.714 -0.001,-3.714L-11.269,-3.714C-12.33,-3.714 -13.162,-2.776 -13.004,-1.727C-12.993,-1.658 -12.982,-1.589 -12.973,-1.519C-12.845,-0.651 -12.118,0 -11.24,0L0,0C3.731,0 6.757,-3.025 6.757,-6.757L6.757,-13.366C6.757,-17.098 3.731,-20.123 0,-20.123" style="fill:rgb(33,41,45);fill-rule:nonzero;"/>
            </g>
        </g>
        <g transform="matrix(4.166667,0,0,4.166667,0,0)">
            <g transform="matrix(1,0,0,1,252.1709,131.0305)">
                <path d="M0,-45.135C-13.751,-45.135 -24.897,-33.989 -24.897,-20.238L-24.897,0L24.896,0L24.896,-20.238C24.896,-33.989 13.75,-45.135 0,-45.135" style="fill:rgb(249,47,0);fill-rule:nonzero;"/>
            </g>
        </g>
        <g transform="matrix(4.166667,0,0,4.166667,0,0)">
            <g transform="matrix(1,0,0,1,262.1934,131.03)">
                <path d="M0,-43.028C3.312,-38.8 5.289,-33.478 5.289,-27.692L5.289,-21.569C5.289,-13.774 -1.031,-7.454 -8.826,-7.454L-34.92,-7.454L-34.92,0L14.874,0L14.874,-20.237C14.874,-30.421 8.758,-39.171 0,-43.028" style="fill:rgb(153,25,0);fill-rule:nonzero;"/>
            </g>
        </g>
        <g transform="matrix(4.166667,0,0,4.166667,0,0)">
            <g transform="matrix(1,0,0,1,252.5703,120.357)">
                <path d="M0,-36.315C-5.848,-36.401 -11.278,-34.6 -15.723,-31.483C-16.652,-30.832 -16.76,-29.483 -15.958,-28.679L-15.925,-28.647C-15.302,-28.023 -14.315,-27.921 -13.593,-28.429C-9.411,-31.365 -4.221,-32.955 1.354,-32.539C13.458,-31.633 22.641,-21.187 22.641,-9.048L22.641,-1.802C22.641,-0.758 23.51,0.086 24.553,0.034C24.565,0.034 24.577,0.033 24.59,0.032C25.575,-0.016 26.354,-0.817 26.354,-1.804L26.354,-8.902C26.354,-23.634 14.729,-36.099 0,-36.315" style="fill:rgb(33,41,45);fill-rule:nonzero;"/>
            </g>
        </g>
        <g transform="matrix(4.166667,0,0,4.166667,0,0)">
            <g transform="matrix(1,0,0,1,276.9736,102.6872)">
                <path d="M0,19.389C-0.013,19.389 -0.024,19.39 -0.037,19.391C-1.007,19.441 -1.763,20.256 -1.763,21.227L-1.763,26.486L-47.843,26.486L-47.843,8.105C-47.843,2.078 -45.503,-3.401 -41.698,-7.508C-41.033,-8.227 -41.063,-9.338 -41.754,-10.031C-41.767,-10.044 -41.779,-10.056 -41.792,-10.069C-42.531,-10.811 -43.741,-10.794 -44.452,-10.024C-48.858,-5.254 -51.557,1.115 -51.557,8.105L-51.557,30.2L1.951,30.2L1.951,21.225C1.951,20.165 1.059,19.335 0,19.389" style="fill:rgb(33,41,45);fill-rule:nonzero;"/>
            </g>
        </g>
        <g transform="matrix(4.166667,0,0,4.166667,0,0)">
            <g transform="matrix(0,-1,-1,0,252.1704,69.1054)">
                <path d="M-9.586,-9.586C-14.88,-9.586 -19.171,-5.294 -19.171,-0.001C-19.171,5.293 -14.88,9.586 -9.586,9.586C-4.292,9.586 -0.001,5.293 -0.001,-0.001C-0.001,-5.294 -4.292,-9.586 -9.586,-9.586" style="fill:white;fill-rule:nonzero;"/>
            </g>
        </g>
        <g transform="matrix(4.166667,0,0,4.166667,0,0)">
            <g transform="matrix(1,0,0,1,252.1709,81.8259)">
                <path d="M0,0.179C-4.195,0.179 -7.75,-2.519 -9.051,-6.271C-9.392,-5.287 -9.586,-4.235 -9.586,-3.135C-9.586,2.159 -5.294,6.45 0,6.45C5.293,6.45 9.585,2.159 9.585,-3.135C9.585,-4.235 9.391,-5.287 9.05,-6.271C7.749,-2.519 4.193,0.179 0,0.179" style="fill:rgb(185,185,185);fill-rule:nonzero;"/>
            </g>
        </g>
        <g transform="matrix(4.166667,0,0,4.166667,0,0)">
            <g transform="matrix(1,0,0,1,262.209,84.4918)">
                <path d="M0,-11.277C-0.526,-12.236 -1.784,-12.56 -2.667,-11.914C-2.705,-11.886 -2.742,-11.859 -2.779,-11.831C-3.493,-11.299 -3.699,-10.304 -3.269,-9.525C-2.458,-8.059 -2.11,-6.303 -2.424,-4.455C-2.952,-1.346 -5.425,1.191 -8.521,1.783C-13.951,2.822 -18.648,-1.865 -17.627,-7.293C-17.049,-10.369 -14.552,-12.838 -11.472,-13.399C-9.607,-13.739 -7.839,-13.399 -6.36,-12.59C-5.697,-12.228 -4.892,-12.265 -4.302,-12.738C-4.292,-12.746 -4.282,-12.755 -4.272,-12.762C-3.251,-13.579 -3.366,-15.17 -4.509,-15.806C-6.707,-17.032 -9.347,-17.555 -12.133,-17.055C-16.807,-16.216 -20.551,-12.42 -21.322,-7.734C-22.561,-0.207 -16.398,6.278 -8.959,5.592C-3.743,5.112 0.579,0.994 1.293,-4.194C1.648,-6.776 1.131,-9.217 0,-11.277" style="fill:rgb(33,41,45);fill-rule:nonzero;"/>
            </g>
        </g>
    </g>
</svg>
