<?xml version="1.0" encoding="UTF-8" standalone="no"?>
<!DOCTYPE svg PUBLIC "-//W3C//DTD SVG 1.1//EN" "http://www.w3.org/Graphics/SVG/1.1/DTD/svg11.dtd">
<svg width="100%" height="100%" viewBox="0 0 411 382" version="1.1" xmlns="http://www.w3.org/2000/svg" xmlns:xlink="http://www.w3.org/1999/xlink" xml:space="preserve" xmlns:serif="http://www.serif.com/" style="fill-rule:evenodd;clip-rule:evenodd;stroke-linejoin:round;stroke-miterlimit:2;">
    <g transform="matrix(1,0,0,1,-845.517004,-850.575949)">
        <g transform="matrix(4.166667,0,0,4.166667,0,0)">
            <g transform="matrix(1,0,0,1,239.2666,278.154)">
                <path d="M0,-21.739C6.003,-15.736 6.003,-6.004 0,-0.001C-1.117,1.116 -1.117,2.928 0,4.045L10.881,14.926C11.998,16.043 13.81,16.043 14.927,14.926L25.808,4.045C26.925,2.928 26.925,1.116 25.808,-0.001C19.805,-6.004 19.805,-15.736 25.808,-21.739C26.925,-22.856 26.925,-24.667 25.808,-25.784L14.927,-36.666C13.81,-37.782 11.998,-37.782 10.881,-36.666L0,-25.784C-1.117,-24.667 -1.117,-22.856 0,-21.739" style="fill:rgb(156,167,36);fill-rule:nonzero;"/>
            </g>
        </g>
        <g transform="matrix(4.166667,0,0,4.166667,0,0)">
            <g transform="matrix(1,0,0,1,265.0742,282.1981)">
                <path d="M0,-29.828L-10.881,-40.71C-11.375,-41.204 -12.006,-41.467 -12.652,-41.523L-12.652,11.695C-12.006,11.639 -11.375,11.376 -10.881,10.882L0,-0C1.117,-1.116 1.117,-2.928 0,-4.045C-6.003,-10.048 -6.003,-19.78 0,-25.783C1.117,-26.9 1.117,-28.711 0,-29.828" style="fill:rgb(104,109,10);fill-rule:nonzero;"/>
            </g>
        </g>
        <g transform="matrix(4.166667,0,0,4.166667,0,0)">
            <g transform="matrix(1,0,0,1,240.5796,245.6807)">
                <path d="M0,35.205C-0.19,35.016 -0.294,34.764 -0.294,34.495C-0.294,34.224 -0.192,33.978 0,33.786C3.254,30.531 5.046,26.204 5.046,21.603C5.046,17.002 3.254,12.676 0,9.422C-0.192,9.229 -0.294,8.983 -0.294,8.711C-0.294,8.444 -0.189,8.192 0,8.002L10.88,-2.879C11.07,-3.069 11.323,-3.173 11.59,-3.173L11.591,-3.173C11.86,-3.173 12.112,-3.069 12.301,-2.88L23.181,8.001C23.372,8.192 23.476,8.444 23.476,8.711C23.476,8.979 23.372,9.232 23.182,9.422C20.689,11.915 19.069,15.045 18.449,18.448C18.24,19.597 19.092,20.661 20.26,20.657C20.273,20.656 20.285,20.656 20.297,20.656C21.188,20.653 21.933,20.012 22.093,19.136C22.57,16.537 23.803,14.053 25.808,12.047C26.843,11.011 27.338,9.581 27.152,8.097C27.015,7.011 26.452,6.02 25.677,5.246L14.926,-5.506C13.089,-7.342 10.098,-7.343 8.255,-5.506L-2.475,5.225C-3.282,6.031 -3.863,7.068 -3.981,8.202C-4.125,9.587 -3.678,10.916 -2.754,11.914C-0.972,13.84 0.479,16.083 1.021,18.65C2.007,23.324 0.614,27.921 -2.626,31.16C-3.659,32.193 -4.154,33.621 -3.97,35.105C-3.834,36.193 -3.271,37.186 -2.496,37.962L1.366,41.823C2.09,42.548 3.266,42.54 3.981,41.807L4.007,41.78C4.709,41.059 4.703,39.908 3.991,39.196L0,35.205Z" style="fill:rgb(33,41,45);fill-rule:nonzero;"/>
            </g>
        </g>
        <g transform="matrix(4.166667,0,0,4.166667,0,0)">
            <g transform="matrix(1,0,0,1,262.6426,294.3644)">
                <path d="M0,-24.798C-0.15,-25.692 -0.908,-26.353 -1.814,-26.35L-1.856,-26.35C-2.966,-26.345 -3.85,-25.359 -3.673,-24.263C-3.101,-20.73 -1.456,-17.474 1.118,-14.898C1.312,-14.705 1.413,-14.46 1.413,-14.189C1.413,-13.92 1.309,-13.668 1.119,-13.479L-9.764,-2.597C-10.153,-2.206 -10.792,-2.206 -11.182,-2.597L-14.285,-5.699C-15.01,-6.425 -16.187,-6.417 -16.903,-5.684L-16.928,-5.658C-17.63,-4.938 -17.623,-3.786 -16.912,-3.074L-13.94,-0.103C-13.164,0.673 -12.172,1.234 -11.083,1.37C-9.598,1.555 -8.169,1.06 -7.137,0.029L3.614,-10.722C4.389,-11.496 4.952,-12.486 5.089,-13.573C5.275,-15.059 4.78,-16.489 3.745,-17.524C1.692,-19.576 0.45,-22.132 0,-24.798" style="fill:rgb(33,41,45);fill-rule:nonzero;"/>
            </g>
        </g>
        <g transform="matrix(4.166667,0,0,4.166667,0,0)">
            <g transform="matrix(1,0,0,1,252.4824,259.8308)">
                <path d="M0,-20.261C-1.164,-20.45 -2.169,-19.557 -2.169,-18.429L-2.169,-1.677C-2.169,-0.637 -1.308,0.189 -0.269,0.16C-0.256,0.16 -0.244,0.16 -0.231,0.159C0.76,0.132 1.545,-0.687 1.545,-1.678L1.545,-18.33C1.545,-19.255 0.913,-20.113 0,-20.261" style="fill:rgb(33,41,45);fill-rule:nonzero;"/>
            </g>
        </g>
        <g transform="matrix(4.166667,0,0,4.166667,0,0)">
            <g transform="matrix(1,0,0,1,252.1523,278.9519)">
                <path d="M0,-17.281C-0.012,-17.281 -0.024,-17.281 -0.037,-17.28C-1.038,-17.254 -1.839,-16.444 -1.839,-15.443L-1.839,-2.093C-1.839,-1.169 -1.207,-0.311 -0.294,-0.163C0.869,0.027 1.875,-0.867 1.875,-1.995L1.875,-15.443C1.875,-16.472 1.029,-17.308 0,-17.281" style="fill:rgb(33,41,45);fill-rule:nonzero;"/>
            </g>
        </g>
        <g transform="matrix(4.166667,0,0,4.166667,0,0)">
            <g transform="matrix(1,0,0,1,273.1504,208.1169)">
                <path d="M0,33.22C2.197,25.02 10.626,20.154 18.826,22.351L18.826,22.35C20.353,22.76 21.921,21.854 22.33,20.328L26.312,5.464C26.722,3.938 25.815,2.369 24.29,1.961L9.426,-2.022C7.899,-2.431 6.331,-1.526 5.923,-0L5.922,-0C3.726,8.2 -4.703,13.067 -12.903,10.869C-14.43,10.461 -15.998,11.366 -16.407,12.892L-20.39,27.756C-20.799,29.282 -19.894,30.851 -18.367,31.26L-3.503,35.242C-1.977,35.651 -0.408,34.746 0,33.22" style="fill:rgb(156,167,36);fill-rule:nonzero;"/>
            </g>
        </g>
        <g transform="matrix(4.166667,0,0,4.166667,0,0)">
            <g transform="matrix(1,0,0,1,273.1797,213.7889)">
                <path d="M0,27.548C2.196,19.348 10.625,14.482 18.825,16.679L18.825,16.678C20.352,17.088 21.92,16.182 22.329,14.656L26.312,-0.208C26.721,-1.734 27.515,-2.022 25.988,-2.431C25.988,-2.431 -21.59,24.887 -20.063,25.296L-3.504,29.57C-1.978,29.979 -0.409,29.074 0,27.548" style="fill:rgb(104,109,10);fill-rule:nonzero;"/>
            </g>
        </g>
        <g transform="matrix(4.166667,0,0,4.166667,0,0)">
            <g transform="matrix(1,0,0,1,297.9199,217.0577)">
                <path d="M0,-8.775L-14.864,-12.758C-17.376,-13.428 -19.969,-11.931 -20.642,-9.42C-21.378,-6.668 -22.935,-4.282 -25.094,-2.509C-25.755,-1.966 -25.963,-1.046 -25.593,-0.274L-25.576,-0.24C-25.057,0.843 -23.666,1.12 -22.737,0.358C-19.98,-1.902 -17.994,-4.948 -17.054,-8.459C-16.984,-8.718 -16.818,-8.934 -16.582,-9.071C-16.353,-9.206 -16.087,-9.242 -15.824,-9.169L-0.963,-5.189C-0.427,-5.044 -0.106,-4.492 -0.251,-3.958L-1.887,2.147C-2.154,3.148 -1.545,4.179 -0.536,4.417C-0.524,4.42 -0.513,4.423 -0.5,4.426C0.468,4.653 1.443,4.068 1.701,3.107L3.337,-2.997C4.009,-5.507 2.513,-8.099 0,-8.775" style="fill:rgb(33,41,45);fill-rule:nonzero;"/>
            </g>
        </g>
        <g transform="matrix(4.166667,0,0,4.166667,0,0)">
            <g transform="matrix(1,0,0,1,296.8828,238.8131)">
                <path d="M0,-15.734C-0.013,-15.737 -0.024,-15.74 -0.037,-15.743C-1.004,-15.974 -1.979,-15.396 -2.235,-14.435L-3.196,-10.851C-3.267,-10.588 -3.435,-10.37 -3.67,-10.235C-3.898,-10.104 -4.165,-10.07 -4.425,-10.14C-8.873,-11.332 -13.514,-10.72 -17.499,-8.418C-21.482,-6.12 -24.334,-2.405 -25.525,2.043C-25.596,2.306 -25.758,2.517 -25.991,2.652C-26.229,2.789 -26.492,2.823 -26.755,2.751L-41.62,-1.231C-41.882,-1.301 -42.092,-1.462 -42.228,-1.698C-42.364,-1.934 -42.399,-2.197 -42.329,-2.458L-38.347,-17.324C-38.277,-17.582 -38.111,-17.798 -37.874,-17.934C-37.722,-18.023 -37.555,-18.068 -37.379,-18.068C-37.291,-18.068 -37.204,-18.057 -37.116,-18.033C-33.699,-17.118 -30.166,-17.282 -26.9,-18.452C-25.883,-18.817 -25.437,-20.015 -25.913,-20.985L-25.93,-21.019C-26.343,-21.861 -27.321,-22.236 -28.206,-21.923C-30.749,-21.026 -33.498,-20.907 -36.162,-21.623C-37.817,-22.059 -39.555,-21.594 -40.783,-20.324C-41.379,-19.708 -41.764,-18.915 -41.985,-18.087L-45.868,-3.596C-46.152,-2.538 -46.144,-1.4 -45.718,-0.391C-45.137,0.986 -43.993,1.977 -42.58,2.358L-27.722,6.337C-27.32,6.447 -26.905,6.502 -26.487,6.502C-25.667,6.502 -24.854,6.284 -24.136,5.869C-23.08,5.259 -22.314,4.286 -21.971,3.12C-21.423,1.262 -20.696,-0.56 -19.433,-2.029C-15.761,-6.296 -10.408,-7.898 -5.388,-6.551C-3.982,-6.175 -2.499,-6.456 -1.304,-7.356C-0.427,-8.017 0.153,-9.001 0.437,-10.062L1.353,-13.475C1.62,-14.476 1.008,-15.494 0,-15.734" style="fill:rgb(33,41,45);fill-rule:nonzero;"/>
            </g>
        </g>
        <g transform="matrix(4.166667,0,0,4.166667,0,0)">
            <g transform="matrix(1,0,0,1,279.0967,238.2779)">
                <path d="M0,-14.898C-0.391,-15.983 -1.66,-16.46 -2.658,-15.883L-26.243,-2.266C-27.045,-1.804 -27.471,-0.828 -27.143,0.037C-26.725,1.138 -25.449,1.562 -24.474,0.998L-0.809,-12.665C-0.044,-13.106 0.31,-14.032 0.013,-14.862C0.008,-14.874 0.004,-14.886 0,-14.898" style="fill:rgb(33,41,45);fill-rule:nonzero;"/>
            </g>
        </g>
        <g transform="matrix(4.166667,0,0,4.166667,0,0)">
            <g transform="matrix(1,0,0,1,285.9189,222.6271)">
                <path d="M0,-3.923C-0.585,-4.639 -1.644,-4.758 -2.444,-4.296L-4.78,-2.946C-5.565,-2.493 -5.893,-1.54 -5.572,-0.692C-5.567,-0.68 -5.563,-0.669 -5.559,-0.656C-5.161,0.398 -3.905,0.835 -2.93,0.271L-0.502,-1.13C0.475,-1.694 0.745,-3.01 0,-3.923" style="fill:rgb(33,41,45);fill-rule:nonzero;"/>
            </g>
        </g>
        <g transform="matrix(4.166667,0,0,4.166667,0,0)">
            <g transform="matrix(1,0,0,1,231.1904,208.1169)">
                <path d="M0,33.22C-2.197,25.02 -10.626,20.154 -18.826,22.351L-18.826,22.35C-20.352,22.76 -21.92,21.854 -22.329,20.328L-26.312,5.464C-26.721,3.938 -25.815,2.369 -24.29,1.961L-9.425,-2.022C-7.899,-2.431 -6.331,-1.526 -5.922,-0C-3.725,8.2 4.704,13.067 12.904,10.869C14.43,10.461 15.999,11.366 16.407,12.892L20.39,27.756C20.799,29.282 19.894,30.851 18.367,31.26L3.503,35.242C1.978,35.651 0.409,34.746 0,33.22" style="fill:rgb(156,167,36);fill-rule:nonzero;"/>
            </g>
        </g>
        <g transform="matrix(4.166667,0,0,4.166667,0,0)">
            <g transform="matrix(1,0,0,1,231.1904,213.7889)">
                <path d="M0,27.548C-2.197,19.348 -10.626,14.482 -18.826,16.679L-18.826,16.678C-20.352,17.088 -21.92,16.182 -22.329,14.656L-26.312,-0.208C-26.721,-1.734 -27.515,-2.022 -25.989,-2.431C-25.989,-2.431 21.589,24.887 20.062,25.296L3.503,29.57C1.978,29.979 0.409,29.074 0,27.548" style="fill:rgb(104,109,10);fill-rule:nonzero;"/>
            </g>
        </g>
        <g transform="matrix(4.166667,0,0,4.166667,0,0)">
            <g transform="matrix(1,0,0,1,222.8643,207.4718)">
                <path d="M0,24.495C0.82,23.52 0.376,22.025 -0.825,21.599C-4.072,20.448 -7.584,20.292 -10.99,21.204C-11.245,21.275 -11.502,21.24 -11.743,21.1C-11.975,20.967 -12.14,20.751 -12.209,20.491L-16.192,5.629C-16.335,5.095 -16.016,4.542 -15.482,4.399L-10.199,2.984C-9.211,2.719 -8.634,1.698 -8.917,0.715L-8.935,0.653C-9.21,-0.302 -10.199,-0.862 -11.16,-0.605L-16.446,0.812C-18.956,1.487 -20.452,4.078 -19.779,6.591L-15.796,21.452C-15.472,22.669 -14.691,23.687 -13.601,24.317C-12.517,24.944 -11.249,25.113 -10.019,24.79C-7.339,24.07 -4.568,24.188 -2.009,25.102C-1.298,25.357 -0.512,25.102 -0.024,24.524C-0.017,24.515 -0.008,24.505 0,24.495" style="fill:rgb(33,41,45);fill-rule:nonzero;"/>
            </g>
        </g>
        <g transform="matrix(4.166667,0,0,4.166667,0,0)">
            <g transform="matrix(1,0,0,1,253.373,213.5566)">
                <path d="M0,21.836L-3.959,7.057C-4.178,6.241 -4.576,5.469 -5.177,4.875C-6.425,3.643 -8.13,3.206 -9.76,3.635C-14.789,4.989 -20.153,3.383 -23.819,-0.893C-25.076,-2.36 -25.799,-4.176 -26.342,-6.029C-27.06,-8.474 -29.615,-9.923 -32.089,-9.256L-36.555,-8.06C-37.522,-7.8 -38.09,-6.798 -37.814,-5.835L-37.778,-5.708C-37.511,-4.777 -36.528,-4.221 -35.592,-4.472L-31.123,-5.669C-30.87,-5.737 -30.6,-5.703 -30.369,-5.57C-30.135,-5.436 -29.969,-5.219 -29.898,-4.959C-28.708,-0.515 -25.857,3.2 -21.871,5.503C-17.882,7.804 -13.241,8.415 -8.794,7.223C-8.536,7.153 -8.273,7.186 -8.036,7.325C-7.801,7.46 -7.639,7.67 -7.569,7.934L-3.586,22.799C-3.516,23.061 -3.55,23.324 -3.687,23.559C-3.823,23.794 -4.032,23.956 -4.296,24.026L-19.161,28.009C-19.419,28.078 -19.688,28.044 -19.922,27.909C-20.157,27.773 -20.319,27.563 -20.39,27.299L-20.39,27.3C-21.331,23.785 -23.32,20.738 -26.079,18.478C-26.859,17.839 -28.02,17.989 -28.646,18.779C-28.656,18.793 -28.666,18.805 -28.676,18.818C-29.308,19.614 -29.159,20.743 -28.377,21.391C-26.245,23.158 -24.708,25.53 -23.977,28.263C-23.648,29.481 -22.868,30.497 -21.778,31.126C-21.06,31.54 -20.247,31.759 -19.426,31.759C-19.013,31.759 -18.599,31.704 -18.199,31.596L-3.333,27.614C-2.118,27.288 -1.102,26.506 -0.47,25.416C0.16,24.323 0.328,23.051 0,21.836" style="fill:rgb(33,41,45);fill-rule:nonzero;"/>
            </g>
        </g>
        <g transform="matrix(4.166667,0,0,4.166667,0,0)">
            <g transform="matrix(1,0,0,1,229.6538,221.4608)">
                <path d="M0,1.945L-8.788,-3.129C-9.588,-3.592 -10.647,-3.473 -11.232,-2.757C-11.977,-1.844 -11.707,-0.528 -10.73,0.036L-1.871,5.152C-1.204,5.537 -0.372,5.463 0.221,4.971C0.233,4.961 0.246,4.951 0.258,4.94C1.24,4.128 1.104,2.582 0,1.945" style="fill:rgb(33,41,45);fill-rule:nonzero;"/>
            </g>
        </g>
        <g transform="matrix(4.166667,0,0,4.166667,0,0)">
            <g transform="matrix(1,0,0,1,251.4873,229.7267)">
                <path d="M0,6.285L-16.88,-3.461C-17.517,-3.829 -18.31,-3.783 -18.898,-3.341C-18.91,-3.331 -18.922,-3.322 -18.935,-3.313C-19.986,-2.522 -19.891,-0.913 -18.752,-0.255L-1.77,9.55C-0.794,10.114 0.481,9.689 0.899,8.588C1.228,7.723 0.801,6.747 0,6.285" style="fill:rgb(33,41,45);fill-rule:nonzero;"/>
            </g>
        </g>
        <g transform="matrix(4.166667,0,0,4.166667,0,0)">
            <g transform="matrix(0.707126,0.707088,0.707088,-0.707126,251.910506,244.984261)">
                <path d="M9.195,-3.808C2.012,-3.808 -3.809,2.014 -3.809,9.197C-3.809,16.378 2.013,22.2 9.195,22.2C16.377,22.199 22.198,16.377 22.199,9.195C22.199,2.014 16.376,-3.808 9.195,-3.808" style="fill:rgb(249,47,0);fill-rule:nonzero;"/>
            </g>
        </g>
        <g transform="matrix(4.166667,0,0,4.166667,0,0)">
            <g transform="matrix(1,0,0,1,274.1094,252.7907)">
                <path d="M0,-4.07C-5.078,1.008 -13.312,1.008 -18.39,-4.07C-20.23,-5.91 -21.395,-8.167 -21.901,-10.536C-22.792,-6.369 -21.628,-1.85 -18.39,1.388C-13.312,6.466 -5.078,6.466 0,1.388C3.238,-1.85 4.402,-6.369 3.511,-10.536C3.005,-8.167 1.841,-5.91 0,-4.07" style="fill:rgb(153,25,0);fill-rule:nonzero;"/>
            </g>
        </g>
        <g transform="matrix(4.166667,0,0,4.166667,0,0)">
            <g transform="matrix(1,0,0,1,279.6953,242.9404)">
                <path d="M0,3.565C0.107,2.496 -0.677,1.542 -1.751,1.495C-1.763,1.495 -1.775,1.494 -1.788,1.494C-2.746,1.453 -3.595,2.161 -3.687,3.115C-3.707,3.336 -3.735,3.556 -3.77,3.776C-4.3,7.145 -6.297,10.046 -9.323,11.765C-13.773,14.294 -19.545,13.365 -22.994,9.583C-27.542,4.595 -26.647,-3.107 -21.343,-6.969C-18.936,-8.722 -15.989,-9.432 -13.048,-8.969C-10.105,-8.505 -7.521,-6.925 -5.77,-4.518C-5.079,-3.57 -4.558,-2.537 -4.202,-1.455C-3.964,-0.729 -3.298,-0.219 -2.533,-0.207L-2.483,-0.207C-1.203,-0.185 -0.264,-1.409 -0.667,-2.625C-1.535,-5.244 -3.148,-7.641 -5.447,-9.551C-6.481,-10.409 -7.646,-11.111 -8.888,-11.624C-15.13,-14.205 -21.968,-12.536 -26.316,-7.361C-27.198,-6.311 -27.918,-5.123 -28.442,-3.855C-31.024,2.397 -29.355,9.234 -24.187,13.576C-23.103,14.487 -21.868,15.223 -20.554,15.753C-15.551,17.77 -10.186,17.078 -6.036,14.057C-2.827,11.721 -0.719,8.274 -0.102,4.354C-0.06,4.091 -0.026,3.828 0,3.565" style="fill:rgb(33,41,45);fill-rule:nonzero;"/>
            </g>
        </g>
        <g transform="matrix(4.166667,0,0,4.166667,0,0)">
            <g transform="matrix(0.707126,-0.707088,-0.707088,-0.707126,252.430794,244.984261)">
                <path d="M-9.195,-3.808C-16.376,-3.808 -22.199,2.014 -22.199,9.195C-22.198,16.377 -16.377,22.199 -9.195,22.2C-2.013,22.2 3.809,16.378 3.809,9.197C3.809,2.014 -2.012,-3.808 -9.195,-3.808" style="fill:rgb(249,47,0);fill-rule:nonzero;"/>
            </g>
        </g>
        <g transform="matrix(4.166667,0,0,4.166667,0,0)">
            <g transform="matrix(1,0,0,1,248.6221,252.7907)">
                <path d="M0,-4.07C-5.079,1.008 -13.312,1.008 -18.391,-4.07C-20.231,-5.91 -21.395,-8.167 -21.901,-10.536C-22.792,-6.369 -21.628,-1.85 -18.391,1.388C-13.312,6.466 -5.079,6.466 0,1.388C3.237,-1.85 4.401,-6.369 3.511,-10.536C3.004,-8.167 1.84,-5.91 0,-4.07" style="fill:rgb(153,25,0);fill-rule:nonzero;"/>
            </g>
        </g>
        <g transform="matrix(4.166667,0,0,4.166667,0,0)">
            <g transform="matrix(1,0,0,1,227.1587,236.6608)">
                <path d="M0,16.638C0.604,17.527 1.818,17.754 2.671,17.101C2.681,17.093 2.691,17.085 2.701,17.078C3.461,16.493 3.658,15.407 3.115,14.616C2.99,14.434 2.87,14.247 2.754,14.055C0.998,11.132 0.667,7.626 1.882,4.365C3.67,-0.43 8.692,-3.424 13.764,-2.739C20.454,-1.836 24.713,4.643 23.126,11.011C22.405,13.9 20.603,16.335 18.051,17.868C15.498,19.403 12.501,19.851 9.613,19.13C8.475,18.846 7.412,18.39 6.444,17.788C5.795,17.385 4.958,17.422 4.365,17.904C4.352,17.913 4.339,17.924 4.326,17.935C3.33,18.741 3.396,20.282 4.486,20.955C6.833,22.405 9.608,23.207 12.598,23.196C13.941,23.19 15.285,22.98 16.566,22.576C23.009,20.546 27.179,14.877 27.191,8.117C27.193,6.746 26.982,5.373 26.569,4.065C24.535,-2.386 18.865,-6.557 12.115,-6.567C10.698,-6.569 9.28,-6.341 7.932,-5.903C2.801,-4.237 -0.868,-0.262 -2.109,4.719C-3.069,8.571 -2.473,12.566 -0.429,15.968C-0.292,16.197 -0.148,16.419 0,16.638" style="fill:rgb(33,41,45);fill-rule:nonzero;"/>
            </g>
        </g>
        <g transform="matrix(4.166667,0,0,4.166667,0,0)">
            <g transform="matrix(1,0,0,1,252.1709,214.3856)">
                <path d="M0,26.008C-7.182,26.008 -13.004,20.186 -13.004,13.004C-13.004,5.822 -7.182,0 0,0C7.182,0 13.004,5.822 13.004,13.004C13.004,20.186 7.182,26.008 0,26.008" style="fill:rgb(249,47,0);fill-rule:nonzero;"/>
            </g>
        </g>
        <g transform="matrix(4.166667,0,0,4.166667,0,0)">
            <g transform="matrix(1,0,0,1,252.1709,230.3176)">
                <path d="M0,4.219C-6.174,4.219 -11.331,-0.087 -12.661,-5.857C-12.878,-4.914 -13.004,-3.936 -13.004,-2.928C-13.004,4.254 -7.182,10.076 0,10.076C7.182,10.076 13.004,4.254 13.004,-2.928C13.004,-3.936 12.878,-4.914 12.66,-5.857C11.33,-0.087 6.173,4.219 0,4.219" style="fill:rgb(153,25,0);fill-rule:nonzero;"/>
            </g>
        </g>
        <g transform="matrix(4.166667,0,0,4.166667,0,0)">
            <g transform="matrix(1,0,0,1,252.6943,240.7172)">
                <path d="M0,-26.203C-0.001,-26.191 -0.002,-26.179 -0.002,-26.166C-0.043,-25.234 0.623,-24.441 1.54,-24.269C7.137,-23.217 11.274,-17.981 10.539,-11.937C9.926,-6.899 5.816,-2.827 0.773,-2.254C-5.951,-1.491 -11.67,-6.754 -11.67,-13.328C-11.67,-18.586 -8.011,-23.004 -3.105,-24.172C-2.301,-24.364 -1.699,-25.042 -1.672,-25.869C-1.672,-25.881 -1.671,-25.894 -1.671,-25.906C-1.63,-27.128 -2.743,-28.056 -3.933,-27.776C-10.766,-26.167 -15.796,-19.841 -15.357,-12.429C-14.915,-4.948 -8.729,1.161 -1.243,1.516C7.277,1.92 14.337,-4.895 14.337,-13.328C14.337,-20.581 9.108,-26.622 2.225,-27.914C1.112,-28.123 0.051,-27.334 0,-26.203" style="fill:rgb(33,41,45);fill-rule:nonzero;"/>
            </g>
        </g>
    </g>
</svg>
