<?xml version="1.0" encoding="UTF-8" standalone="no"?>
<!DOCTYPE svg PUBLIC "-//W3C//DTD SVG 1.1//EN" "http://www.w3.org/Graphics/SVG/1.1/DTD/svg11.dtd">
<svg width="100%" height="100%" viewBox="0 0 258 444" version="1.1" xmlns="http://www.w3.org/2000/svg" xmlns:xlink="http://www.w3.org/1999/xlink" xml:space="preserve" xmlns:serif="http://www.serif.com/" style="fill-rule:evenodd;clip-rule:evenodd;stroke-linejoin:round;stroke-miterlimit:2;">
    <g transform="matrix(1,0,0,1,-1549.93,-1396.291905)">
        <g transform="matrix(4.166667,0,0,4.166667,0,0)">
            <g transform="matrix(1,0,0,1,396.6543,439.669)">
                <path d="M0,-13.503L0,-1.87C0,-0.838 2.763,0 6.171,0C9.579,0 12.342,-0.838 12.342,-1.87L12.342,-13.503L0,-13.503Z" style="fill:rgb(251,175,0);fill-rule:nonzero;"/>
            </g>
        </g>
        <g transform="matrix(4.166667,0,0,4.166667,0,0)">
            <g transform="matrix(1,0,0,1,404.9844,439.669)">
                <path d="M0,-13.503L0,-5.19C0,-4.158 -2.763,-3.32 -6.171,-3.32C-6.932,-3.32 -7.657,-3.364 -8.33,-3.44L-8.33,-1.87C-8.33,-0.838 -5.567,0 -2.159,0C1.249,0 4.012,-0.838 4.012,-1.87L4.012,-13.503L0,-13.503Z" style="fill:rgb(239,121,0);fill-rule:nonzero;"/>
            </g>
        </g>
        <g transform="matrix(4.166667,0,0,4.166667,0,0)">
            <g transform="matrix(1,0,0,1,394.7969,441.5256)">
                <path d="M0,-17.216L0,-10.601C0,-9.6 0.801,-8.775 1.802,-8.755C1.813,-8.754 1.826,-8.754 1.839,-8.754C2.868,-8.734 3.714,-9.57 3.714,-10.6L3.714,-13.502L12.345,-13.502L12.352,-4.354C11.771,-4.109 10.386,-3.714 8.028,-3.714C5.725,-3.714 4.325,-4.092 3.714,-4.335L3.714,-5.245C3.714,-6.246 2.913,-7.055 1.912,-7.075L1.875,-7.075C0.846,-7.096 0,-6.276 0,-5.246L0,-3.727C0,-0.269 6.145,0 8.028,0C9.911,0 16.056,-0.269 16.056,-3.727L16.056,-17.216L0,-17.216Z" style="fill:rgb(33,41,45);fill-rule:nonzero;"/>
            </g>
        </g>
        <g transform="matrix(4.166667,0,0,4.166667,0,0)">
            <g transform="matrix(1,0,0,1,407.1455,425.351)">
                <path d="M0,-65.436C-1.909,-68.786 -6.731,-68.786 -8.641,-65.436C-16.72,-51.264 -33.306,-6.313 -33.306,-5.433C-33.306,-0.582 -20.328,3.35 -4.32,3.35C11.688,3.35 24.665,-0.582 24.665,-5.433C24.665,-6.313 8.079,-51.264 0,-65.436" style="fill:rgb(156,167,36);fill-rule:nonzero;"/>
            </g>
        </g>
        <g transform="matrix(4.166667,0,0,4.166667,0,0)">
            <g transform="matrix(1,0,0,1,407.1455,426.563)">
                <path d="M0,-66.648C-0.587,-67.678 -1.451,-68.389 -2.42,-68.786C2.439,-50.022 8.329,-10.73 8.167,-9.947C7.185,-5.196 -6.32,-3.975 -21.996,-7.219C-25.643,-7.973 -29.081,-8.905 -32.205,-9.947C-32.907,-7.976 -33.306,-6.782 -33.306,-6.645C-33.306,-1.794 -20.328,2.138 -4.32,2.138C11.688,2.138 24.665,-1.794 24.665,-6.645C24.665,-7.525 8.079,-52.476 0,-66.648" style="fill:rgb(104,109,10);fill-rule:nonzero;"/>
            </g>
        </g>
        <g transform="matrix(4.166667,0,0,4.166667,0,0)">
            <g transform="matrix(1,0,0,1,381.042,355.9987)">
                <path d="M0,43.888C0.012,43.893 0.023,43.899 0.035,43.904C1.024,44.348 2.181,43.883 2.572,42.872C7.856,29.24 14.602,12.74 18.996,4.976C19.501,4.082 20.366,3.408 21.384,3.284C22.675,3.128 23.862,3.735 24.49,4.836C26.296,8.003 28.497,12.647 30.832,17.964C31.225,18.859 32.25,19.289 33.161,18.936L33.195,18.923C34.171,18.544 34.631,17.426 34.208,16.468C31.814,11.04 29.605,6.366 27.896,3.315C26.649,1.087 24.354,-0.448 21.801,-0.454C19.31,-0.46 17.084,0.83 15.849,2.995C11.759,10.171 4.612,27.227 -0.979,41.488C-1.346,42.421 -0.915,43.477 0,43.888" style="fill:rgb(33,41,45);fill-rule:nonzero;"/>
            </g>
        </g>
        <g transform="matrix(4.166667,0,0,4.166667,0,0)">
            <g transform="matrix(1,0,0,1,414.8242,404.1515)">
                <path d="M0,23.328C-0.286,22.528 -1.088,22.043 -1.933,22.141C-4.92,22.487 -8.279,22.693 -11.999,22.693C-29.251,22.693 -38.804,18.333 -39.126,15.983C-38.795,14.911 -36.42,8.341 -33.166,-0.193C-32.806,-1.138 -33.244,-2.203 -34.167,-2.618L-34.202,-2.634C-35.188,-3.078 -36.346,-2.599 -36.733,-1.589C-40.295,7.681 -42.841,14.869 -42.841,15.766C-42.841,23.573 -24.396,26.406 -11.999,26.406C-8.763,26.406 -5.115,26.213 -1.49,25.789C-0.328,25.652 0.409,24.474 0.016,23.372C0.011,23.357 0.005,23.343 0,23.328" style="fill:rgb(33,41,45);fill-rule:nonzero;"/>
            </g>
        </g>
        <g transform="matrix(4.166667,0,0,4.166667,0,0)">
            <g transform="matrix(1,0,0,1,417.3828,427.9328)">
                <path d="M0,-50.548C-0.379,-51.437 -1.392,-51.884 -2.297,-51.545C-2.313,-51.539 -2.33,-51.533 -2.346,-51.527C-3.329,-51.156 -3.822,-50.067 -3.412,-49.099C4.002,-31.585 11.946,-9.869 12.563,-7.896C12.359,-6.352 8.268,-3.958 0.73,-2.46C-0.368,-2.241 -1.017,-1.101 -0.637,-0.047C-0.633,-0.035 -0.628,-0.024 -0.624,-0.012C-0.316,0.843 0.565,1.336 1.457,1.164C9.533,-0.393 16.284,-3.292 16.284,-8.015C16.284,-9.663 7.694,-32.531 0,-50.548" style="fill:rgb(33,41,45);fill-rule:nonzero;"/>
            </g>
        </g>
        <g transform="matrix(4.166667,0,0,4.166667,0,0)">
            <g transform="matrix(1,0,0,1,400.6025,373.6407)">
                <path d="M0,10.832C-2.991,10.832 -5.416,8.407 -5.416,5.416C-5.416,2.425 -2.991,0 0,0C2.991,0 5.416,2.425 5.416,5.416C5.416,8.407 2.991,10.832 0,10.832" style="fill:rgb(249,47,0);fill-rule:nonzero;"/>
            </g>
        </g>
        <g transform="matrix(4.166667,0,0,4.166667,0,0)">
            <g transform="matrix(1,0,0,1,400.6025,373.6407)">
                <path d="M0,10.832C-2.991,10.832 -5.416,8.407 -5.416,5.416C-5.416,2.425 -2.991,0 0,0C2.991,0 5.416,2.425 5.416,5.416C5.416,8.407 2.991,10.832 0,10.832" style="fill:rgb(249,47,0);fill-rule:nonzero;"/>
            </g>
        </g>
        <g transform="matrix(4.166667,0,0,4.166667,0,0)">
            <g transform="matrix(1,0,0,1,400.6025,380.9012)">
                <path d="M0,-0.118C-2.34,-0.118 -4.315,-1.61 -5.072,-3.689C-5.282,-3.111 -5.416,-2.495 -5.416,-1.845C-5.416,1.147 -2.991,3.571 0,3.571C2.991,3.571 5.416,1.147 5.416,-1.845C5.416,-2.495 5.282,-3.111 5.072,-3.689C4.315,-1.61 2.34,-0.118 0,-0.118" style="fill:rgb(153,25,0);fill-rule:nonzero;"/>
            </g>
        </g>
        <g transform="matrix(4.166667,0,0,4.166667,0,0)">
            <g transform="matrix(1,0,0,1,407.7041,381.0731)">
                <path d="M0,-3.579C-0.311,-4.978 -2.044,-5.512 -3.074,-4.515C-3.084,-4.506 -3.093,-4.497 -3.102,-4.488C-3.562,-4.044 -3.775,-3.397 -3.63,-2.774C-3.468,-2.075 -3.517,-1.296 -3.902,-0.473C-4.326,0.432 -5.138,1.14 -6.101,1.404C-8.74,2.13 -11.112,-0.13 -10.588,-2.747C-10.326,-4.05 -9.303,-5.129 -8.016,-5.458C-7.271,-5.648 -6.56,-5.598 -5.928,-5.372C-5.289,-5.144 -4.577,-5.33 -4.089,-5.801L-4.062,-5.827C-3.079,-6.777 -3.442,-8.441 -4.734,-8.891C-6.011,-9.335 -7.448,-9.431 -8.938,-9.061C-11.529,-8.419 -13.598,-6.302 -14.185,-3.697C-15.329,1.377 -11.126,5.852 -6.117,5.191C-3.077,4.789 -0.549,2.421 0.033,-0.59C0.234,-1.63 0.209,-2.639 0,-3.579" style="fill:rgb(33,41,45);fill-rule:nonzero;"/>
            </g>
        </g>
        <g transform="matrix(4.166667,0,0,4.166667,0,0)">
            <g transform="matrix(1,0,0,1,410.8525,393.5694)">
                <path d="M0,10.832C-2.991,10.832 -5.416,8.407 -5.416,5.416C-5.416,2.425 -2.991,0 0,0C2.991,0 5.416,2.425 5.416,5.416C5.416,8.407 2.991,10.832 0,10.832" style="fill:rgb(251,175,0);fill-rule:nonzero;"/>
            </g>
        </g>
        <g transform="matrix(4.166667,0,0,4.166667,0,0)">
            <g transform="matrix(1,0,0,1,410.8525,400.7847)">
                <path d="M0,0.019C-2.356,0.019 -4.342,-1.496 -5.086,-3.598C-5.286,-3.033 -5.416,-2.433 -5.416,-1.799C-5.416,1.192 -2.991,3.617 0,3.617C2.991,3.617 5.416,1.192 5.416,-1.799C5.416,-2.433 5.287,-3.033 5.087,-3.598C4.343,-1.496 2.357,0.019 0,0.019" style="fill:rgb(239,121,0);fill-rule:nonzero;"/>
            </g>
        </g>
        <g transform="matrix(4.166667,0,0,4.166667,0,0)">
            <g transform="matrix(1,0,0,1,417.9814,400.0305)">
                <path d="M0,-2.51C-0.578,-5.457 -3.028,-7.782 -5.997,-8.233C-9.315,-8.737 -12.296,-6.979 -13.64,-4.271C-14.162,-3.217 -13.408,-1.959 -12.234,-1.894C-12.102,-1.886 -11.969,-1.878 -11.835,-1.87C-11.2,-1.83 -10.576,-2.131 -10.28,-2.695C-9.529,-4.126 -7.831,-4.988 -6.021,-4.437C-4.952,-4.112 -4.078,-3.246 -3.745,-2.178C-2.984,0.263 -4.799,2.513 -7.129,2.513C-8.435,2.513 -9.568,1.803 -10.185,0.751C-10.482,0.24 -10.974,-0.135 -11.563,-0.175C-11.714,-0.185 -11.864,-0.195 -12.014,-0.203C-13.279,-0.28 -14.214,1.031 -13.652,2.167C-12.464,4.571 -9.986,6.227 -7.129,6.227C-2.64,6.227 0.913,2.139 0,-2.51" style="fill:rgb(33,41,45);fill-rule:nonzero;"/>
            </g>
        </g>
        <g transform="matrix(4.166667,0,0,4.166667,0,0)">
            <g transform="matrix(1,0,0,1,393.8047,408.6309)">
                <path d="M0,10.832C-2.991,10.832 -5.416,8.407 -5.416,5.416C-5.416,2.425 -2.991,0 0,0C2.99,0 5.415,2.425 5.415,5.416C5.415,8.407 2.99,10.832 0,10.832" style="fill:white;fill-rule:nonzero;"/>
            </g>
        </g>
        <g transform="matrix(4.166667,0,0,4.166667,0,0)">
            <g transform="matrix(1,0,0,1,393.8047,415.6036)">
                <path d="M0,0.746C-2.446,0.746 -4.49,-0.886 -5.162,-3.113C-5.312,-2.617 -5.416,-2.102 -5.416,-1.557C-5.416,1.434 -2.991,3.859 0,3.859C2.99,3.859 5.415,1.434 5.415,-1.557C5.415,-2.102 5.311,-2.617 5.161,-3.113C4.489,-0.886 2.446,0.746 0,0.746" style="fill:rgb(185,185,185);fill-rule:nonzero;"/>
            </g>
        </g>
        <g transform="matrix(4.166667,0,0,4.166667,0,0)">
            <g transform="matrix(1,0,0,1,400.9814,414.7675)">
                <path d="M0,-1.913C-0.499,-5.024 -3.073,-7.518 -6.198,-7.929C-10.971,-8.556 -15.01,-4.52 -14.387,0.252C-13.987,3.307 -11.602,5.846 -8.574,6.419C-7.394,6.643 -6.253,6.575 -5.208,6.277C-3.938,5.916 -3.517,4.293 -4.396,3.31C-4.404,3.3 -4.413,3.29 -4.422,3.281C-4.888,2.761 -5.6,2.533 -6.274,2.717C-6.791,2.858 -7.354,2.884 -7.942,2.753C-9.322,2.448 -10.439,1.305 -10.682,-0.088C-11.107,-2.54 -9.002,-4.647 -6.549,-4.226C-5.157,-3.986 -4.012,-2.871 -3.704,-1.492C-3.564,-0.866 -3.602,-0.269 -3.767,0.274C-3.948,0.875 -3.754,1.521 -3.333,1.987C-3.324,1.996 -3.316,2.006 -3.308,2.015C-2.344,3.084 -0.572,2.64 -0.179,1.255C0.102,0.269 0.178,-0.804 0,-1.913" style="fill:rgb(33,41,45);fill-rule:nonzero;"/>
            </g>
        </g>
        <g transform="matrix(4.166667,0,0,4.166667,0,0)">
            <g transform="matrix(1,0,0,1,414.5576,353.6156)">
                <path d="M0,-8.266L-7.179,-9.309L-10.389,-15.814C-10.938,-16.927 -12.526,-16.927 -13.076,-15.814L-16.286,-9.309L-23.465,-8.266C-24.694,-8.087 -25.185,-6.577 -24.295,-5.709L-19.101,-0.647L-20.327,6.504C-20.537,7.727 -19.252,8.661 -18.153,8.083L-11.732,4.707L-5.312,8.083C-4.212,8.661 -2.928,7.727 -3.138,6.504L-4.364,-0.647L0.831,-5.709C1.72,-6.577 1.229,-8.087 0,-8.266" style="fill:rgb(251,175,0);fill-rule:nonzero;"/>
            </g>
        </g>
        <g transform="matrix(4.166667,0,0,4.166667,0,0)">
            <g transform="matrix(1,0,0,1,410.7979,359.4882)">
                <path d="M0,-2.997C-0.431,-2.697 -1.013,-2.614 -1.552,-2.897L-5.493,-4.97C-7.045,-5.785 -8.899,-5.785 -10.452,-4.97L-14.394,-2.897C-14.933,-2.614 -15.515,-2.697 -15.945,-2.997L-16.567,0.631C-16.777,1.855 -15.492,2.788 -14.394,2.21L-7.973,-1.166L-1.552,2.21C-0.453,2.788 0.832,1.855 0.622,0.631L0,-2.997Z" style="fill:rgb(239,121,0);fill-rule:nonzero;"/>
            </g>
        </g>
        <g transform="matrix(4.166667,0,0,4.166667,0,0)">
            <g transform="matrix(1,0,0,1,417.4307,359.7515)">
                <path d="M0,-14.231C-0.474,-15.356 -1.578,-16.089 -2.785,-16.265L-8.818,-17.142C-9.24,-18.08 -10.438,-18.36 -11.231,-17.707L-11.26,-17.684C-12.07,-17.018 -12.318,-15.883 -11.861,-14.938L-11.479,-14.147C-11.357,-13.897 -11.12,-13.723 -10.846,-13.683L-3.86,-12.668L-8.916,-7.739C-9.113,-7.546 -9.203,-7.269 -9.157,-6.998L-7.964,-0.035L-14.216,-3.322C-14.459,-3.45 -14.751,-3.45 -14.994,-3.322L-21.248,-0.035L-21.144,-0.644C-20.953,-1.754 -21.804,-2.77 -22.93,-2.777L-22.968,-2.777C-23.876,-2.782 -24.655,-2.129 -24.809,-1.234L-25.002,-0.109C-25.21,1.106 -24.834,2.392 -23.89,3.183C-23.271,3.702 -22.516,3.978 -21.727,3.978C-21.187,3.978 -20.645,3.843 -20.161,3.589L-14.605,0.668L-9.206,3.506C-8.129,4.074 -6.806,4.129 -5.763,3.499C-4.557,2.771 -3.945,1.418 -4.181,0.052L-5.242,-6.134L-0.749,-10.514C0.245,-11.479 0.548,-12.932 0,-14.231" style="fill:rgb(33,41,45);fill-rule:nonzero;"/>
            </g>
        </g>
        <g transform="matrix(4.166667,0,0,4.166667,0,0)">
            <g transform="matrix(1,0,0,1,395.4639,335.2866)">
                <path d="M0,20.23L0.088,20.209C0.947,19.999 1.6,19.298 1.749,18.427L1.913,17.467C1.96,17.196 1.87,16.918 1.673,16.726L-3.384,11.797L3.604,10.782C3.878,10.742 4.113,10.571 4.235,10.324L7.361,3.989L7.696,4.667C8.286,5.863 9.911,6.057 10.767,5.035L10.793,5.004C11.258,4.449 11.346,3.67 11.025,3.021L10.449,1.854C9.91,0.762 8.872,-0.06 7.658,-0.164C6.254,-0.283 4.965,0.453 4.354,1.693L1.574,7.323L-4.455,8.199C-5.663,8.375 -6.769,9.109 -7.243,10.233C-7.791,11.532 -7.489,12.984 -6.498,13.949L-2.001,18.331C-2.224,19.503 -1.159,20.513 0,20.23" style="fill:rgb(33,41,45);fill-rule:nonzero;"/>
            </g>
        </g>
    </g>
</svg>
