<?xml version="1.0" encoding="UTF-8" standalone="no"?>
<!DOCTYPE svg PUBLIC "-//W3C//DTD SVG 1.1//EN" "http://www.w3.org/Graphics/SVG/1.1/DTD/svg11.dtd">
<svg width="100%" height="100%" viewBox="0 0 268 393" version="1.1" xmlns="http://www.w3.org/2000/svg" xmlns:xlink="http://www.w3.org/1999/xlink" xml:space="preserve" xmlns:serif="http://www.serif.com/" style="fill-rule:evenodd;clip-rule:evenodd;stroke-linejoin:round;stroke-miterlimit:2;">
    <g transform="matrix(1,0,0,1,-289.249167,-845.16847)">
        <g transform="matrix(4.166667,0,0,4.166667,0,0)">
            <g transform="matrix(1,0,0,1,107.5835,209.1519)">
                <path d="M0,2.207C-0.066,2.203 -0.131,2.199 -0.197,2.195C-1.206,2.132 -2.053,2.944 -2.053,3.955L-2.053,5.012L-10.082,5.012L-10.082,1.587C-10.082,-0.428 -8.67,-2.255 -6.677,-2.552C-4.923,-2.814 -3.355,-1.928 -2.58,-0.538C-2.273,0.01 -1.754,0.41 -1.128,0.456C-1.042,0.461 -0.958,0.468 -0.872,0.474C0.506,0.569 1.44,-0.88 0.808,-2.109C-0.553,-4.755 -3.398,-6.518 -6.621,-6.292C-10.718,-6.005 -13.795,-2.392 -13.795,1.716L-13.795,8.725L1.66,8.725L1.66,3.957C1.66,3.024 0.931,2.263 0,2.207" style="fill:rgb(33,41,45);fill-rule:nonzero;"/>
            </g>
        </g>
        <g transform="matrix(4.166667,0,0,4.166667,0,0)">
            <g transform="matrix(1,0,0,1,107.4634,227.6336)">
                <path d="M0,-13.344L-11.894,-13.344C-14.49,-13.344 -16.595,-11.24 -16.595,-8.643L-16.595,0L4.701,0L4.701,-8.643C4.701,-11.24 2.596,-13.344 0,-13.344" style="fill:rgb(239,121,0);fill-rule:nonzero;"/>
            </g>
        </g>
        <g transform="matrix(4.166667,0,0,4.166667,0,0)">
            <g transform="matrix(1,0,0,1,95.5684,225.7765)">
                <path d="M0,-9.631L11.896,-9.631C13.464,-9.631 14.74,-8.355 14.74,-6.786L14.74,-0.001L-2.843,-0.001L-2.843,-6.786C-2.843,-8.355 -1.567,-9.631 0,-9.631M11.896,-13.344L0,-13.344C-3.615,-13.344 -6.556,-10.402 -6.556,-6.786L-6.556,3.713L18.454,3.713L18.454,-6.786C18.454,-10.402 15.512,-13.344 11.896,-13.344" style="fill:rgb(33,41,45);fill-rule:nonzero;"/>
            </g>
        </g>
        <g transform="matrix(4.166667,0,0,4.166667,0,0)">
            <g transform="matrix(0,-1,-1,0,101.5171,272.7944)">
                <path d="M-11.209,-11.209C-17.399,-11.209 -22.418,-6.19 -22.418,0C-22.418,6.191 -17.399,11.209 -11.209,11.209C-5.019,11.209 0.001,6.191 0.001,0C0.001,-6.19 -5.019,-11.209 -11.209,-11.209" style="fill:white;fill-rule:nonzero;"/>
            </g>
        </g>
        <g transform="matrix(4.166667,0,0,4.166667,0,0)">
            <g transform="matrix(1,0,0,1,90.3066,281.6819)">
                <path d="M0,2.322C0,3.799 0.293,5.205 0.812,6.496L21.607,6.496C22.126,5.205 22.419,3.799 22.419,2.322C22.419,-0.102 21.642,-2.34 20.333,-4.174L2.086,-4.174C0.778,-2.34 0,-0.102 0,2.322" style="fill:rgb(185,185,185);fill-rule:nonzero;"/>
            </g>
        </g>
        <g transform="matrix(4.166667,0,0,4.166667,0,0)">
            <g transform="matrix(1,0,0,1,99.2422,295.7819)">
                <path d="M0,-24.651C-5.415,-23.732 -9.75,-19.348 -10.621,-13.925C-11.286,-9.78 -9.982,-5.922 -7.502,-3.127C-6.815,-2.352 -5.608,-2.369 -4.865,-3.089C-4.855,-3.097 -4.847,-3.106 -4.838,-3.114C-4.14,-3.789 -4.115,-4.897 -4.755,-5.627C-6.441,-7.545 -7.357,-10.153 -7.005,-12.971C-6.501,-17 -3.336,-20.325 0.667,-20.996C7.039,-22.063 12.505,-16.637 11.509,-10.276C10.907,-6.425 7.849,-3.296 4.017,-2.587C2.237,-2.257 0.532,-2.448 -0.988,-3.019C-1.638,-3.263 -2.373,-3.13 -2.881,-2.657C-2.891,-2.648 -2.9,-2.639 -2.91,-2.63C-3.926,-1.685 -3.567,-0.019 -2.268,0.467C-0.149,1.26 2.227,1.52 4.705,1.066C10.025,0.09 14.272,-4.219 15.156,-9.556C16.64,-18.506 8.955,-26.171 0,-24.651" style="fill:rgb(33,41,45);fill-rule:nonzero;"/>
            </g>
        </g>
        <g transform="matrix(4.166667,0,0,4.166667,0,0)">
            <g transform="matrix(1,0,0,1,129.1104,284.2589)">
                <path d="M0,-10.67L-55.188,-10.67C-56.649,-10.67 -57.833,-9.486 -57.833,-8.025L-57.833,-2.645C-57.833,-1.184 -56.649,0 -55.188,0L0,0C1.461,0 2.645,-1.184 2.645,-2.645L2.645,-8.025C2.645,-9.486 1.461,-10.67 0,-10.67" style="fill:rgb(251,175,0);fill-rule:nonzero;"/>
            </g>
        </g>
        <g transform="matrix(4.166667,0,0,4.166667,0,0)">
            <g transform="matrix(1,0,0,1,129.1104,284.2589)">
                <path d="M0,-10.67L-2.059,-10.67L-2.059,-6.123C-2.059,-4.662 -3.243,-3.478 -4.704,-3.478L-57.833,-3.478L-57.833,-2.645C-57.833,-1.184 -56.649,0 -55.188,0L0,0C1.461,0 2.645,-1.184 2.645,-2.645L2.645,-8.025C2.645,-9.486 1.461,-10.67 0,-10.67" style="fill:rgb(239,121,0);fill-rule:nonzero;"/>
            </g>
        </g>
        <g transform="matrix(4.166667,0,0,4.166667,0,0)">
            <g transform="matrix(1,0,0,1,118.3779,283.6113)">
                <path d="M0,-1.209L-44.455,-1.209C-44.889,-1.209 -45.244,-1.564 -45.244,-1.998C-45.244,-2.945 -46.019,-3.713 -46.966,-3.705L-47.268,-3.702C-48.197,-3.693 -48.958,-2.927 -48.958,-1.997C-48.958,0.489 -46.943,2.504 -44.457,2.504L0,2.504C1.02,2.504 1.847,1.674 1.835,0.654C1.834,0.637 1.834,0.62 1.834,0.603C1.822,-0.401 1.004,-1.209 0,-1.209" style="fill:rgb(33,41,45);fill-rule:nonzero;"/>
            </g>
        </g>
        <g transform="matrix(4.166667,0,0,4.166667,0,0)">
            <g transform="matrix(1,0,0,1,129.1118,286.1154)">
                <path d="M0,-14.383L-55.189,-14.383C-57.676,-14.383 -59.692,-12.367 -59.692,-9.881L-59.692,-9.578C-59.692,-8.636 -58.924,-7.875 -57.982,-7.884L-57.657,-7.887C-56.728,-7.895 -55.978,-8.651 -55.978,-9.581L-55.978,-9.882C-55.978,-10.317 -55.625,-10.669 -55.19,-10.669L-0.001,-10.669C0.433,-10.669 0.788,-10.315 0.788,-9.881L0.788,-4.501C0.788,-4.066 0.435,-3.713 0,-3.713L-5.388,-3.713C-6.41,-3.713 -7.234,-2.878 -7.222,-1.857C-7.222,-1.844 -7.222,-1.831 -7.221,-1.819C-7.209,-0.812 -6.394,0 -5.387,0L-0.001,0C2.485,0 4.501,-2.016 4.501,-4.502L4.501,-9.882C4.501,-12.368 2.486,-14.383 0,-14.383" style="fill:rgb(33,41,45);fill-rule:nonzero;"/>
            </g>
        </g>
        <g transform="matrix(4.166667,0,0,4.166667,0,0)">
            <g transform="matrix(1,0,0,1,101.5161,273.589)">
                <path d="M0,-47.296C-14.409,-47.296 -26.089,-35.616 -26.089,-21.207L-26.089,0L26.089,0L26.089,-21.207C26.089,-35.616 14.409,-47.296 0,-47.296" style="fill:rgb(251,175,0);fill-rule:nonzero;"/>
            </g>
        </g>
        <g transform="matrix(4.166667,0,0,4.166667,0,0)">
            <g transform="matrix(1,0,0,1,112.3594,273.5893)">
                <path d="M0,-44.935C4.41,-40.263 7.118,-33.968 7.118,-27.036L7.118,-15.563C7.118,-10.187 2.76,-5.83 -2.615,-5.83L-36.932,-5.83L-36.932,0L15.246,0L15.246,-21.207C15.246,-31.746 8.994,-40.818 0,-44.935" style="fill:rgb(239,121,0);fill-rule:nonzero;"/>
            </g>
        </g>
        <g transform="matrix(4.166667,0,0,4.166667,0,0)">
            <g transform="matrix(1,0,0,1,101.8574,261.8305)">
                <path d="M0,-37.392C-10.83,-37.521 -20.275,-31.455 -25.024,-22.527C-25.468,-21.692 -25.218,-20.653 -24.424,-20.141C-24.397,-20.124 -24.372,-20.107 -24.345,-20.09C-23.448,-19.51 -22.263,-19.823 -21.762,-20.767C-17.586,-28.639 -9.197,-33.949 0.379,-33.67C13.581,-33.285 23.892,-22.045 23.892,-8.838L23.892,-1.717C23.892,-0.697 24.723,0.129 25.743,0.123L25.78,0.122C26.79,0.116 27.605,-0.704 27.605,-1.714L27.605,-8.854C27.605,-24.254 15.399,-37.207 0,-37.392" style="fill:rgb(33,41,45);fill-rule:nonzero;"/>
            </g>
        </g>
        <g transform="matrix(4.166667,0,0,4.166667,0,0)">
            <g transform="matrix(1,0,0,1,127.6138,254.8059)">
                <path d="M0,8.824L-0.04,8.825C-1.049,8.831 -1.865,9.651 -1.865,10.661L-1.865,16.927L-50.33,16.927L-50.33,-2.424C-50.33,-4.713 -50.006,-6.927 -49.409,-9.028C-49.189,-9.798 -49.466,-10.615 -50.125,-11.071C-50.152,-11.089 -50.178,-11.108 -50.205,-11.126C-51.208,-11.816 -52.615,-11.312 -52.953,-10.142C-53.661,-7.69 -54.043,-5.101 -54.043,-2.424L-54.043,20.64L1.849,20.64L1.849,10.662C1.849,9.642 1.019,8.818 0,8.824" style="fill:rgb(33,41,45);fill-rule:nonzero;"/>
            </g>
        </g>
        <g transform="matrix(4.166667,0,0,4.166667,0,0)">
            <g transform="matrix(1,0,0,1,114.6289,215.3742)">
                <path d="M0,20.762C1.373,15.637 6.641,12.595 11.766,13.969C12.72,14.224 13.7,13.658 13.956,12.704L16.445,3.415C16.7,2.461 16.134,1.481 15.181,1.225L5.891,-1.264C4.937,-1.52 3.957,-0.954 3.701,0C2.328,5.125 -2.94,8.166 -8.065,6.793C-9.019,6.537 -9.999,7.104 -10.254,8.057L-12.744,17.347C-13,18.301 -12.434,19.281 -11.479,19.537L-2.19,22.026C-1.236,22.282 -0.256,21.716 0,20.762" style="fill:rgb(156,167,36);fill-rule:nonzero;"/>
            </g>
        </g>
        <g transform="matrix(4.166667,0,0,4.166667,0,0)">
            <g transform="matrix(1,0,0,1,114.6289,218.7622)">
                <path d="M0,17.374C1.373,12.249 6.641,9.207 11.766,10.581C12.72,10.836 13.7,10.27 13.956,9.316L16.445,0.027C16.7,-0.927 17.459,-1.265 16.506,-1.52L-12.831,15.008C-13.086,15.962 -12.434,15.893 -11.479,16.149L-2.19,18.638C-1.236,18.894 -0.256,18.328 0,17.374" style="fill:rgb(104,109,10);fill-rule:nonzero;"/>
            </g>
        </g>
        <g transform="matrix(4.166667,0,0,4.166667,0,0)">
            <g transform="matrix(1,0,0,1,132.5029,234.6199)">
                <path d="M0,-18.117C-0.487,-18.957 -1.272,-19.56 -2.212,-19.815L-11.505,-22.304C-13.412,-22.815 -15.456,-21.737 -15.941,-19.824C-17.003,-15.642 -21.298,-13.141 -25.452,-14.243C-26.394,-14.502 -27.377,-14.372 -28.226,-13.881C-29.066,-13.394 -29.669,-12.61 -29.923,-11.669L-32.414,-2.378C-32.93,-0.435 -31.772,1.566 -29.835,2.085L-20.546,4.573C-20.239,4.656 -19.921,4.698 -19.603,4.698C-18.135,4.698 -16.826,3.818 -16.256,2.501L-16.079,1.995C-14.976,-2.126 -10.717,-4.587 -6.594,-3.486C-5.436,-3.172 -4.221,-3.436 -3.271,-4.236C-2.678,-4.735 -2.291,-5.439 -2.09,-6.187L-1.78,-7.346C-1.514,-8.342 -2.133,-9.354 -3.139,-9.577C-3.151,-9.579 -3.163,-9.582 -3.175,-9.585C-4.125,-9.795 -5.069,-9.218 -5.314,-8.277L-5.628,-7.072C-11.73,-8.703 -18.03,-5.069 -19.582,0.986L-28.824,-1.418L-26.354,-10.64C-20.269,-9.054 -14.008,-12.685 -12.465,-18.716L-3.224,-16.311L-3.98,-13.404C-4.239,-12.411 -3.622,-11.399 -2.621,-11.179C-2.596,-11.173 -2.572,-11.168 -2.548,-11.162C-1.602,-10.956 -0.66,-11.529 -0.41,-12.464L0.362,-15.346C0.617,-16.285 0.489,-17.268 0,-18.117" style="fill:rgb(33,41,45);fill-rule:nonzero;"/>
            </g>
        </g>
        <g transform="matrix(4.166667,0,0,4.166667,0,0)">
            <g transform="matrix(1,0,0,1,123.0801,234.6318)">
                <path d="M0,-12.688C-0.513,-13.575 -1.647,-13.879 -2.535,-13.367L-21.296,-2.537C-22.184,-2.024 -22.488,-0.888 -21.975,-0C-21.462,0.887 -20.327,1.191 -19.44,0.679L-0.679,-10.152C0.209,-10.665 0.513,-11.8 0,-12.688" style="fill:rgb(33,41,45);fill-rule:nonzero;"/>
            </g>
        </g>
        <g transform="matrix(4.166667,0,0,4.166667,0,0)">
            <g transform="matrix(1,0,0,1,88.4038,215.3742)">
                <path d="M0,20.762C-1.373,15.637 -6.641,12.595 -11.766,13.969C-12.72,14.224 -13.7,13.658 -13.956,12.704L-16.445,3.415C-16.7,2.461 -16.134,1.481 -15.181,1.225L-5.891,-1.264C-4.937,-1.52 -3.957,-0.954 -3.701,0C-2.328,5.125 2.94,8.166 8.065,6.793C9.019,6.537 9.999,7.104 10.254,8.057L12.744,17.347C13,18.301 12.433,19.281 11.479,19.537L2.189,22.026C1.236,22.282 0.256,21.716 0,20.762" style="fill:rgb(156,167,36);fill-rule:nonzero;"/>
            </g>
        </g>
        <g transform="matrix(4.166667,0,0,4.166667,0,0)">
            <g transform="matrix(1,0,0,1,88.4038,219.0392)">
                <path d="M0,17.097C-1.373,11.972 -6.641,8.93 -11.766,10.304C-12.72,10.559 -13.7,9.993 -13.956,9.039L-16.445,-0.25C-16.7,-1.204 -17.459,-1.265 -16.506,-1.52L13.112,14.731C13.368,15.685 12.433,15.616 11.479,15.872L2.189,18.361C1.236,18.617 0.256,18.051 0,17.097" style="fill:rgb(104,109,10);fill-rule:nonzero;"/>
            </g>
        </g>
        <g transform="matrix(4.166667,0,0,4.166667,0,0)">
            <g transform="matrix(1,0,0,1,102.9414,218.9977)">
                <path d="M0,13.242L-2.462,4.056C-2.659,3.323 -3.038,2.635 -3.616,2.143C-4.549,1.351 -5.744,1.074 -6.877,1.357C-7.877,1.606 -8.904,1.783 -9.922,1.619C-13.225,1.089 -15.653,-1.15 -16.444,-4.103C-16.961,-6.031 -18.958,-7.189 -20.909,-6.682L-22.542,-6.244C-23.557,-5.972 -24.134,-4.894 -23.784,-3.904C-23.78,-3.892 -23.776,-3.881 -23.772,-3.869C-23.455,-2.968 -22.501,-2.461 -21.581,-2.715L-20.033,-3.142C-19.241,-0.189 -17.341,2.282 -14.687,3.814C-12.033,5.348 -8.946,5.755 -6.077,4.916L-3.54,14.119L-12.743,16.656C-14.085,11.654 -18.641,8.159 -23.821,8.159C-24.817,8.159 -25.815,8.291 -26.699,8.6L-29.237,-0.605L-26.716,-1.3C-25.693,-1.581 -25.124,-2.673 -25.478,-3.673C-25.482,-3.685 -25.486,-3.696 -25.49,-3.708C-25.809,-4.608 -26.766,-5.112 -27.688,-4.864L-30.199,-4.191C-32.137,-3.673 -33.294,-1.671 -32.777,0.273L-30.288,9.563C-30.035,10.501 -29.433,11.287 -28.588,11.776C-27.744,12.261 -26.764,12.39 -25.823,12.139C-21.73,11.042 -17.512,13.449 -16.361,17.511C-16.071,18.534 -15.408,19.439 -14.458,19.917C-13.637,20.33 -12.765,20.431 -11.867,20.197L-2.58,17.708C-0.639,17.189 0.519,15.186 0,13.242" style="fill:rgb(33,41,45);fill-rule:nonzero;"/>
            </g>
        </g>
        <g transform="matrix(4.166667,0,0,4.166667,0,0)">
            <g transform="matrix(1,0,0,1,101.248,224.4802)">
                <path d="M0,7.615L-18.758,-3.216C-19.646,-3.728 -20.78,-3.424 -21.293,-2.537C-21.807,-1.649 -21.502,-0.513 -20.614,0L-1.856,10.83C-0.969,11.343 0.166,11.039 0.679,10.152C1.192,9.263 0.888,8.128 0,7.615" style="fill:rgb(33,41,45);fill-rule:nonzero;"/>
            </g>
        </g>
        <g transform="matrix(4.166667,0,0,4.166667,0,0)">
            <g transform="matrix(0.707107,0.707107,0.707107,-0.707107,101.39067,235.984)">
                <path d="M4.434,-1.837C0.971,-1.837 -1.837,0.971 -1.837,4.435C-1.837,7.898 0.971,10.706 4.434,10.706C7.898,10.706 10.706,7.898 10.706,4.435C10.706,0.971 7.898,-1.837 4.434,-1.837" style="fill:rgb(249,47,0);fill-rule:nonzero;"/>
            </g>
        </g>
        <g transform="matrix(4.166667,0,0,4.166667,0,0)">
            <g transform="matrix(-0.986603,0.163142,0.163142,0.986603,108.614508,233.509912)">
                <path d="M4.995,-2.813C6.318,-1.865 7.142,-0.492 7.456,0.983C6.736,1.466 5.907,1.811 4.995,1.962C1.681,2.51 -1.449,0.348 -2.15,-2.9C-0.039,-4.32 2.806,-4.381 4.995,-2.813" style="fill:rgb(153,25,0);fill-rule:nonzero;"/>
            </g>
        </g>
        <g transform="matrix(4.166667,0,0,4.166667,0,0)">
            <g transform="matrix(1,0,0,1,113.4092,241.7308)">
                <path d="M0,-11.494C-1.536,-13.029 -3.576,-13.875 -5.747,-13.875C-7.917,-13.875 -9.958,-13.029 -11.494,-11.494C-13.03,-9.957 -13.875,-7.916 -13.875,-5.748C-13.875,-3.578 -13.03,-1.537 -11.494,-0C-9.958,1.535 -7.917,2.381 -5.747,2.381C-4.902,2.381 -4.079,2.252 -3.297,2.003C-2.126,1.631 -1.717,0.174 -2.521,-0.755C-2.598,-0.845 -2.676,-0.934 -2.753,-1.025C-3.209,-1.554 -3.923,-1.717 -4.598,-1.537C-4.966,-1.439 -5.352,-1.386 -5.746,-1.386L-5.747,-1.386C-6.942,-1.386 -8.079,-1.838 -8.868,-2.626C-9.702,-3.46 -10.162,-4.569 -10.162,-5.748C-10.162,-6.925 -9.702,-8.034 -8.868,-8.868C-8.034,-9.702 -6.926,-10.161 -5.747,-10.161C-4.568,-10.161 -3.46,-9.702 -2.626,-8.868C-1.792,-8.034 -1.333,-6.925 -1.333,-5.748C-1.333,-5.093 -1.482,-4.464 -1.756,-3.89C-2.037,-3.304 -1.903,-2.598 -1.478,-2.107L-1.271,-1.868C-0.45,-0.92 1.062,-1.144 1.601,-2.277C2.111,-3.348 2.381,-4.527 2.381,-5.748C2.381,-7.916 1.536,-9.957 0,-11.494" style="fill:rgb(33,41,45);fill-rule:nonzero;"/>
            </g>
        </g>
        <g transform="matrix(4.166667,0,0,4.166667,0,0)">
            <g transform="matrix(0.707107,-0.707107,-0.707107,-0.707107,101.64153,235.984)">
                <path d="M-4.434,-1.837C-7.898,-1.837 -10.705,0.97 -10.706,4.435C-10.706,7.898 -7.898,10.706 -4.434,10.706C-0.97,10.705 1.837,7.898 1.837,4.435C1.837,0.971 -0.971,-1.837 -4.434,-1.837" style="fill:rgb(249,47,0);fill-rule:nonzero;"/>
            </g>
        </g>
        <g transform="matrix(4.166667,0,0,4.166667,0,0)">
            <g transform="matrix(-0.569598,0.821923,0.821923,0.569598,102.043096,230.878656)">
                <path d="M4.355,-7.658C7.128,-5.667 7.805,-1.814 5.853,1.003C5.433,1.609 4.921,2.112 4.355,2.519C3.074,1.604 2.129,0.214 1.826,-1.457C1.38,-3.919 2.45,-6.291 4.355,-7.658" style="fill:rgb(153,25,0);fill-rule:nonzero;"/>
            </g>
        </g>
        <g transform="matrix(4.166667,0,0,4.166667,0,0)">
            <g transform="matrix(1,0,0,1,101.1172,241.6098)">
                <path d="M0,-11.373C-1.536,-12.908 -3.576,-13.754 -5.747,-13.754C-7.918,-13.754 -9.958,-12.908 -11.493,-11.373C-13.029,-9.837 -13.875,-7.796 -13.875,-5.627C-13.875,-3.456 -13.029,-1.415 -11.493,0.121C-10.883,0.731 -10.193,1.231 -9.446,1.611C-8.259,2.215 -6.849,1.349 -6.81,0.018C-6.809,-0.017 -6.808,-0.052 -6.807,-0.088C-6.787,-0.779 -7.164,-1.435 -7.786,-1.738C-8.181,-1.931 -8.548,-2.185 -8.868,-2.505C-9.703,-3.339 -10.162,-4.448 -10.162,-5.627C-10.162,-6.804 -9.703,-7.913 -8.868,-8.747C-8.034,-9.581 -6.926,-10.04 -5.747,-10.04C-4.568,-10.04 -3.459,-9.581 -2.625,-8.747C-1.792,-7.913 -1.333,-6.806 -1.333,-5.627C-1.333,-4.447 -1.792,-3.339 -2.625,-2.505C-3.03,-2.101 -3.51,-1.8 -4.027,-1.596C-4.658,-1.348 -5.109,-0.794 -5.128,-0.116C-5.131,-0.03 -5.133,0.056 -5.136,0.142C-5.176,1.445 -3.854,2.381 -2.648,1.887C-1.669,1.486 -0.771,0.892 0,0.121C1.536,-1.415 2.381,-3.456 2.381,-5.627C2.381,-7.797 1.536,-9.838 0,-11.373" style="fill:rgb(33,41,45);fill-rule:nonzero;"/>
            </g>
        </g>
        <g transform="matrix(4.166667,0,0,4.166667,0,0)">
            <g transform="matrix(1,0,0,1,101.5161,221.2285)">
                <path d="M0,12.542C-3.463,12.542 -6.271,9.734 -6.271,6.271C-6.271,2.807 -3.463,0 0,0C3.464,0 6.271,2.807 6.271,6.271C6.271,9.734 3.464,12.542 0,12.542" style="fill:rgb(249,47,0);fill-rule:nonzero;"/>
            </g>
        </g>
        <g transform="matrix(4.166667,0,0,4.166667,0,0)">
            <g transform="matrix(1,0,0,1,101.5161,229.437)">
                <path d="M0,0.46C-2.787,0.46 -5.146,-1.36 -5.963,-3.874C-6.161,-3.264 -6.271,-2.614 -6.271,-1.938C-6.271,1.525 -3.463,4.334 0,4.334C3.464,4.334 6.271,1.525 6.271,-1.938C6.271,-2.614 6.161,-3.264 5.963,-3.874C5.146,-1.36 2.787,0.46 0,0.46" style="fill:rgb(153,25,0);fill-rule:nonzero;"/>
            </g>
        </g>
        <g transform="matrix(4.166667,0,0,4.166667,0,0)">
            <g transform="matrix(1,0,0,1,101.5171,223.0856)">
                <path d="M0,8.828C-2.434,8.828 -4.415,6.848 -4.415,4.413C-4.415,1.979 -2.434,-0.001 0,-0.001C2.433,-0.001 4.413,1.979 4.413,4.413C4.413,6.848 2.433,8.828 0,8.828M0,-3.714C-4.482,-3.714 -8.129,-0.068 -8.129,4.413C-8.129,8.895 -4.482,12.542 0,12.542C4.481,12.542 8.126,8.895 8.126,4.413C8.126,-0.068 4.481,-3.714 0,-3.714" style="fill:rgb(33,41,45);fill-rule:nonzero;"/>
            </g>
        </g>
    </g>
</svg>
