<?xml version="1.0" encoding="UTF-8" standalone="no"?>
<!DOCTYPE svg PUBLIC "-//W3C//DTD SVG 1.1//EN" "http://www.w3.org/Graphics/SVG/1.1/DTD/svg11.dtd">
<svg width="100%" height="100%" viewBox="0 0 301 369" version="1.1" xmlns="http://www.w3.org/2000/svg" xmlns:xlink="http://www.w3.org/1999/xlink" xml:space="preserve" xmlns:serif="http://www.serif.com/" style="fill-rule:evenodd;clip-rule:evenodd;stroke-linejoin:round;stroke-miterlimit:2;">
    <g transform="matrix(1,0,0,1,-272.50625,-1433.669847)">
        <g transform="matrix(4.166667,0,0,4.166667,0,0)">
            <g transform="matrix(1,0,0,1,102.1992,358.3613)">
                <path d="M0,-14.25C-2.901,-14.509 -5.496,-13.098 -6.941,-10.871C-7.746,-9.631 -6.886,-7.99 -5.408,-7.99C-4.789,-7.99 -4.178,-8.271 -3.851,-8.797C-3.142,-9.934 -1.852,-10.667 -0.391,-10.556C1.603,-10.404 3.074,-8.604 3.074,-6.605L3.074,-3.455L-4.438,-3.455L-4.438,-5.154C-4.438,-6.18 -5.27,-7.011 -6.295,-7.011C-7.32,-7.011 -8.152,-6.18 -8.152,-5.154L-8.152,0.259L6.788,0.259L6.788,-6.541C6.788,-10.452 3.896,-13.902 0,-14.25" style="fill:rgb(33,41,45);fill-rule:nonzero;"/>
            </g>
        </g>
        <g transform="matrix(4.166667,0,0,4.166667,0,0)">
            <g transform="matrix(1,0,0,1,107.2021,367.8644)">
                <path d="M0,-12.756L-11.371,-12.756C-13.853,-12.756 -15.865,-10.744 -15.865,-8.263L-15.865,0L4.494,0L4.494,-8.263C4.494,-10.744 2.482,-12.756 0,-12.756" style="fill:rgb(251,175,0);fill-rule:nonzero;"/>
            </g>
        </g>
        <g transform="matrix(4.166667,0,0,4.166667,0,0)">
            <g transform="matrix(1,0,0,1,107.2021,367.8644)">
                <path d="M0,-12.756L-5.534,-12.756C-3.052,-12.756 -1.04,-10.744 -1.04,-8.263L-1.04,0L4.494,0L4.494,-8.263C4.494,-10.744 2.482,-12.756 0,-12.756" style="fill:rgb(239,121,0);fill-rule:nonzero;"/>
            </g>
        </g>
        <g transform="matrix(4.166667,0,0,4.166667,0,0)">
            <g transform="matrix(1,0,0,1,112.332,363.0653)">
                <path d="M0,-3.16C-0.012,-3.165 -0.025,-3.169 -0.037,-3.174C-1.223,-3.62 -2.493,-2.772 -2.493,-1.505L-2.493,2.942L-19.138,2.942L-19.138,-3.463C-19.138,-4.92 -17.958,-6.1 -16.5,-6.1L-5.13,-6.1C-4.315,-6.1 -3.586,-5.729 -3.103,-5.146C-2.741,-4.712 -2.166,-4.516 -1.601,-4.532C-1.588,-4.532 -1.575,-4.533 -1.562,-4.533C-0.115,-4.571 0.75,-6.251 -0.146,-7.389C-1.308,-8.865 -3.108,-9.815 -5.13,-9.815L-16.5,-9.815C-20.008,-9.815 -22.852,-6.972 -22.852,-3.463L-22.852,6.655L1.221,6.655L1.221,-1.46C1.221,-2.23 0.722,-2.891 0,-3.16" style="fill:rgb(33,41,45);fill-rule:nonzero;"/>
            </g>
        </g>
        <g transform="matrix(4.166667,0,0,4.166667,0,0)">
            <g transform="matrix(-1,0,0,1,101.5166,430.6996)">
                <path d="M0,-68.516C-18.92,-68.516 -34.258,-53.178 -34.258,-34.258C-34.258,-15.338 -18.92,0 0,0C18.92,0 34.258,-15.338 34.258,-34.258C34.258,-53.178 18.92,-68.516 0,-68.516" style="fill:rgb(249,47,0);fill-rule:nonzero;"/>
            </g>
        </g>
        <g transform="matrix(4.166667,0,0,4.166667,0,0)">
            <g transform="matrix(1,0,0,1,110.647,430.6988)">
                <path d="M0,-67.275C6.287,-61.064 10.187,-52.442 10.187,-42.906C10.187,-23.986 -5.151,-8.648 -24.072,-8.648C-27.235,-8.648 -30.294,-9.086 -33.202,-9.888C-27.015,-3.776 -18.515,0 -9.13,0C9.79,0 25.127,-15.337 25.127,-34.257C25.127,-50.014 14.486,-63.278 0,-67.275" style="fill:rgb(153,25,0);fill-rule:nonzero;"/>
            </g>
        </g>
        <g transform="matrix(4.166667,0,0,4.166667,0,0)">
            <g transform="matrix(1,0,0,1,121.4995,376.4598)">
                <path d="M0,47.175C-0.634,46.642 -1.532,46.606 -2.225,47.062C-7.533,50.556 -13.921,52.537 -20.775,52.372C-38.525,51.946 -52.817,36.91 -52.373,19.16C-52.115,8.841 -47.004,-0.29 -39.246,-6.046C-38.39,-6.681 -38.269,-7.908 -38.965,-8.716L-39,-8.757C-39.635,-9.491 -40.729,-9.578 -41.508,-8.998C-51.193,-1.786 -57.157,10.157 -55.941,23.381C-54.369,40.485 -40.605,54.295 -23.507,55.927C-14.851,56.753 -6.743,54.497 -0.14,50.137C0.881,49.462 0.967,47.987 0.029,47.2C0.02,47.192 0.01,47.184 0,47.175" style="fill:rgb(33,41,45);fill-rule:nonzero;"/>
            </g>
        </g>
        <g transform="matrix(4.166667,0,0,4.166667,0,0)">
            <g transform="matrix(1,0,0,1,137.3901,391.2077)">
                <path d="M0,1.013C-1.887,-15.53 -15.206,-28.809 -31.754,-30.651C-39.293,-31.49 -46.439,-29.991 -52.559,-26.79C-53.596,-26.247 -53.867,-24.876 -53.111,-23.982C-53.101,-23.969 -53.091,-23.958 -53.082,-23.946C-52.515,-23.276 -51.57,-23.108 -50.791,-23.514C-45.229,-26.415 -38.729,-27.756 -31.869,-26.924C-17.043,-25.129 -5.218,-13.107 -3.656,1.745C-2.518,12.572 -6.753,22.473 -14.016,29.121C-14.838,29.874 -14.793,31.177 -13.931,31.885C-13.918,31.896 -13.906,31.907 -13.893,31.917C-13.179,32.503 -12.147,32.448 -11.467,31.823C-3.325,24.344 1.389,13.189 0,1.013" style="fill:rgb(33,41,45);fill-rule:nonzero;"/>
            </g>
        </g>
        <g transform="matrix(4.166667,0,0,4.166667,0,0)">
            <g transform="matrix(1,0,0,1,67.2588,396.4414)">
                <path d="M0,0C0,6.574 1.885,12.694 5.096,17.911L63.42,17.911C66.631,12.694 68.516,6.574 68.516,0C68.516,-6.574 66.631,-12.694 63.42,-17.911L5.096,-17.911C1.885,-12.694 0,-6.574 0,0" style="fill:rgb(156,167,36);fill-rule:nonzero;"/>
            </g>
        </g>
        <g transform="matrix(4.166667,0,0,4.166667,0,0)">
            <g transform="matrix(1,0,0,1,135.6616,399.1238)">
                <path d="M0,-5.365C-0.028,-5.718 -0.074,-6.064 -0.113,-6.413C-0.168,-6.922 -0.228,-7.428 -0.305,-7.93C-0.377,-8.39 -0.461,-8.845 -0.552,-9.3C-0.62,-9.647 -0.694,-9.992 -0.772,-10.336C-0.9,-10.887 -1.034,-11.436 -1.188,-11.978C-1.234,-12.14 -1.286,-12.3 -1.334,-12.461C-2.203,-15.346 -3.434,-18.077 -4.983,-20.594L-16.107,-20.594C-15.28,-17.646 -14.828,-14.543 -14.828,-11.331C-14.828,-0.616 -19.75,8.947 -27.453,15.229L-4.983,15.229C-2.581,11.326 -0.922,6.919 -0.238,2.194C-0.232,2.148 -0.228,2.102 -0.221,2.056C-0.128,1.394 -0.06,0.724 -0.005,0.05C0.008,-0.122 0.022,-0.293 0.034,-0.465C0.081,-1.196 0.113,-1.932 0.113,-2.677L0.113,-2.682C0.113,-3.586 0.069,-4.479 0,-5.365" style="fill:rgb(104,109,10);fill-rule:nonzero;"/>
            </g>
        </g>
        <g transform="matrix(4.166667,0,0,4.166667,0,0)">
            <g transform="matrix(1,0,0,1,90.8535,380.3871)">
                <path d="M0,32.108L-17.443,32.108C-20.254,27.201 -21.737,21.665 -21.737,16.054C-21.737,10.444 -20.254,4.907 -17.443,0.001L25.28,0.001C26.454,0.001 27.332,-1.084 27.073,-2.229C27.07,-2.242 27.067,-2.254 27.064,-2.266C26.874,-3.11 26.136,-3.713 25.272,-3.713L-19.538,-3.713L-20.08,-2.83C-23.594,2.879 -25.452,9.409 -25.452,16.054C-25.452,22.7 -23.594,29.229 -20.082,34.936L-19.538,35.821L-0.002,35.821C0.958,35.821 1.758,35.083 1.835,34.125L1.837,34.097C1.923,33.025 1.076,32.108 0,32.108" style="fill:rgb(33,41,45);fill-rule:nonzero;"/>
            </g>
        </g>
        <g transform="matrix(4.166667,0,0,4.166667,0,0)">
            <g transform="matrix(1,0,0,1,132.2607,415.3216)">
                <path d="M0,-37.762L-0.543,-38.648L-10.657,-38.648C-11.842,-38.648 -12.729,-37.539 -12.448,-36.387C-12.445,-36.375 -12.442,-36.363 -12.439,-36.35C-12.237,-35.522 -11.5,-34.934 -10.648,-34.934L-2.638,-34.934C0.174,-30.027 1.657,-24.49 1.657,-18.88C1.657,-13.271 0.174,-7.735 -2.638,-2.826L-36.042,-2.826C-37.003,-2.826 -37.801,-2.084 -37.871,-1.126L-37.874,-1.079C-37.951,-0.017 -37.11,0.886 -36.045,0.886L-0.543,0.886L-0.001,0.004C3.513,-5.705 5.371,-12.235 5.371,-18.88C5.371,-25.526 3.513,-32.056 0,-37.762" style="fill:rgb(33,41,45);fill-rule:nonzero;"/>
            </g>
        </g>
        <g transform="matrix(4.166667,0,0,4.166667,0,0)">
            <g transform="matrix(1,0,0,1,135.4009,401.2314)">
                <path d="M0,-9.58C-0.102,-10.307 -0.189,-11.037 -0.336,-11.749L-9.27,-7.534L-21.785,-13.438L-34.43,-7.474L-46.756,-13.289L-58.976,-7.523L-67.471,-11.531C-67.622,-10.774 -67.723,-10 -67.823,-9.226C-67.943,-7.557 -68.031,-5.351 -68.083,-3.631C-68.046,-2.528 -67.963,-1.439 -67.825,-0.366L-58.976,3.808L-46.756,-1.957L-34.43,3.858L-21.785,-2.106L-9.27,3.798L0.095,-0.62C0.213,-1.594 0.277,-2.582 0.312,-3.579C0.252,-5.416 0.147,-7.827 0,-9.58" style="fill:rgb(232,232,232);fill-rule:nonzero;"/>
            </g>
        </g>
        <g transform="matrix(4.166667,0,0,4.166667,0,0)">
            <g transform="matrix(1,0,0,1,135.7134,396.8713)">
                <path d="M0,0.781C-0.06,-1.056 -0.165,-3.467 -0.312,-5.22C-0.355,-5.526 -0.396,-5.831 -0.439,-6.137C-0.492,-6.441 -0.543,-6.745 -0.604,-7.047C-0.625,-7.157 -0.651,-7.267 -0.673,-7.377L-9.582,-3.174L-15.052,-5.754C-15.395,-2.195 -16.277,1.207 -17.626,4.363L-9.582,8.158L-0.218,3.74C-0.099,2.766 -0.035,1.778 0,0.781" style="fill:rgb(185,185,185);fill-rule:nonzero;"/>
            </g>
        </g>
        <g transform="matrix(4.166667,0,0,4.166667,0,0)">
            <g transform="matrix(1,0,0,1,137.2446,401.3834)">
                <path d="M0,-9.943L-0.062,-10.405C-0.148,-11.056 -0.328,-12.115 -0.46,-12.757L-0.838,-14.588L-11.113,-9.739L-23.63,-15.643L-36.273,-9.679L-48.599,-15.494L-53.111,-13.365C-53.962,-12.964 -54.362,-11.987 -54.058,-11.095C-54.054,-11.084 -54.05,-11.072 -54.046,-11.06C-53.696,-10.028 -52.516,-9.541 -51.53,-10.005L-48.599,-11.388L-36.273,-5.573L-23.63,-11.538L-11.113,-5.633L-3.66,-9.15C-3.529,-7.429 -3.439,-5.283 -3.386,-3.797C-3.409,-3.152 -3.443,-2.56 -3.49,-2.004L-11.113,1.593L-13.583,0.428C-14.529,-0.018 -15.656,0.414 -16.062,1.378L-16.077,1.413C-16.458,2.321 -16.057,3.368 -15.167,3.787L-11.113,5.7L-0.029,0.468L0.094,-0.548C0.208,-1.496 0.284,-2.534 0.324,-3.793C0.279,-5.2 0.177,-7.862 0,-9.943" style="fill:rgb(33,41,45);fill-rule:nonzero;"/>
            </g>
        </g>
        <g transform="matrix(4.166667,0,0,4.166667,0,0)">
            <g transform="matrix(1,0,0,1,118.8271,394.6202)">
                <path d="M0,4.911L-5.212,2.452L-17.856,8.417L-30.182,2.601L-42.402,8.367L-49.521,5.008C-49.585,4.344 -49.63,3.673 -49.653,3.038C-49.616,1.805 -49.536,-0.477 -49.421,-2.17L-42.402,1.14L-37.979,-0.946C-37.162,-1.332 -36.733,-2.257 -36.992,-3.121C-36.996,-3.134 -37,-3.146 -37.003,-3.157C-37.33,-4.24 -38.534,-4.79 -39.557,-4.308L-42.402,-2.965L-52.252,-7.611L-52.718,-5.285C-52.884,-4.457 -52.991,-3.619 -53.101,-2.747C-53.246,-0.735 -53.335,1.923 -53.365,3.042C-53.325,4.23 -53.234,5.388 -53.093,6.483L-52.962,7.491L-42.402,12.473L-30.182,6.708L-17.856,12.522L-5.212,6.557L-1.583,8.27C-0.642,8.714 0.488,8.292 0.89,7.332C0.895,7.32 0.9,7.309 0.905,7.298C1.287,6.385 0.895,5.333 0,4.911" style="fill:rgb(33,41,45);fill-rule:nonzero;"/>
            </g>
        </g>
    </g>
</svg>
