<?xml version="1.0" encoding="UTF-8" standalone="no"?>
<!DOCTYPE svg PUBLIC "-//W3C//DTD SVG 1.1//EN" "http://www.w3.org/Graphics/SVG/1.1/DTD/svg11.dtd">
<svg width="100%" height="100%" viewBox="0 0 250 348" version="1.1" xmlns="http://www.w3.org/2000/svg" xmlns:xlink="http://www.w3.org/1999/xlink" xml:space="preserve" xmlns:serif="http://www.serif.com/" style="fill-rule:evenodd;clip-rule:evenodd;stroke-linejoin:round;stroke-miterlimit:2;">
    <g transform="matrix(1,0,0,1,-1553.558902,-867.604583)">
        <g transform="matrix(4.166667,0,0,4.166667,0,0)">
            <g transform="matrix(1,0,0,1,392.1279,291.4223)">
                <path d="M0,-76.997L0,-47.208C0,-44.262 -1.171,-41.437 -3.253,-39.354L-12.535,-30.073C-19.042,-23.565 -19.042,-13.015 -12.535,-6.507C-6.027,0 4.522,0 11.03,-6.507L27.921,-23.398C31.382,-26.859 33.326,-31.553 33.326,-36.448L33.326,-76.997L0,-76.997Z" style="fill:rgb(249,47,0);fill-rule:nonzero;"/>
            </g>
        </g>
        <g transform="matrix(4.166667,0,0,4.166667,0,0)">
            <g transform="matrix(1,0,0,1,420.6582,291.4233)">
                <path d="M0,-76.998L0,-40.791C0,-35.897 -1.944,-31.204 -5.405,-27.742L-22.296,-10.852C-27.815,-5.332 -36.234,-4.513 -42.637,-8.356C-42.159,-7.714 -41.647,-7.09 -41.065,-6.508C-34.558,0 -24.008,0 -17.5,-6.508L-0.609,-23.399C2.852,-26.86 4.796,-31.554 4.796,-36.449L4.796,-76.998L0,-76.998Z" style="fill:rgb(153,25,0);fill-rule:nonzero;"/>
            </g>
        </g>
        <g transform="matrix(4.166667,0,0,4.166667,0,0)">
            <g transform="matrix(1,0,0,1,409.5254,265.4278)">
                <path d="M0,13.163C-0.71,12.411 -1.9,12.393 -2.631,13.125L-7.68,18.174C-13.451,23.943 -22.844,23.945 -28.62,18.174C-31.761,15.033 -33.316,10.731 -32.887,6.239C-32.551,2.725 -30.86,-0.524 -28.364,-3.02L-21.648,-9.736C-20.908,-10.478 -20.962,-11.686 -21.758,-12.365C-21.789,-12.392 -21.819,-12.418 -21.851,-12.444C-22.562,-13.054 -23.618,-13.018 -24.281,-12.356L-30.949,-5.686C-34.23,-2.404 -36.358,1.925 -36.637,6.558C-36.958,11.928 -35.013,17.032 -31.245,20.8C-27.752,24.293 -23.102,26.217 -18.15,26.217C-13.197,26.217 -8.547,24.293 -5.054,20.8L-0.012,15.758C0.692,15.053 0.709,13.915 0.025,13.19L0,13.163Z" style="fill:rgb(33,41,45);fill-rule:nonzero;"/>
            </g>
        </g>
        <g transform="matrix(4.166667,0,0,4.166667,0,0)">
            <g transform="matrix(1,0,0,1,390.2705,278.1318)">
                <path d="M0,-65.563L0,-33.917C0,-32.012 -0.573,-30.195 -1.638,-28.662C-2.171,-27.894 -1.986,-26.827 -1.275,-26.22C-1.266,-26.212 -1.256,-26.204 -1.247,-26.196C-0.46,-25.524 0.765,-25.64 1.36,-26.484C2.887,-28.646 3.714,-31.216 3.714,-33.917L3.714,-61.849L33.326,-61.849L33.326,-23.158C33.326,-18.756 31.577,-14.534 28.465,-11.421L20.395,-3.35C19.697,-2.652 19.679,-1.527 20.354,-0.808L20.379,-0.781C21.093,-0.02 22.296,0 23.034,-0.738L31.09,-8.795C34.927,-12.63 37.04,-17.731 37.04,-23.157L37.04,-65.563L0,-65.563Z" style="fill:rgb(33,41,45);fill-rule:nonzero;"/>
            </g>
        </g>
        <g transform="matrix(4.166667,0,0,4.166667,0,0)">
            <g transform="matrix(1,0,0,1,413.3525,256.2162)">
                <path d="M0,5.444C0,9.102 1.271,12.462 3.393,15.112L6.696,11.808C10.157,8.347 12.102,3.653 12.102,-1.242L12.102,-9.668C5.178,-8.122 0,-1.946 0,5.444" style="fill:white;fill-rule:nonzero;"/>
            </g>
        </g>
        <g transform="matrix(4.166667,0,0,4.166667,0,0)">
            <g transform="matrix(1,0,0,1,420.6582,267.2438)">
                <path d="M0,-16.612C0,-11.717 -1.944,-7.024 -5.405,-3.562L-6.893,-2.076C-6.36,0.212 -5.334,2.31 -3.913,4.084L-0.609,0.781C0.256,-0.085 1.026,-1.027 1.695,-2.03C3.702,-5.04 4.796,-8.598 4.796,-12.269L4.796,-20.696C3.07,-20.311 1.455,-19.638 0,-18.731L0,-16.612Z" style="fill:rgb(185,185,185);fill-rule:nonzero;"/>
            </g>
        </g>
        <g transform="matrix(4.166667,0,0,4.166667,0,0)">
            <g transform="matrix(1,0,0,1,425.0498,273.6049)">
                <path d="M0,-28.87C-2.772,-28.251 -5.271,-26.96 -7.35,-25.198C-8.229,-24.453 -8.253,-23.11 -7.37,-22.369C-7.359,-22.361 -7.35,-22.352 -7.34,-22.344C-6.649,-21.764 -5.653,-21.781 -4.967,-22.365C-3.923,-23.249 -2.743,-23.984 -1.453,-24.525L-1.453,-18.628C-1.453,-14.227 -3.202,-10.005 -6.314,-6.894L-8.039,-5.169C-9.221,-7.22 -9.84,-9.537 -9.84,-11.945C-9.84,-14.374 -9.177,-16.698 -8.01,-18.717C-7.562,-19.494 -7.714,-20.477 -8.4,-21.053C-8.409,-21.061 -8.419,-21.069 -8.429,-21.077C-9.284,-21.795 -10.608,-21.602 -11.173,-20.637C-12.688,-18.053 -13.554,-15.073 -13.554,-11.945C-13.554,-7.967 -12.24,-4.223 -9.755,-1.117L-8.459,0.504L-3.689,-4.268C0.147,-8.103 2.261,-13.204 2.261,-18.63L2.261,-29.374L0,-28.87Z" style="fill:rgb(33,41,45);fill-rule:nonzero;"/>
            </g>
        </g>
        <g transform="matrix(4.166667,0,0,4.166667,0,0)">
            <g transform="matrix(0.592911,-0.805268,-0.805268,-0.592911,402.057497,271.466611)">
                <path d="M-11.636,-8.562C-2.927,-1.727 -1.164,10.837 -7.774,19.815C-8.903,21.348 -10.208,22.675 -11.636,23.798C-17.995,22.238 -23.105,16.993 -24.149,10.116C-25.456,1.515 -19.93,-6.541 -11.636,-8.562" style="fill:white;fill-rule:nonzero;"/>
            </g>
        </g>
        <g transform="matrix(4.166667,0,0,4.166667,0,0)">
            <g transform="matrix(1,0,0,1,400.417,289.7836)">
                <path d="M0,-11.267L-2.055,-9.212C-7.574,-3.693 -15.993,-2.873 -22.396,-6.716C-21.918,-6.075 -21.406,-5.451 -20.824,-4.869C-20.428,-4.473 -20.016,-4.103 -19.592,-3.755C-19.447,-3.636 -19.295,-3.536 -19.147,-3.422C-18.862,-3.204 -18.577,-2.984 -18.282,-2.787C-18.097,-2.663 -17.904,-2.556 -17.715,-2.441C-17.447,-2.277 -17.182,-2.111 -16.907,-1.963C-16.694,-1.849 -16.477,-1.752 -16.26,-1.649C-16.001,-1.524 -15.742,-1.396 -15.478,-1.286C-15.244,-1.188 -15.005,-1.105 -14.768,-1.018C-14.516,-0.925 -14.264,-0.831 -14.007,-0.751C-13.754,-0.673 -13.497,-0.608 -13.24,-0.541C-12.996,-0.478 -12.752,-0.414 -12.506,-0.362C-12.234,-0.305 -11.962,-0.259 -11.688,-0.216C-11.454,-0.178 -11.221,-0.142 -10.986,-0.115C-10.698,-0.08 -10.409,-0.058 -10.119,-0.039C-9.899,-0.026 -9.679,-0.013 -9.459,-0.008C-9.155,0 -8.852,-0.002 -8.548,-0.012C-8.343,-0.018 -8.138,-0.028 -7.934,-0.041C-7.616,-0.062 -7.301,-0.091 -6.985,-0.13C-6.796,-0.154 -6.608,-0.182 -6.421,-0.212C-6.092,-0.264 -5.765,-0.324 -5.439,-0.396C-5.271,-0.433 -5.103,-0.476 -4.935,-0.519C-4.595,-0.605 -4.257,-0.698 -3.923,-0.805C-3.775,-0.853 -3.629,-0.908 -3.482,-0.959C-3.135,-1.082 -2.789,-1.211 -2.448,-1.358C-2.323,-1.413 -2.201,-1.473 -2.077,-1.531C-1.722,-1.695 -1.368,-1.864 -1.022,-2.054C-0.926,-2.108 -0.831,-2.168 -0.735,-2.224C-0.37,-2.434 -0.009,-2.652 0.343,-2.892C0.403,-2.933 0.461,-2.981 0.521,-3.023C0.9,-3.29 1.275,-3.568 1.637,-3.871C1.557,-6.492 0.972,-8.982 0,-11.267" style="fill:rgb(185,185,185);fill-rule:nonzero;"/>
            </g>
        </g>
        <g transform="matrix(4.166667,0,0,4.166667,0,0)">
            <g transform="matrix(1,0,0,1,403.9111,269.9535)">
                <path d="M0,15.901C-0.116,12.166 -1.137,8.689 -2.831,5.652C-3.236,4.923 -4.085,4.564 -4.885,4.798C-4.946,4.817 -5.009,4.836 -5.072,4.854C-6.178,5.181 -6.649,6.447 -6.085,7.453C-4.802,9.741 -3.982,12.329 -3.764,15.098C-9.623,19.437 -17.799,18.855 -23.006,13.648C-27.021,9.63 -28.373,3.678 -26.527,-1.661C-25.173,-1.964 -23.795,-2.118 -22.42,-2.118C-17.235,-2.118 -12.536,-0.012 -9.142,3.404C-8.658,3.89 -7.931,4.032 -7.281,3.812C-7.231,3.796 -7.182,3.779 -7.131,3.761C-5.882,3.343 -5.52,1.767 -6.444,0.829C-10.502,-3.291 -16.143,-5.831 -22.42,-5.831C-24.436,-5.831 -26.45,-5.558 -28.411,-5.018L-29.284,-4.777L-29.454,-4.368C-32.388,2.675 -31.009,10.917 -25.604,16.301C-22.088,19.803 -17.453,21.732 -12.548,21.732C-8.234,21.732 -4.014,20.187 -0.663,17.381L0.025,16.802L0,15.901Z" style="fill:rgb(33,41,45);fill-rule:nonzero;"/>
            </g>
        </g>
        <g transform="matrix(4.166667,0,0,4.166667,0,0)">
            <g transform="matrix(1,0,0,1,427.3105,225.159)">
                <path d="M0,-15.077L-37.042,-15.077C-39.046,-15.077 -40.67,-13.453 -40.67,-11.449L-40.67,-3.628C-40.67,-1.624 -39.046,0 -37.042,0L0,0C2.004,0 3.628,-1.624 3.628,-3.628L3.628,-11.449C3.628,-13.453 2.004,-15.077 0,-15.077" style="fill:white;fill-rule:nonzero;"/>
            </g>
        </g>
        <g transform="matrix(4.166667,0,0,4.166667,0,0)">
            <g transform="matrix(1,0,0,1,427.3105,225.159)">
                <path d="M0,-15.077L-1.263,-15.077C-1.246,-14.933 -1.22,-14.792 -1.22,-14.644L-1.22,-6.824C-1.22,-4.82 -2.844,-3.195 -4.848,-3.195L-40.626,-3.195C-40.41,-1.398 -38.897,0 -37.042,0L0,0C2.004,0 3.628,-1.624 3.628,-3.628L3.628,-11.449C3.628,-13.453 2.004,-15.077 0,-15.077" style="fill:rgb(185,185,185);fill-rule:nonzero;"/>
            </g>
        </g>
        <g transform="matrix(4.166667,0,0,4.166667,0,0)">
            <g transform="matrix(1,0,0,1,394.2812,211.9382)">
                <path d="M0,11.364L-4.013,11.364C-4.991,11.364 -5.784,10.571 -5.784,9.593L-5.784,1.772C-5.784,0.794 -4.991,0.001 -4.013,0.001L26.697,0.001C27.719,0.001 28.542,-0.835 28.526,-1.856L28.525,-1.902C28.511,-2.907 27.692,-3.713 26.687,-3.713L-4.013,-3.713C-7.042,-3.713 -9.498,-1.257 -9.498,1.772L-9.498,9.592C-9.498,12.621 -7.042,15.077 -4.012,15.077L0.001,15.077C1.036,15.077 1.862,14.224 1.835,13.191C1.835,13.178 1.834,13.166 1.834,13.154C1.809,12.157 0.997,11.364 0,11.364" style="fill:rgb(33,41,45);fill-rule:nonzero;"/>
            </g>
        </g>
        <g transform="matrix(4.166667,0,0,4.166667,0,0)">
            <g transform="matrix(1,0,0,1,427.3105,227.0161)">
                <path d="M0,-18.791L-0.999,-18.791C-2.028,-18.791 -2.855,-17.949 -2.837,-16.92L-2.836,-16.883C-2.818,-15.88 -2.001,-15.077 -0.999,-15.077L0,-15.077C0.979,-15.077 1.771,-14.284 1.771,-13.306L1.771,-5.486C1.771,-4.507 0.978,-3.714 -0.001,-3.714L-27.674,-3.714C-28.708,-3.714 -29.544,-2.861 -29.516,-1.827C-29.515,-1.814 -29.515,-1.802 -29.515,-1.79C-29.486,-0.794 -28.669,0 -27.673,0L0,0C3.029,0 5.485,-2.456 5.485,-5.485L5.485,-13.306C5.485,-16.335 3.029,-18.791 0,-18.791" style="fill:rgb(33,41,45);fill-rule:nonzero;"/>
            </g>
        </g>
        <g transform="matrix(4.166667,0,0,4.166667,0,0)">
            <g transform="matrix(1,0,0,1,421.0996,237.7731)">
                <path d="M0,-3.84L-6.282,-8.11L-12.63,-3.796L-18.817,-8.002L-24.951,-3.833L-28.974,-6.566L-28.974,1.5L-24.951,4.234L-18.817,0.065L-12.63,4.27L-6.282,-0.044L0,4.226L4.354,1.267L4.354,-6.799L0,-3.84Z" style="fill:white;fill-rule:nonzero;"/>
            </g>
        </g>
        <g transform="matrix(4.166667,0,0,4.166667,0,0)">
            <g transform="matrix(1,0,0,1,420.6582,239.3408)">
                <path d="M0,-5.708L0,2.358L0.441,2.659L4.796,-0.3L4.796,-8.367L0.441,-5.408L0,-5.708Z" style="fill:rgb(185,185,185);fill-rule:nonzero;"/>
            </g>
        </g>
        <g transform="matrix(4.166667,0,0,4.166667,0,0)">
            <g transform="matrix(1,0,0,1,398.6904,231.5998)">
                <path d="M0,8.471C-0.348,7.66 -1.342,7.359 -2.078,7.847C-2.362,8.035 -2.732,8.034 -3.015,7.842L-4.708,6.691L-4.708,3.114L-3.007,4.27C-2.727,4.461 -2.358,4.46 -2.078,4.27L3.127,0.732C3.407,0.541 3.775,0.541 4.056,0.732L9.314,4.306C9.595,4.497 9.963,4.497 10.243,4.306L15.653,0.63C15.936,0.438 16.307,0.435 16.591,0.623L16.592,0.623C17.536,1.247 18.81,0.639 18.91,-0.489C18.911,-0.503 18.912,-0.517 18.913,-0.531C19.007,-1.55 18.545,-2.538 17.699,-3.113L16.83,-3.704C16.405,-3.992 15.849,-3.992 15.424,-3.704L10.482,-0.345C10.058,-0.057 9.501,-0.057 9.076,-0.345L4.294,-3.595C3.87,-3.884 3.313,-3.884 2.889,-3.595L-1.839,-0.382C-2.264,-0.093 -2.82,-0.093 -3.245,-0.382L-8.422,-3.9L-8.422,8.657L-3.245,12.175C-2.826,12.459 -2.277,12.463 -1.854,12.185L-0.898,11.555C0.104,10.895 0.49,9.61 0.016,8.506L0,8.471Z" style="fill:rgb(33,41,45);fill-rule:nonzero;"/>
            </g>
        </g>
        <g transform="matrix(4.166667,0,0,4.166667,0,0)">
            <g transform="matrix(1,0,0,1,421.8027,240.3549)">
                <path d="M0,-9.144C-0.424,-8.856 -0.981,-8.856 -1.405,-9.144C-2.376,-9.859 -3.758,-9.175 -3.763,-7.97L-3.763,-7.924C-3.771,-6.892 -3.273,-5.924 -2.42,-5.344L-1.167,-4.492C-0.887,-4.302 -0.519,-4.302 -0.238,-4.492L1.794,-5.873L1.794,-2.297L-0.238,-0.915C-0.519,-0.725 -0.887,-0.725 -1.167,-0.915L-6.521,-4.555C-6.802,-4.746 -7.17,-4.746 -7.45,-4.555L-12.869,-0.872C-13.149,-0.681 -13.518,-0.681 -13.798,-0.872L-19.057,-4.446C-19.337,-4.637 -19.705,-4.637 -19.985,-4.446L-21.229,-3.6C-22.112,-3 -22.613,-1.979 -22.548,-0.914L-22.546,-0.877C-22.475,0.277 -21.153,0.893 -20.224,0.206C-19.8,-0.082 -19.242,-0.082 -18.818,0.206L-14.036,3.456C-13.611,3.745 -13.055,3.745 -12.63,3.456L-7.688,0.097C-7.265,-0.191 -6.707,-0.191 -6.282,0.097L-1.405,3.412C-0.981,3.701 -0.424,3.701 0,3.412L5.508,-0.331L5.508,-12.889L0,-9.144Z" style="fill:rgb(33,41,45);fill-rule:nonzero;"/>
            </g>
        </g>
    </g>
</svg>
