<?xml version="1.0" encoding="UTF-8" standalone="no"?>
<!DOCTYPE svg PUBLIC "-//W3C//DTD SVG 1.1//EN" "http://www.w3.org/Graphics/SVG/1.1/DTD/svg11.dtd">
<svg width="100%" height="100%" viewBox="0 0 369 407" version="1.1" xmlns="http://www.w3.org/2000/svg" xmlns:xlink="http://www.w3.org/1999/xlink" xml:space="preserve" xmlns:serif="http://www.serif.com/" style="fill-rule:evenodd;clip-rule:evenodd;stroke-linejoin:round;stroke-miterlimit:2;">
    <g transform="matrix(1,0,0,1,-1494.164167,-248.058333)">
        <g transform="matrix(4.166667,0,0,4.166667,0,0)">
            <g transform="matrix(1,0,0,1,410.04,90.112)">
                <path d="M0,-24.53C-0.233,-25.846 -1.756,-26.47 -2.886,-25.756C-2.946,-25.718 -3.006,-25.68 -3.066,-25.641C-3.681,-25.25 -4.025,-24.523 -3.898,-23.805C-3.817,-23.35 -3.831,-22.878 -3.951,-22.413L-7.215,-9.773L-10.439,-22.266C-10.67,-23.161 -10.604,-24.133 -10.139,-24.932C-9.518,-25.999 -8.418,-26.625 -7.215,-26.625C-6.89,-26.625 -6.574,-26.574 -6.274,-26.482C-5.687,-26.301 -5.061,-26.34 -4.549,-26.677C-4.479,-26.723 -4.411,-26.768 -4.342,-26.813C-3.026,-27.671 -3.319,-29.657 -4.804,-30.174C-5.566,-30.439 -6.379,-30.578 -7.215,-30.578C-9.496,-30.578 -11.606,-29.544 -13.004,-27.74C-14.401,-25.937 -14.876,-23.634 -14.306,-21.424L-7.215,6.048L-0.123,-21.424C0.145,-22.46 0.181,-23.515 0,-24.53" style="fill:rgb(33,41,45);fill-rule:nonzero;"/>
            </g>
        </g>
        <g transform="matrix(4.166667,0,0,4.166667,0,0)">
            <g transform="matrix(1,0,0,1,410.9336,88.1128)">
                <path d="M0,0.334L12.64,3.597C13.656,3.857 14.716,3.64 15.546,2.998C16.376,2.355 16.852,1.384 16.852,0.334C16.852,-0.716 16.376,-1.687 15.546,-2.331C14.717,-2.972 13.658,-3.192 12.64,-2.928L0,0.334ZM13.499,7.661C12.885,7.661 12.265,7.584 11.652,7.426L-15.821,0.334L11.652,-6.757C13.859,-7.327 16.163,-6.853 17.967,-5.456C19.771,-4.059 20.806,-1.948 20.806,0.334C20.806,2.616 19.771,4.726 17.968,6.124C16.664,7.134 15.1,7.661 13.499,7.661" style="fill:rgb(33,41,45);fill-rule:nonzero;"/>
            </g>
        </g>
        <g transform="matrix(4.166667,0,0,4.166667,0,0)">
            <g transform="matrix(1,0,0,1,381.2266,91.4827)">
                <path d="M0,-6.407C-0.736,-6.407 -1.455,-6.164 -2.055,-5.7C-2.885,-5.057 -3.36,-4.086 -3.36,-3.036C-3.36,-1.986 -2.885,-1.015 -2.055,-0.372C-1.225,0.271 -0.166,0.49 0.852,0.227L13.491,-3.036L0.851,-6.298C0.568,-6.371 0.283,-6.407 0,-6.407M-0.008,4.291C-1.609,4.291 -3.173,3.764 -4.477,2.754C-6.28,1.356 -7.314,-0.754 -7.314,-3.036C-7.314,-5.318 -6.28,-7.428 -4.476,-8.825C-2.671,-10.222 -0.369,-10.698 1.84,-10.127L29.312,-3.036L1.84,4.056C1.227,4.214 0.606,4.291 -0.008,4.291" style="fill:rgb(33,41,45);fill-rule:nonzero;"/>
            </g>
        </g>
        <g transform="matrix(4.166667,0,0,4.166667,0,0)">
            <g transform="matrix(1,0,0,1,423.2705,91.432)">
                <path d="M0,-23.43C-1.72,-25.149 -4.131,-25.899 -6.547,-25.447C-8.7,-25.044 -10.521,-23.608 -11.635,-21.721L-25.899,2.469L-3.869,-10.522C-2.9,-11.093 -2.605,-12.367 -3.234,-13.299C-3.242,-13.31 -3.249,-13.321 -3.257,-13.332C-3.839,-14.191 -4.986,-14.453 -5.88,-13.926L-14.712,-8.718L-8.146,-19.852C-7.619,-20.747 -6.739,-21.416 -5.713,-21.578C-5.53,-21.608 -5.351,-21.622 -5.171,-21.622C-4.282,-21.622 -3.435,-21.273 -2.796,-20.635C-2.053,-19.891 -1.703,-18.869 -1.836,-17.827C-1.889,-17.407 -2.021,-17.012 -2.217,-16.655C-2.574,-16.003 -2.531,-15.211 -2.104,-14.604C-2.092,-14.588 -2.081,-14.573 -2.07,-14.557C-1.225,-13.35 0.578,-13.482 1.275,-14.781C1.693,-15.56 1.972,-16.42 2.087,-17.329C2.374,-19.593 1.613,-21.817 0,-23.43" style="fill:rgb(33,41,45);fill-rule:nonzero;"/>
            </g>
        </g>
        <g transform="matrix(4.166667,0,0,4.166667,0,0)">
            <g transform="matrix(1,0,0,1,393.9746,90.0016)">
                <path d="M0,-20.36C-0.93,-21.936 -2.356,-23.203 -4.096,-23.77C-5.592,-24.259 -7.118,-24.26 -8.513,-23.839C-9.918,-23.416 -10.345,-21.624 -9.291,-20.604L-9.262,-20.576C-8.769,-20.097 -8.059,-19.844 -7.401,-20.046C-7.087,-20.142 -6.758,-20.192 -6.423,-20.192C-6.236,-20.192 -6.048,-20.176 -5.859,-20.145C-4.822,-19.972 -3.947,-19.271 -3.414,-18.366L3.118,-7.287L-7.963,-13.822C-8.602,-14.198 -9.156,-14.731 -9.469,-15.403C-9.793,-16.101 -9.853,-16.812 -9.713,-17.473C-9.58,-18.1 -9.796,-18.753 -10.254,-19.2C-10.28,-19.226 -10.307,-19.252 -10.334,-19.278C-11.427,-20.342 -13.281,-19.79 -13.59,-18.297C-13.751,-17.52 -13.784,-16.712 -13.681,-15.898C-13.394,-13.634 -12.101,-11.672 -10.136,-10.513L14.306,3.9L0,-20.36Z" style="fill:rgb(33,41,45);fill-rule:nonzero;"/>
            </g>
        </g>
        <g transform="matrix(4.166667,0,0,4.166667,0,0)">
            <g transform="matrix(1,0,0,1,402.8252,80.6064)">
                <path d="M0,11.438C-3.158,11.438 -5.719,8.877 -5.719,5.719C-5.719,2.56 -3.158,0 0,0C3.159,0 5.72,2.56 5.72,5.719C5.72,8.877 3.159,11.438 0,11.438" style="fill:rgb(251,175,0);fill-rule:nonzero;"/>
            </g>
        </g>
        <g transform="matrix(4.166667,0,0,4.166667,0,0)">
            <g transform="matrix(1,0,0,1,402.8252,90.1874)">
                <path d="M0,-7.724C2.131,-7.724 3.863,-5.992 3.863,-3.863C3.863,-1.733 2.131,0 0,0C-2.13,0 -3.862,-1.733 -3.862,-3.863C-3.862,-5.992 -2.13,-7.724 0,-7.724M0,-11.438C-4.177,-11.438 -7.576,-8.04 -7.576,-3.863C-7.576,0.315 -4.177,3.714 0,3.714C4.178,3.714 7.577,0.315 7.577,-3.863C7.577,-8.04 4.178,-11.438 0,-11.438" style="fill:rgb(33,41,45);fill-rule:nonzero;"/>
            </g>
        </g>
        <g transform="matrix(4.166667,0,0,4.166667,0,0)">
            <g transform="matrix(-1,0,0,1,805.651,-321.542)">
                <rect x="375.032" y="410.021" width="55.587" height="1.5" style="fill:rgb(34,41,45);"/>
            </g>
        </g>
        <g transform="matrix(4.166667,0,0,4.166667,0,0)">
            <g transform="matrix(-1,0,0,1,805.65,-321.542)">
                <rect x="373.925" y="408.914" width="57.8" height="3.714" style="fill:rgb(33,41,45);"/>
            </g>
        </g>
        <g transform="matrix(4.166667,0,0,4.166667,0,0)">
            <g transform="matrix(1,0,0,1,366.7637,155.1539)">
                <path d="M0,-48.92L0,-6.542C0,-2.929 2.929,0 6.542,0L65.582,0C69.195,0 72.124,-2.929 72.124,-6.542L72.124,-48.92L0,-48.92Z" style="fill:rgb(156,167,36);fill-rule:nonzero;"/>
            </g>
        </g>
        <g transform="matrix(4.166667,0,0,4.166667,0,0)">
            <g transform="matrix(1,0,0,1,366.7637,155.1534)">
                <path d="M0,-48.92L0,-43.358L57.177,-43.358C61.247,-43.358 64.548,-40.058 64.548,-35.987L64.548,-15.345C64.548,-11.732 61.618,-8.803 58.006,-8.803L0,-8.803L0,-6.542C0,-2.929 2.929,0 6.542,0L65.582,0C69.195,0 72.124,-2.929 72.124,-6.542L72.124,-48.92L0,-48.92Z" style="fill:rgb(104,109,10);fill-rule:nonzero;"/>
            </g>
        </g>
        <g transform="matrix(4.166667,0,0,4.166667,0,0)">
            <g transform="matrix(1,0,0,1,438.8457,139.8235)">
                <path d="M0,-2.865C-0.013,-2.865 -0.024,-2.864 -0.037,-2.864C-1.028,-2.834 -1.814,-2.025 -1.814,-1.033L-1.814,8.789C-1.814,11.376 -3.912,13.474 -6.5,13.474L-65.54,13.474C-68.128,13.474 -70.226,11.376 -70.226,8.789L-70.226,-18.191C-70.226,-19.16 -70.987,-19.958 -71.955,-20.002L-71.993,-20.004C-73.063,-20.052 -73.938,-19.216 -73.938,-18.144L-73.938,8.789C-73.938,13.427 -70.179,17.187 -65.54,17.187L-6.5,17.187C-1.861,17.187 1.898,13.427 1.898,8.788L1.898,-1.035C1.898,-2.074 1.039,-2.898 0,-2.865" style="fill:rgb(33,41,45);fill-rule:nonzero;"/>
            </g>
        </g>
        <g transform="matrix(4.166667,0,0,4.166667,0,0)">
            <g transform="matrix(1,0,0,1,364.9072,135.3144)">
                <path d="M0,-30.937L0,-19.016C0,-18.032 0.774,-17.223 1.758,-17.18L1.817,-17.178C2.852,-17.133 3.713,-17.959 3.713,-18.994L3.713,-27.224L72.124,-27.224L72.124,-1.885C72.124,-0.843 72.988,0 74.029,-0.04C74.041,-0.041 74.054,-0.041 74.065,-0.041C75.055,-0.081 75.837,-0.896 75.837,-1.886L75.837,-30.937L0,-30.937Z" style="fill:rgb(33,41,45);fill-rule:nonzero;"/>
            </g>
        </g>
        <g transform="matrix(4.166667,0,0,4.166667,0,0)">
            <g transform="matrix(1,0,0,1,440.5273,106.2337)">
                <path d="M0,-16.952L-75.404,-16.952C-77.981,-16.952 -80.071,-14.863 -80.071,-12.285L-80.071,-4.667C-80.071,-2.09 -77.981,0 -75.404,0L0,0C2.578,0 4.667,-2.09 4.667,-4.667L4.667,-12.285C4.667,-14.863 2.578,-16.952 0,-16.952" style="fill:rgb(249,47,0);fill-rule:nonzero;"/>
            </g>
        </g>
        <g transform="matrix(4.166667,0,0,4.166667,0,0)">
            <g transform="matrix(1,0,0,1,440.5273,106.2337)">
                <path d="M0,-16.952L-2.701,-16.952C-2.688,-16.815 -2.659,-16.682 -2.659,-16.541L-2.659,-14.137C-2.659,-8.68 -7.083,-4.256 -12.54,-4.256L-80.03,-4.256C-79.818,-1.874 -77.841,0 -75.404,0L0,0C2.578,0 4.667,-2.09 4.667,-4.667L4.667,-12.285C4.667,-14.863 2.578,-16.952 0,-16.952" style="fill:rgb(153,25,0);fill-rule:nonzero;"/>
            </g>
        </g>
        <g transform="matrix(4.166667,0,0,4.166667,0,0)">
            <g transform="matrix(1,0,0,1,440.5264,97.0258)">
                <path d="M0,-9.601L-68.853,-9.601C-69.86,-9.601 -70.675,-8.792 -70.688,-7.785L-70.688,-7.748C-70.701,-6.724 -69.877,-5.887 -68.854,-5.887L0.001,-5.887C1.553,-5.887 2.811,-4.629 2.811,-3.077L2.811,-1.84C2.811,-0.821 3.645,0 4.663,-0.017L4.733,-0.018C5.727,-0.033 6.524,-0.844 6.524,-1.838L6.524,-3.076C6.524,-6.68 3.604,-9.601 0,-9.601" style="fill:rgb(33,41,45);fill-rule:nonzero;"/>
            </g>
        </g>
        <g transform="matrix(4.166667,0,0,4.166667,0,0)">
            <g transform="matrix(1,0,0,1,445.1934,96.8439)">
                <path d="M0,1.828L-0.037,1.828C-1.047,1.847 -1.856,2.67 -1.856,3.681L-1.856,4.723C-1.856,6.275 -3.114,7.534 -4.667,7.534L-80.069,7.534C-81.622,7.534 -82.881,6.275 -82.881,4.722L-82.881,-2.894C-82.881,-4.446 -81.622,-5.705 -80.07,-5.705L-78.868,-5.705C-77.862,-5.705 -77.043,-6.512 -77.026,-7.517C-77.026,-7.529 -77.026,-7.542 -77.025,-7.554C-77.01,-8.58 -77.842,-9.419 -78.867,-9.419L-80.069,-9.419C-83.673,-9.419 -86.594,-6.498 -86.594,-2.894L-86.594,4.723C-86.594,8.326 -83.673,11.247 -80.07,11.247L-4.667,11.247C-1.063,11.247 1.857,8.326 1.857,4.723L1.857,3.652C1.857,2.63 1.021,1.809 0,1.828" style="fill:rgb(33,41,45);fill-rule:nonzero;"/>
            </g>
        </g>
        <g transform="matrix(4.166667,0,0,4.166667,0,0)">
            <g transform="matrix(1,0,0,1,0,-238.612)">
                <rect x="420.095" y="344.846" width="11.362" height="48.92" style="fill:white;"/>
            </g>
        </g>
        <g transform="matrix(4.166667,0,0,4.166667,0,0)">
            <g transform="matrix(1,0,0,1,420.0947,155.1539)">
                <path d="M0,-48.92L0,-43.359L3.846,-43.359C7.916,-43.359 11.217,-40.059 11.217,-35.988L11.217,-15.346C11.217,-11.732 8.287,-8.804 4.675,-8.804L0,-8.804L0,0L11.362,0L11.362,-48.92L0,-48.92Z" style="fill:rgb(185,185,185);fill-rule:nonzero;"/>
            </g>
        </g>
        <g transform="matrix(4.166667,0,0,4.166667,0,0)">
            <g transform="matrix(1,0,0,1,431.4297,156.9685)">
                <path d="M0,-40.47C-0.012,-40.47 -0.024,-40.469 -0.037,-40.468C-1.033,-40.428 -1.829,-39.629 -1.829,-38.632L-1.829,-3.671L-9.478,-3.671L-9.478,-11.705C-9.478,-12.733 -10.32,-13.569 -11.349,-13.552C-11.36,-13.551 -11.373,-13.551 -11.386,-13.551C-12.388,-13.533 -13.191,-12.707 -13.191,-11.704L-13.191,0.042L1.884,0.042L1.884,-38.633C1.884,-39.666 1.032,-40.512 0,-40.47" style="fill:rgb(33,41,45);fill-rule:nonzero;"/>
            </g>
        </g>
        <g transform="matrix(4.166667,0,0,4.166667,0,0)">
            <g transform="matrix(1,0,0,1,418.2383,141.7564)">
                <path d="M0,-37.379L0,-1.847C0,-0.819 0.843,0 1.87,-0.017C1.883,-0.017 1.896,-0.018 1.907,-0.018C2.91,-0.035 3.714,-0.845 3.714,-1.848L3.714,-33.666L11.362,-33.666L11.362,-28.776C11.362,-27.719 12.25,-26.894 13.307,-26.94C13.318,-26.941 13.331,-26.941 13.344,-26.941C14.316,-26.984 15.075,-27.805 15.075,-28.778L15.075,-37.379L0,-37.379Z" style="fill:rgb(33,41,45);fill-rule:nonzero;"/>
            </g>
        </g>
        <g transform="matrix(4.166667,0,0,4.166667,0,0)">
            <g transform="matrix(1,0,0,1,0,-238.612)">
                <rect x="397.145" y="344.846" width="11.362" height="48.92" style="fill:white;"/>
            </g>
        </g>
        <g transform="matrix(4.166667,0,0,4.166667,0,0)">
            <g transform="matrix(1,0,0,1,0,-281.971)">
                <rect x="397.145" y="388.205" width="11.362" height="5.561" style="fill:rgb(185,185,185);"/>
            </g>
        </g>
        <g transform="matrix(4.166667,0,0,4.166667,0,0)">
            <g transform="matrix(1,0,0,1,0,-198.496)">
                <rect x="397.145" y="344.846" width="11.362" height="8.804" style="fill:rgb(185,185,185);"/>
            </g>
        </g>
        <g transform="matrix(4.166667,0,0,4.166667,0,0)">
            <g transform="matrix(1,0,0,1,408.4707,146.5553)">
                <path d="M0,-19.483C-0.027,-19.482 -0.055,-19.481 -0.082,-19.479C-1.054,-19.432 -1.82,-18.639 -1.82,-17.666L-1.82,6.742L-9.47,6.742L-9.47,-28.119C-9.47,-29.121 -10.282,-29.936 -11.284,-29.937C-11.312,-29.937 -11.34,-29.937 -11.367,-29.938C-12.37,-29.938 -13.184,-29.122 -13.184,-28.119L-13.184,10.455L1.894,10.455L1.894,-17.67C1.894,-18.703 1.032,-19.534 0,-19.483" style="fill:rgb(33,41,45);fill-rule:nonzero;"/>
            </g>
        </g>
        <g transform="matrix(4.166667,0,0,4.166667,0,0)">
            <g transform="matrix(1,0,0,1,395.2871,125.4414)">
                <path d="M0,-21.064L0,-12.303C0,-11.288 0.833,-10.485 1.85,-10.488L1.887,-10.488C2.894,-10.491 3.714,-11.296 3.714,-12.303L3.714,-17.351L11.363,-17.351L11.363,-1.864C11.363,-0.825 12.233,0 13.272,-0.051C13.3,-0.053 13.327,-0.054 13.354,-0.055C14.319,-0.104 15.077,-0.902 15.077,-1.869L15.077,-21.064L0,-21.064Z" style="fill:rgb(33,41,45);fill-rule:nonzero;"/>
            </g>
        </g>
        <g transform="matrix(4.166667,0,0,4.166667,0,0)">
            <g transform="matrix(1,0,0,1,0,-238.612)">
                <rect x="374.193" y="344.846" width="11.362" height="48.92" style="fill:white;"/>
            </g>
        </g>
        <g transform="matrix(4.166667,0,0,4.166667,0,0)">
            <g transform="matrix(1,0,0,1,0,-281.971)">
                <rect x="374.193" y="388.205" width="11.362" height="5.561" style="fill:rgb(185,185,185);"/>
            </g>
        </g>
        <g transform="matrix(4.166667,0,0,4.166667,0,0)">
            <g transform="matrix(1,0,0,1,0,-198.496)">
                <rect x="374.193" y="344.846" width="11.362" height="8.804" style="fill:rgb(185,185,185);"/>
            </g>
        </g>
        <g transform="matrix(4.166667,0,0,4.166667,0,0)">
            <g transform="matrix(1,0,0,1,372.3369,140.1104)">
                <path d="M0,-35.733L0,-14.744C0,-13.729 0.841,-12.928 1.855,-12.946C1.879,-12.946 1.902,-12.946 1.926,-12.947C2.915,-12.963 3.714,-13.756 3.714,-14.746L3.714,-32.02L11.362,-32.02L11.362,-1.862C11.362,-0.906 12.109,-0.116 13.063,-0.062C13.102,-0.06 13.14,-0.057 13.179,-0.055C14.209,0 15.076,-0.824 15.076,-1.856L15.076,-35.733L0,-35.733Z" style="fill:rgb(33,41,45);fill-rule:nonzero;"/>
            </g>
        </g>
        <g transform="matrix(4.166667,0,0,4.166667,0,0)">
            <g transform="matrix(1,0,0,1,385.6973,144.1211)">
                <path d="M0,-2.419C-0.038,-2.42 -0.076,-2.422 -0.114,-2.424C-1.141,-2.471 -1.998,-1.656 -1.998,-0.629L-1.998,9.176L-9.646,9.176L-9.646,-13.498C-9.646,-14.492 -10.452,-15.309 -11.445,-15.298C-11.501,-15.297 -11.556,-15.296 -11.61,-15.296C-12.585,-15.283 -13.36,-14.47 -13.36,-13.496L-13.36,12.89L1.716,12.89L1.716,-0.624C1.716,-1.585 0.96,-2.377 0,-2.419" style="fill:rgb(33,41,45);fill-rule:nonzero;"/>
            </g>
        </g>
    </g>
</svg>
