<?xml version="1.0" encoding="UTF-8" standalone="no"?>
<!DOCTYPE svg PUBLIC "-//W3C//DTD SVG 1.1//EN" "http://www.w3.org/Graphics/SVG/1.1/DTD/svg11.dtd">
<svg width="100%" height="100%" viewBox="0 0 399 382" version="1.1" xmlns="http://www.w3.org/2000/svg" xmlns:xlink="http://www.w3.org/1999/xlink" xml:space="preserve" xmlns:serif="http://www.serif.com/" style="fill-rule:evenodd;clip-rule:evenodd;stroke-linejoin:round;stroke-miterlimit:2;">
    <g transform="matrix(1,0,0,1,-851.515514,-1427.097591)">
        <g transform="matrix(4.166667,0,0,4.166667,0,0)">
            <g transform="matrix(1,0,0,1,293.5869,403.1261)">
                <path d="M0,-29.174L-25.341,-32.856L-36.673,-55.819C-38.613,-59.749 -44.219,-59.749 -46.159,-55.819L-57.492,-32.856L-82.832,-29.174C-87.17,-28.543 -88.903,-23.212 -85.764,-20.153L-67.427,-2.278L-71.755,22.96C-72.497,27.28 -67.961,30.575 -64.082,28.535L-41.416,16.619L-18.751,28.535C-14.87,30.575 -10.335,27.28 -11.076,22.96L-15.405,-2.278L2.932,-20.153C6.07,-23.212 4.338,-28.543 0,-29.174" style="fill:rgb(251,175,0);fill-rule:nonzero;"/>
            </g>
        </g>
        <g transform="matrix(4.166667,0,0,4.166667,0,0)">
            <g transform="matrix(-0.849738,-0.527204,-0.527204,0.849738,226.0171,379.718157)">
                <path d="M-3.583,-43.834C-1.979,-42.839 -0.894,-41.011 -1.106,-38.829L-3.583,-13.341L-26.154,-7.454L-3.583,-43.834Z" style="fill:rgb(239,121,0);fill-rule:nonzero;"/>
            </g>
        </g>
        <g transform="matrix(4.166667,0,0,4.166667,0,0)">
            <g transform="matrix(-0.776009,0.630722,0.630722,0.776009,253.831966,384.130183)">
                <path d="M32.018,-35.241C33.903,-34.315 35.255,-32.339 34.974,-29.917L32.018,-4.481L3.208,1.313L32.018,-35.241Z" style="fill:rgb(239,121,0);fill-rule:nonzero;"/>
            </g>
        </g>
        <g transform="matrix(4.166667,0,0,4.166667,0,0)">
            <g transform="matrix(0.36786,0.929881,0.929881,-0.36786,213.104344,404.457999)">
                <path d="M28.586,0.064C30.344,1.027 31.578,2.929 31.33,5.244L28.586,30.704L-1.702,42.686L28.586,0.064Z" style="fill:rgb(239,121,0);fill-rule:nonzero;"/>
            </g>
        </g>
        <g transform="matrix(4.166667,0,0,4.166667,0,0)">
            <g transform="matrix(0.996638,-0.08193,-0.08193,-0.996638,282.413927,429.864728)">
                <path d="M-1.84,-1.003C-0.392,0.011 0.586,1.711 0.406,3.758L-1.84,29.266L-26.643,45.026L-1.84,-1.003Z" style="fill:rgb(239,121,0);fill-rule:nonzero;"/>
            </g>
        </g>
        <g transform="matrix(4.166667,0,0,4.166667,0,0)">
            <g transform="matrix(0.222869,-0.974848,-0.974848,-0.222869,278.237328,356.197909)">
                <path d="M-15.945,-23.49C-14.619,-22.468 -13.731,-20.86 -13.887,-18.922L-15.945,6.604L-36.005,18.507L-15.945,-23.49Z" style="fill:rgb(239,121,0);fill-rule:nonzero;"/>
            </g>
        </g>
        <g transform="matrix(4.166667,0,0,4.166667,0,0)">
            <g transform="matrix(1,0,0,1,223.6675,343.8974)">
                <path d="M0,28.253C0.172,29.232 1.084,29.898 2.068,29.755L13.661,28.069L25.426,4.232C26.047,2.973 27.287,2.247 28.711,2.325C29.973,2.395 31.078,3.21 31.636,4.343L36.123,13.434C36.717,14.638 38.372,14.829 39.2,13.773C39.208,13.762 39.216,13.75 39.225,13.739C39.667,13.177 39.762,12.416 39.446,11.774L35.025,2.816C33.902,0.541 31.729,-1.124 29.204,-1.361C26.186,-1.645 23.409,-0.075 22.095,2.588L11.195,24.675L1.533,26.079C0.507,26.229 -0.186,27.194 -0.007,28.215C-0.004,28.228 -0.002,28.24 0,28.253" style="fill:rgb(33,41,45);fill-rule:nonzero;"/>
            </g>
        </g>
        <g transform="matrix(4.166667,0,0,4.166667,0,0)">
            <g transform="matrix(1,0,0,1,222.6763,372.7797)">
                <path d="M0,37.398C-0.189,38.502 0.645,39.523 1.766,39.551C1.778,39.551 1.791,39.552 1.804,39.552C2.716,39.575 3.506,38.919 3.661,38.02L5.479,27.42L-13.469,8.95C-14.373,8.069 -14.808,6.768 -14.484,5.547C-14.119,4.168 -13.045,3.212 -11.655,3.011L-2.234,1.641C-1.208,1.493 -0.501,0.523 -0.683,-0.498C-0.685,-0.511 -0.687,-0.524 -0.689,-0.537C-0.862,-1.514 -1.787,-2.177 -2.77,-2.034L-11.943,-0.702C-14.453,-0.336 -16.706,1.215 -17.711,3.544C-18.912,6.326 -18.276,9.451 -16.149,11.525L1.489,28.717L0,37.398Z" style="fill:rgb(33,41,45);fill-rule:nonzero;"/>
            </g>
        </g>
        <g transform="matrix(4.166667,0,0,4.166667,0,0)">
            <g transform="matrix(1,0,0,1,264.0029,424.2292)">
                <path d="M0,-0.361L-11.832,-6.582L-35.36,5.788C-36.661,6.471 -38.099,6.303 -39.247,5.313C-40.148,4.535 -40.537,3.309 -40.335,2.135L-38.581,-8.096C-38.391,-9.201 -39.226,-10.212 -40.346,-10.241C-40.358,-10.242 -40.371,-10.242 -40.384,-10.243C-41.296,-10.266 -42.087,-9.619 -42.242,-8.718L-43.95,1.242C-44.389,3.799 -43.094,7.234 -40.941,8.684C-39.739,9.493 -38.358,9.905 -36.966,9.904C-35.831,9.904 -34.688,9.63 -33.632,9.077L-11.832,-2.387L-1.731,2.923C-0.902,3.36 0.133,3.108 0.649,2.326C0.656,2.315 0.663,2.305 0.67,2.294C1.272,1.381 0.969,0.148 0,-0.361" style="fill:rgb(33,41,45);fill-rule:nonzero;"/>
            </g>
        </g>
        <g transform="matrix(4.166667,0,0,4.166667,0,0)">
            <g transform="matrix(1,0,0,1,285.3643,434.7343)">
                <path d="M0,-41.288C-0.01,-41.295 -0.021,-41.303 -0.03,-41.31C-0.755,-41.84 -1.755,-41.769 -2.397,-41.143L-9.178,-34.534L-4.684,-8.334C-4.447,-6.949 -5.024,-5.632 -6.224,-4.858C-7.284,-4.174 -8.655,-4.186 -9.772,-4.773L-16.604,-8.365C-17.442,-8.806 -18.478,-8.538 -18.997,-7.747C-19.004,-7.736 -19.011,-7.725 -19.018,-7.716C-19.613,-6.809 -19.297,-5.586 -18.336,-5.081L-11.392,-1.43C-7.63,0.552 -2.394,-1.142 -1.16,-6.076C-0.896,-7.134 -0.9,-8.243 -1.085,-9.318L-5.188,-33.237L0.199,-38.489C1.014,-39.282 0.919,-40.617 0,-41.288" style="fill:rgb(33,41,45);fill-rule:nonzero;"/>
            </g>
        </g>
        <g transform="matrix(4.166667,0,0,4.166667,0,0)">
            <g transform="matrix(1,0,0,1,299.373,376.5473)">
                <path d="M0,-0.228C-1.009,-2.556 -3.264,-4.105 -5.774,-4.47L-29.894,-7.975L-33.591,-15.466C-34.219,-16.739 -35.979,-16.843 -36.776,-15.668C-36.784,-15.657 -36.793,-15.645 -36.801,-15.632C-37.167,-15.091 -37.2,-14.389 -36.911,-13.802L-32.36,-4.581L-6.053,-0.756C-4.662,-0.555 -3.588,0.401 -3.223,1.781C-2.899,3.001 -3.335,4.302 -4.239,5.183L-12.527,13.262C-13.342,14.056 -13.248,15.391 -12.33,16.062C-12.32,16.07 -12.31,16.078 -12.3,16.085C-11.575,16.615 -10.573,16.544 -9.931,15.918L-1.558,7.757C0.57,5.68 1.205,2.552 0,-0.228" style="fill:rgb(33,41,45);fill-rule:nonzero;"/>
            </g>
        </g>
    </g>
</svg>
